<?xml version="1.0" encoding="UTF-8" standalone="no"?>
<!-- Created with Inkscape (http://www.inkscape.org/) -->

<svg
   width="252"
   height="65"
   viewBox="0 0 66.675003 17.197918"
   version="1.1"
   id="svg5"
   inkscape:version="1.2.2 (732a01da63, 2022-12-09)"
   sodipodi:docname="logo-2.1.svg"
   inkscape:export-filename="logo-2.2.png"
   inkscape:export-xdpi="96"
   inkscape:export-ydpi="96"
   xmlns:inkscape="http://www.inkscape.org/namespaces/inkscape"
   xmlns:sodipodi="http://sodipodi.sourceforge.net/DTD/sodipodi-0.dtd"
   xmlns="http://www.w3.org/2000/svg"
   xmlns:svg="http://www.w3.org/2000/svg">
  <sodipodi:namedview
     id="namedview7"
     pagecolor="#ffffff"
     bordercolor="#666666"
     borderopacity="1.0"
     inkscape:showpageshadow="2"
     inkscape:pageopacity="0.0"
     inkscape:pagecheckerboard="0"
     inkscape:deskcolor="#d1d1d1"
     inkscape:document-units="mm"
     showgrid="false"
     inkscape:zoom="0.921142"
     inkscape:cx="68.936168"
     inkscape:cy="137.87234"
     inkscape:window-width="1366"
     inkscape:window-height="697"
     inkscape:window-x="-8"
     inkscape:window-y="-8"
     inkscape:window-maximized="1"
     inkscape:current-layer="text17795" />
  <defs
     id="defs2">
    <rect
       x="9.0879821"
       y="18.528065"
       width="173.29432"
       height="46.471935"
       id="rect205" />
    <rect
       x="0"
       y="0"
       width="252"
       height="65"
       id="rect199" />
    <rect
       x="282.49207"
       y="184.23395"
       width="168.88112"
       height="47.759232"
       id="rect17849" />
  </defs>
  <g
     inkscape:label="Camada 1"
     inkscape:groupmode="layer"
     id="layer1">
    <g
       aria-label="voculary"
       id="text17795"
       style="font-weight:500;font-size:16.9333px;line-height:0.75;font-family:Ubuntu;-inkscape-font-specification:'Ubuntu Medium';letter-spacing:0px;stroke-width:0.264583">
      <path
         d="M 3.5729263,13.758333 Q 2.7262613,12.014203 1.8287964,9.7620744 0.9482648,7.4930122 0.2201329,4.9022173 H 2.4045286 Q 2.5907949,5.6472825 2.8278611,6.5108808 3.0818606,7.3575458 3.3527934,8.2211441 3.6406595,9.0678091 3.9285256,9.8806075 4.233325,10.676473 4.4873245,11.319938 4.741324,10.676473 5.0291901,9.8806075 5.3170562,9.0678091 5.587989,8.2211441 5.8758551,7.3575458 6.1298546,6.5108808 6.3838541,5.6472825 6.5701204,4.9022173 H 8.6867829 Q 7.958651,7.4930122 7.0611861,9.7620744 6.1806545,12.014203 5.3339895,13.758333 Z"
         style="fill:#312656"
         id="path180" />
      <path
         d="m 18.220247,9.3218086 q 0,1.0498644 -0.3048,1.9134634 -0.304799,0.863598 -0.863598,1.473197 -0.558799,0.609598 -1.354664,0.948264 -0.778932,0.338666 -1.727196,0.338666 -0.948265,0 -1.727197,-0.338666 Q 11.46386,13.318067 10.905061,12.708469 10.346262,12.09887 10.02453,11.235272 9.7197303,10.371673 9.7197303,9.3218086 q 0,-1.0498646 0.3047997,-1.8965296 0.321732,-0.8635983 0.880531,-1.4731971 0.575732,-0.6095988 1.354664,-0.9313315 0.778932,-0.338666 1.710264,-0.338666 0.931331,0 1.710263,0.338666 0.795865,0.3217327 1.354664,0.9313315 0.558799,0.6095988 0.863598,1.4731971 0.321733,0.846665 0.321733,1.8965296 z m -2.099729,0 q 0,-1.3207974 -0.575733,-2.0827959 -0.558798,-0.7789318 -1.574796,-0.7789318 -1.015998,0 -1.591731,0.7789318 -0.558799,0.7619985 -0.558799,2.0827959 0,1.3377304 0.558799,2.1166624 0.575733,0.778932 1.591731,0.778932 1.015998,0 1.574796,-0.778932 0.575733,-0.778932 0.575733,-2.1166624 z"
         style="fill:#312656"
         id="path182" />
      <path
         d="m 19.845837,9.3387419 q 0,-0.9821314 0.3048,-1.8287964 0.304799,-0.8635983 0.863598,-1.4901304 0.575732,-0.6265321 1.388531,-0.9821314 0.812798,-0.3555993 1.828796,-0.3555993 1.253064,0 2.370662,0.4571991 L 26.161958,6.8156802 Q 25.806359,6.6632805 25.34916,6.5616807 24.908894,6.4600809 24.400895,6.4600809 q -1.202264,0 -1.828796,0.7619985 -0.626532,0.7450652 -0.626532,2.1166625 0,1.3207971 0.592665,2.0997291 0.592666,0.761999 1.99813,0.761999 0.524932,0 1.032931,-0.1016 0.507999,-0.1016 0.880532,-0.254 l 0.287866,1.69333 q -0.338666,0.169333 -1.032932,0.3048 -0.677332,0.135466 -1.405464,0.135466 -1.134531,0 -1.981196,-0.338666 -0.829731,-0.355599 -1.38853,-0.965198 Q 20.387703,12.04807 20.11677,11.201405 19.845837,10.337807 19.845837,9.3387419 Z"
         style="fill:#312656"
         id="path184" />
      <path
         d="m 35.593808,13.4874 q -0.592665,0.1524 -1.54093,0.3048 -0.948265,0.169333 -2.082796,0.169333 -1.066798,0 -1.79493,-0.3048 -0.711198,-0.304799 -1.151464,-0.846665 -0.423333,-0.541865 -0.609599,-1.28693 -0.186266,-0.761999 -0.186266,-1.6594638 V 4.9022173 h 2.048929 v 4.6397242 q 0,1.4223975 0.406399,2.0319965 0.423333,0.609598 1.456264,0.609598 0.372533,0 0.778932,-0.03387 0.423332,-0.03387 0.626532,-0.08467 V 4.9022173 h 2.048929 z"
         style="fill:#312656"
         id="path186" />
      <path
         d="M 41.283399,13.927666 Q 40.369001,13.910733 39.759402,13.724467 39.166737,13.5382 38.811137,13.199534 38.455538,12.843935 38.303138,12.335936 38.167672,11.811004 38.167672,11.150605 V 0.95675839 l 2.048929,-0.338666 V 10.761139 q 0,0.372533 0.0508,0.626532 0.06773,0.254 0.220133,0.440266 0.1524,0.169333 0.406399,0.270933 0.270933,0.08467 0.677332,0.135466 z"
         style="fill:#312656"
         id="path188" />
      <path
         d="m 46.346471,12.319003 q 0.948265,0 1.439331,-0.1016 V 9.9483407 q -0.169333,-0.0508 -0.491066,-0.1015998 -0.321733,-0.0508 -0.711199,-0.0508 -0.338666,0 -0.694265,0.0508 -0.338666,0.0508 -0.626532,0.1862661 -0.270933,0.135467 -0.440266,0.389466 -0.169333,0.237066 -0.169333,0.609599 0,0.728132 0.457199,1.015998 0.457199,0.270933 1.236131,0.270933 z M 46.177138,4.6820844 q 1.015998,0 1.710263,0.2539995 0.694266,0.2539995 1.100665,0.7111986 0.423332,0.4571991 0.592665,1.1175978 0.186267,0.6434654 0.186267,1.4223972 v 5.3678565 q -0.474133,0.101599 -1.439331,0.237066 -0.948265,0.1524 -2.150529,0.1524 -0.795865,0 -1.456264,-0.1524 -0.660398,-0.1524 -1.134531,-0.491066 -0.457199,-0.338666 -0.728132,-0.880531 -0.253999,-0.541866 -0.253999,-1.337731 0,-0.761999 0.287866,-1.286931 0.304799,-0.5249323 0.812798,-0.846665 0.507999,-0.338666 1.168398,-0.4741324 0.677332,-0.1523997 1.405464,-0.1523997 0.338666,0 0.711199,0.0508 0.372532,0.033867 0.795865,0.1354664 v -0.338666 q 0,-0.3555993 -0.08467,-0.677332 Q 47.616469,7.1712795 47.396336,6.9342133 47.193136,6.6802138 46.837537,6.5447474 46.498871,6.409281 45.973939,6.409281 q -0.711199,0 -1.303865,0.1015998 -0.592665,0.1015998 -0.965198,0.2370662 L 43.450877,5.0884836 q 0.389466,-0.1354664 1.134531,-0.2709328 0.745065,-0.1354664 1.59173,-0.1354664 z"
         style="fill:#312656"
         id="path190" />
      <path
         d="M 57.319256,6.747947 Q 57.065257,6.6632805 56.608058,6.578614 56.167792,6.4770142 55.575126,6.4770142 q -0.338666,0 -0.728131,0.067733 -0.372533,0.067733 -0.524933,0.1185331 V 13.758333 H 52.273133 V 5.3255498 Q 52.865798,5.1054169 53.74633,4.9191506 54.643795,4.715951 55.727526,4.715951 q 0.2032,0 0.474133,0.033867 0.270932,0.016933 0.541865,0.067733 0.270933,0.033867 0.524932,0.1015998 0.254,0.0508 0.4064,0.1015998 z"
         style="fill:#312656"
         id="path192" />
      <path
         d="m 66.632566,4.9022173 q -1.371597,5.0461234 -3.183461,9.1439817 -0.338666,0.761999 -0.694265,1.303864 -0.355599,0.541866 -0.795865,0.897465 -0.440266,0.3556 -0.982131,0.507999 -0.541866,0.169333 -1.253065,0.169333 -0.474132,0 -0.948264,-0.101599 -0.457199,-0.1016 -0.694266,-0.220133 l 0.372533,-1.64253 q 0.609599,0.237066 1.202264,0.237066 0.795865,0 1.236131,-0.389466 0.457199,-0.372533 0.795865,-1.168398 -0.965198,-1.862663 -1.862663,-4.0639919 -0.880531,-2.201329 -1.574797,-4.6735908 h 2.184396 q 0.169333,0.7111986 0.406399,1.5409303 0.254,0.8297317 0.541866,1.69333 0.287866,0.846665 0.609599,1.69333 0.321732,0.8466654 0.643465,1.5747974 0.541866,-1.5070642 1.015998,-3.2003942 0.474132,-1.7102633 0.863598,-3.3019935 z"
         style="fill:#312656"
         id="path194" />
    </g>
    <text
       xml:space="preserve"
       transform="scale(0.26458333)"
       id="text17847"
       style="font-style:normal;font-weight:normal;font-size:40px;line-height:1.25;font-family:sans-serif;white-space:pre;shape-inside:url(#rect17849);display:inline;fill:#000000;fill-opacity:1;stroke:none" />
    <text
       xml:space="preserve"
       transform="scale(0.26458333)"
       id="text197"
       style="line-height:1.25;font-family:Comfortaa;font-weight:bold;font-size:40px;-inkscape-font-specification:'Comfortaa Bold';letter-spacing:-0.01px;white-space:pre;shape-inside:url(#rect199)" />
    <text
       xml:space="preserve"
       transform="scale(0.26458333)"
       id="text203"
       style="line-height:1.25;font-family:Comfortaa;font-weight:bold;font-size:40px;-inkscape-font-specification:'Comfortaa Bold';letter-spacing:-0.01px;white-space:pre;shape-inside:url(#rect205)" />
  </g>
</svg>
