<svg width="81" height="58" viewBox="0 0 81 58" fill="none" xmlns="http://www.w3.org/2000/svg">
<g clip-path="url(#clip0_504_70)">
<path fill-rule="evenodd" clip-rule="evenodd" d="M40.1041 0.801852C39.3899 1.15364 38.8333 2.29519 38.4462 4.20192C38.3729 4.56317 38.3013 5.03607 38.287 5.25282C38.2727 5.46957 38.2294 5.91292 38.1907 6.23804C38.0772 7.19108 38.2317 9.39128 38.4951 10.573C38.8937 12.3607 39.4294 13.4175 40.1277 13.7936C40.8979 14.2083 41.8503 12.9802 42.2944 10.9999C42.347 10.7651 42.4203 10.453 42.4574 10.3063C42.4944 10.1596 42.5731 9.49453 42.6322 8.82845C42.7992 6.94747 42.6431 4.95298 42.1983 3.28579C41.8739 2.06983 41.2892 1.02819 40.801 0.796597C40.5152 0.660965 40.3883 0.661885 40.1041 0.801852ZM49.569 5.1539C48.0658 5.86504 46.3203 8.22596 45.3656 10.8394C44.9935 11.8581 44.8737 12.5059 44.9067 13.3215C44.9373 14.0783 45.0389 14.3453 45.3736 14.5494C45.7939 14.8057 46.3155 14.6683 47.0459 14.1089C48.0711 13.3236 49.0657 12.0658 49.8675 10.5402C50.368 9.58793 50.6206 8.93801 50.8687 7.96441C51.1506 6.85814 51.1855 6.29262 51.0086 5.69952C50.7749 4.91594 50.3847 4.76803 49.569 5.1539ZM30.1571 5.41893C30.0651 5.52842 29.9667 5.72789 29.9386 5.86228C29.8197 6.42977 29.934 7.65578 30.151 8.14281C30.1993 8.25118 30.3581 8.66057 30.5038 9.05262C30.6496 9.44461 30.8786 9.96185 31.0128 10.2021C31.3885 10.8745 32.3684 12.3 32.7675 12.7546C33.8406 13.977 35.0397 14.6934 35.7247 14.5215C36.4368 14.3428 36.4676 12.7478 35.7925 11.0138C35.1049 9.24783 33.8649 7.34688 32.7573 6.36067C31.8936 5.59161 31.2142 5.22169 30.6635 5.22064C30.3664 5.22005 30.3039 5.24454 30.1571 5.41893ZM40.2862 17.4531C40.2986 18.0763 40.2878 19.7714 40.2622 21.2201L40.2157 23.8541L39.4389 23.8959C39.0115 23.9189 38.5347 23.9669 38.379 24.0026C38.2234 24.0383 37.9483 24.0959 37.7677 24.1307C37.1244 24.2543 36.5803 24.396 36.2242 24.5326C36.0255 24.6088 35.775 24.7039 35.6675 24.7437C35.2179 24.9105 34.1807 25.461 33.6298 25.8251C32.1993 26.7707 30.9433 28.0693 30.0666 29.5092C29.8965 29.7885 29.262 31.0701 29.262 31.1343C29.262 31.1578 29.2213 31.2703 29.1715 31.3841C28.93 31.9362 28.7353 32.6357 28.5564 33.5944C28.4825 33.99 28.4513 34.5641 28.4494 35.5648C28.4465 36.971 28.504 37.5826 28.7115 38.3563C28.9015 39.0645 29.0842 39.668 29.1391 39.7684C29.1688 39.8226 29.2705 40.0591 29.3652 40.2939C29.5117 40.6569 29.7558 41.1411 30.0773 41.706C30.7664 42.9171 32.0036 44.248 33.4806 45.3671C34.8298 46.3894 35.4717 46.7062 36.9558 47.0819C38.0431 47.3572 40.0535 47.7816 40.2704 47.7816C40.2848 47.7816 40.2965 49.9827 40.2965 52.6729V57.5642L39.4919 57.586C39.0494 57.598 39.7217 57.5979 40.9861 57.5856C43.9657 57.5567 45.7202 57.4578 48.3402 57.1711C55.0624 56.4352 61.3541 54.7598 66.5849 52.3129C69.3987 50.9967 71.6042 49.634 73.7068 47.9129C76.0325 46.0091 77.7798 43.8831 78.8497 41.6552C79.396 40.5175 79.8352 39.1486 79.9607 38.1921C80.1486 36.7603 80.1077 35.5565 79.8312 34.3825C79.7589 34.0755 79.6835 33.723 79.6638 33.5994C79.5189 32.6912 78.4892 30.677 77.4789 29.3251C75.818 27.1029 72.7899 24.6212 69.6433 22.9039C69.1079 22.6116 66.3351 21.2804 65.9451 21.1283C65.7644 21.0579 65.1437 20.8069 64.5658 20.5706C63.3545 20.0754 61.018 19.2796 59.5411 18.8594C54.2764 17.3613 46.8912 16.3212 41.5116 16.3202L40.2636 16.3199L40.2862 17.4531ZM5.4177 27.4039L4.99268 27.8472L5.43603 27.4222C5.6799 27.1885 5.87938 26.9889 5.87938 26.9789C5.87938 26.9305 5.81251 26.9921 5.4177 27.4039ZM39.4098 29.3002C38.3697 29.4594 37.2932 29.8509 36.5663 30.334C36.0366 30.6862 35.1434 31.5942 34.8024 32.1272C34.4904 32.6149 34.1748 33.3054 33.9817 33.9228C33.844 34.3628 33.8276 34.5417 33.8272 35.5977C33.8268 36.9577 33.894 37.2993 34.3612 38.3122C35.1104 39.9367 36.413 41.0914 38.1619 41.6815L38.8186 41.9031L40.1323 41.9004C41.4404 41.8978 41.4485 41.8968 42.0699 41.6837C44.1702 40.9633 45.6675 39.3718 46.251 37.2397C46.4058 36.6744 46.4312 36.4548 46.4342 35.6633C46.4362 35.1261 46.4048 34.6346 46.3587 34.4811C46.3152 34.3366 46.2287 34.041 46.1663 33.8243C45.877 32.8191 45.3528 31.9426 44.5707 31.1567C43.4291 30.0093 41.9401 29.3615 40.2965 29.297C39.9171 29.2822 39.5181 29.2836 39.4098 29.3002ZM19.1142 55.234C19.2226 55.281 19.4147 55.3374 19.5411 55.3594C19.73 55.3921 19.7125 55.3769 19.4426 55.2736C19.0754 55.1332 18.8069 55.1008 19.1142 55.234Z" fill="#152450"/>
<path fill-rule="evenodd" clip-rule="evenodd" d="M37.7021 16.3639C26.6375 16.7983 16.8354 19.4599 9.82029 23.9349C6.85871 25.8242 4.36938 28.223 2.8191 30.6817C2.06042 31.885 1.44984 33.3992 1.1414 34.8423C1.01635 35.4275 0.993422 35.7408 0.990073 36.9113C0.986723 38.0913 1.00741 38.3956 1.13346 39.0168C2.21897 44.3673 7.11329 49.2377 14.8796 52.696C21.481 55.6355 29.8597 57.368 38.3424 57.5476L40.2965 57.5889V52.6852C40.2965 49.9882 40.2848 47.7816 40.2705 47.7816C40.0535 47.7816 38.0431 47.3572 36.9558 47.0819C35.4717 46.7062 34.8298 46.3895 33.4806 45.3671C32.0036 44.248 30.7664 42.9171 30.0773 41.706C29.7559 41.1411 29.5117 40.6569 29.3652 40.2939C29.2705 40.0591 29.1688 39.8226 29.1392 39.7684C29.0843 39.668 28.9015 39.0645 28.7115 38.3563C28.504 37.5826 28.4466 36.971 28.4494 35.5648C28.4514 34.5641 28.4826 33.99 28.5564 33.5944C28.7354 32.6357 28.93 31.9362 29.1715 31.3841C29.2213 31.2703 29.262 31.1579 29.262 31.1343C29.262 31.0701 29.8965 29.7885 30.0666 29.5093C30.9433 28.0693 32.1993 26.7707 33.6298 25.8251C34.1807 25.461 35.2179 24.9105 35.6675 24.7437C35.775 24.7039 36.0255 24.6088 36.2242 24.5326C36.5803 24.396 37.1244 24.2543 37.7677 24.1307C37.9484 24.0959 38.2234 24.0383 38.379 24.0026C38.5347 23.9669 39.0103 23.919 39.436 23.8961L40.21 23.8545L40.2533 21.8829C40.3074 19.4122 40.3092 16.561 40.2566 16.4241C40.2223 16.3347 40.0734 16.3219 39.1893 16.333C38.6242 16.3401 37.9549 16.354 37.7021 16.3639ZM39.4098 29.3002C38.3697 29.4594 37.2932 29.8509 36.5664 30.334C36.0366 30.6862 35.1434 31.5942 34.8024 32.1272C34.4904 32.6149 34.1748 33.3054 33.9817 33.9228C33.8441 34.3628 33.8276 34.5417 33.8272 35.5977C33.8268 36.9577 33.894 37.2993 34.3612 38.3122C35.1104 39.9367 36.413 41.0914 38.1619 41.6815L38.8186 41.9031L40.1323 41.9004C41.4404 41.8978 41.4485 41.8968 42.0699 41.6837C44.1702 40.9633 45.6675 39.3718 46.251 37.2397C46.4058 36.6744 46.4313 36.4548 46.4342 35.6633C46.4362 35.1261 46.4048 34.6346 46.3587 34.4811C46.3153 34.3366 46.2287 34.041 46.1663 33.8243C45.877 32.8191 45.3528 31.9426 44.5708 31.1567C43.4291 30.0093 41.9402 29.3615 40.2965 29.297C39.9172 29.2822 39.5181 29.2836 39.4098 29.3002Z" fill="#4EF480"/>
</g>
<defs>
<clipPath id="clip0_504_70">
<rect width="80" height="57.6683" fill="white" transform="translate(0.625 0.293884)"/>
</clipPath>
</defs>
</svg>
