<svg width="101" height="92" viewBox="0 0 101 92" fill="none" xmlns="http://www.w3.org/2000/svg">
<g clip-path="url(#clip0_432_373)">
<path fill-rule="evenodd" clip-rule="evenodd" d="M50.1046 0.969576C49.3904 1.32137 48.8338 2.46291 48.4467 4.36964C48.3734 4.73089 48.3017 5.2038 48.2875 5.42055C48.2732 5.63729 48.2299 6.08064 48.1912 6.40577C48.0777 7.35881 48.2322 9.559 48.4956 10.7407C48.8942 12.5285 49.4299 13.5852 50.1282 13.9613C50.8984 14.376 51.8508 13.1479 52.2948 11.1677C52.3475 10.9329 52.4208 10.6207 52.4579 10.474C52.4949 10.3273 52.5736 9.66225 52.6327 8.99618C52.7997 7.11519 52.6435 5.12071 52.1987 3.45352C51.8744 2.23756 51.2897 1.19591 50.8015 0.964322C50.5157 0.82869 50.3888 0.829609 50.1046 0.969576ZM59.5695 5.32163C58.0663 6.03276 56.3208 8.39368 55.3661 11.0071C54.994 12.0259 54.8742 12.6736 54.9072 13.4892C54.9378 14.246 55.0393 14.513 55.3741 14.7171C55.7943 14.9735 56.316 14.836 57.0464 14.2766C58.0716 13.4914 59.0661 12.2335 59.868 10.7079C60.3685 9.75565 60.6211 9.10573 60.8692 8.13214C61.1511 7.02587 61.186 6.46035 61.0091 5.86725C60.7754 5.08367 60.3852 4.93575 59.5695 5.32163ZM40.1576 5.58665C40.0655 5.69615 39.9672 5.89562 39.939 6.03C39.8202 6.59749 39.9344 7.8235 40.1515 8.31053C40.1998 8.4189 40.3586 8.8283 40.5043 9.22035C40.65 9.61234 40.8791 10.1296 41.0133 10.3698C41.389 11.0422 42.3689 12.4678 42.768 12.9224C43.8411 14.1447 45.0402 14.8611 45.7252 14.6892C46.4373 14.5105 46.4681 12.9155 45.793 11.1815C45.1054 9.41555 43.8654 7.5146 42.7578 6.52839C41.8941 5.75933 41.2146 5.38941 40.664 5.38836C40.3669 5.38777 40.3044 5.41227 40.1576 5.58665ZM50.2867 17.6208C50.2991 18.244 50.2883 19.9392 50.2627 21.3878L50.2162 24.0219L49.4393 24.0636C49.012 24.0866 48.5352 24.1346 48.3795 24.1703C48.2239 24.206 47.9488 24.2636 47.7682 24.2984C47.1249 24.422 46.5808 24.5637 46.2247 24.7003C46.026 24.7765 45.7755 24.8716 45.668 24.9114C45.2184 25.0782 44.1811 25.6287 43.6303 25.9928C42.1998 26.9384 40.9438 28.237 40.0671 29.677C39.897 29.9562 39.2625 31.2378 39.2625 31.302C39.2625 31.3256 39.2217 31.438 39.172 31.5518C38.9305 32.1039 38.7358 32.8034 38.5568 33.7621C38.483 34.1578 38.4518 34.7318 38.4498 35.7325C38.447 37.1387 38.5045 37.7503 38.712 38.524C38.902 39.2322 39.0847 39.8357 39.1396 39.9361C39.1693 39.9903 39.271 40.2268 39.3657 40.4616C39.5122 40.8246 39.7563 41.3088 40.0778 41.8737C40.7669 43.0849 42.0041 44.4158 43.481 45.5348C44.8303 46.5572 45.4722 46.8739 46.9563 47.2496C48.0436 47.5249 50.054 47.9493 50.2709 47.9493C50.2853 47.9493 50.2969 50.1504 50.2969 52.8406V57.7319L49.4923 57.7538C49.0499 57.7658 49.7222 57.7656 50.9866 57.7533C53.9662 57.7245 55.7207 57.6255 58.3407 57.3388C65.0629 56.6029 71.3546 54.9275 76.5854 52.4806C79.3991 51.1644 81.6047 49.8018 83.7073 48.0806C86.033 46.1769 87.7803 44.0508 88.8502 41.8229C89.3965 40.6852 89.8357 39.3163 89.9612 38.3598C90.1491 36.9281 90.1082 35.7242 89.8317 34.5503C89.7593 34.2432 89.684 33.8908 89.6643 33.7671C89.5193 32.859 88.4897 30.8447 87.4793 29.4928C85.8185 27.2706 82.7903 24.789 79.6438 23.0716C79.1084 22.7794 76.3356 21.4481 75.9455 21.296C75.7649 21.2256 75.1442 20.9746 74.5662 20.7383C73.355 20.2431 71.0185 19.4473 69.5416 19.0271C64.2768 17.5291 56.8917 16.4889 51.5121 16.4879L50.2641 16.4877L50.2867 17.6208ZM15.4182 27.5716L14.9932 28.015L15.4365 27.5899C15.6804 27.3562 15.8799 27.1566 15.8799 27.1466C15.8799 27.0982 15.813 27.1598 15.4182 27.5716ZM49.4102 29.4679C48.3702 29.6271 47.2937 30.0186 46.5668 30.5017C46.037 30.8539 45.1438 31.762 44.8029 32.2949C44.4909 32.7826 44.1753 33.4731 43.9822 34.0905C43.8445 34.5305 43.828 34.7094 43.8277 35.7654C43.8273 37.1254 43.8944 37.467 44.3616 38.4799C45.1109 40.1044 46.4135 41.2591 48.1624 41.8493L48.8191 42.0708L50.1327 42.0681C51.4409 42.0655 51.449 42.0646 52.0703 41.8514C54.1706 41.131 55.668 39.5395 56.2515 37.4074C56.4062 36.8421 56.4317 36.6225 56.4347 35.8311C56.4367 35.2938 56.4053 34.8023 56.3592 34.6488C56.3157 34.5043 56.2292 34.2087 56.1668 33.992C55.8775 32.9868 55.3533 32.1103 54.5712 31.3244C53.4296 30.177 51.9406 29.5293 50.2969 29.4648C49.9176 29.4499 49.5186 29.4513 49.4102 29.4679ZM29.1147 55.4018C29.2231 55.4487 29.4152 55.5051 29.5416 55.5271C29.7305 55.5599 29.713 55.5446 29.4431 55.4414C29.0759 55.3009 28.8074 55.2686 29.1147 55.4018Z" fill="#152450"/>
<path fill-rule="evenodd" clip-rule="evenodd" d="M47.7025 16.5316C36.638 16.966 26.8359 19.6277 19.8208 24.1027C16.8592 25.9919 14.3699 28.3907 12.8196 30.8495C12.0609 32.0527 11.4503 33.567 11.1419 35.0101C11.0168 35.5953 10.9939 35.9085 10.9906 37.079C10.9872 38.2591 11.0079 38.5633 11.1339 39.1846C12.2195 44.535 17.1138 49.4055 24.8801 52.8637C31.4815 55.8032 39.8602 57.5357 48.3429 57.7153L50.297 57.7567V52.8529C50.297 50.1559 50.2853 47.9493 50.271 47.9493C50.054 47.9493 48.0436 47.5249 46.9563 47.2497C45.4722 46.8739 44.8303 46.5572 43.4811 45.5348C42.0041 44.4158 40.7669 43.0849 40.0778 41.8738C39.7563 41.3088 39.5122 40.8246 39.3657 40.4616C39.271 40.2268 39.1693 39.9903 39.1397 39.9362C39.0847 39.8357 38.902 39.2323 38.712 38.524C38.5045 37.7503 38.447 37.1387 38.4499 35.7325C38.4518 34.7318 38.483 34.1578 38.5569 33.7621C38.7358 32.8034 38.9305 32.1039 39.172 31.5519C39.2218 31.438 39.2625 31.3256 39.2625 31.302C39.2625 31.2378 39.897 29.9563 40.0671 29.677C40.9438 28.237 42.1998 26.9384 43.6303 25.9928C44.1812 25.6287 45.2184 25.0782 45.668 24.9115C45.7755 24.8716 46.026 24.7766 46.2247 24.7004C46.5808 24.5637 47.1249 24.422 47.7682 24.2984C47.9488 24.2636 48.2239 24.206 48.3795 24.1703C48.5352 24.1346 49.0108 24.0867 49.4365 24.0638L50.2105 24.0222L50.2537 22.0506C50.3079 19.5799 50.3096 16.7287 50.2571 16.5918C50.2228 16.5024 50.0738 16.4897 49.1898 16.5008C48.6246 16.5079 47.9554 16.5217 47.7025 16.5316ZM49.4103 29.4679C48.3702 29.6271 47.2937 30.0186 46.5668 30.5017C46.0371 30.8539 45.1439 31.762 44.8029 32.2949C44.4909 32.7827 44.1753 33.4731 43.9822 34.0905C43.8446 34.5305 43.8281 34.7094 43.8277 35.7654C43.8273 37.1255 43.8945 37.467 44.3617 38.4799C45.1109 40.1044 46.4135 41.2591 48.1624 41.8493L48.8191 42.0708L50.1328 42.0681C51.4409 42.0655 51.449 42.0646 52.0704 41.8514C54.1707 41.131 55.668 39.5395 56.2515 37.4074C56.4063 36.8421 56.4317 36.6225 56.4347 35.8311C56.4367 35.2938 56.4053 34.8023 56.3592 34.6488C56.3157 34.5043 56.2292 34.2087 56.1668 33.992C55.8775 32.9868 55.3533 32.1103 54.5712 31.3244C53.4296 30.177 51.9406 29.5293 50.297 29.4648C49.9177 29.4499 49.5186 29.4513 49.4103 29.4679Z" fill="#4EF480"/>
</g>
<g clip-path="url(#clip1_432_373)">
<path d="M5.98364 86.7648C5.13708 85.0209 4.26512 83.023 3.36777 80.7712C2.48735 78.5024 1.68312 76.0728 0.955078 73.4823H4.23126C4.41751 74.2273 4.62915 75.0315 4.86618 75.895C5.12015 76.7416 5.38258 77.5966 5.65348 78.4601C5.94131 79.3066 6.22914 80.1363 6.51697 80.9489C6.82173 81.7447 7.1011 82.4643 7.35507 83.1077C7.60903 82.4643 7.87993 81.7447 8.16776 80.9489C8.45559 80.1363 8.73496 79.3066 9.00586 78.4601C9.29369 77.5966 9.56459 76.7416 9.81855 75.895C10.0725 75.0315 10.2926 74.2273 10.4789 73.4823H13.6535C12.9254 76.0728 12.1127 78.5024 11.2154 80.7712C10.335 83.023 9.47147 85.0209 8.62491 86.7648H5.98364Z" fill="#152450"/>
<path d="M27.9523 80.1109C27.9523 81.1606 27.7999 82.1172 27.4952 82.9807C27.1904 83.8442 26.7587 84.5807 26.1999 85.1902C25.6412 85.7997 24.964 86.2738 24.1682 86.6124C23.3894 86.9511 22.5259 87.1204 21.5777 87.1204C20.6296 87.1204 19.7661 86.9511 18.9872 86.6124C18.2084 86.2738 17.5396 85.7997 16.9809 85.1902C16.4222 84.5807 15.982 83.8442 15.6603 82.9807C15.3555 82.1172 15.2031 81.1606 15.2031 80.1109C15.2031 79.0611 15.3555 78.113 15.6603 77.2664C15.982 76.4029 16.4222 75.6664 16.9809 75.0569C17.5566 74.4474 18.2338 73.9818 19.0126 73.6601C19.7915 73.3215 20.6465 73.1522 21.5777 73.1522C22.5089 73.1522 23.364 73.3215 24.1428 73.6601C24.9386 73.9818 25.6158 74.4474 26.1745 75.0569C26.7333 75.6664 27.165 76.4029 27.4698 77.2664C27.7915 78.113 27.9523 79.0611 27.9523 80.1109ZM24.8031 80.1109C24.8031 78.7902 24.5153 77.749 23.9396 76.9871C23.3809 76.2082 22.5936 75.8188 21.5777 75.8188C20.5618 75.8188 19.7661 76.2082 19.1904 76.9871C18.6317 77.749 18.3523 78.7902 18.3523 80.1109C18.3523 81.4484 18.6317 82.5066 19.1904 83.2855C19.7661 84.0643 20.5618 84.4537 21.5777 84.4537C22.5936 84.4537 23.3809 84.0643 23.9396 83.2855C24.5153 82.5066 24.8031 81.4484 24.8031 80.1109Z" fill="#152450"/>
<path d="M30.3896 80.1363C30.3896 79.1543 30.542 78.24 30.8468 77.3934C31.1516 76.5299 31.5833 75.785 32.142 75.1585C32.7177 74.5321 33.4119 74.041 34.2246 73.6855C35.0373 73.3299 35.9515 73.1522 36.9674 73.1522C38.2203 73.1522 39.4055 73.3807 40.523 73.8379L39.8626 76.3522C39.5071 76.1998 39.1007 76.0728 38.6436 75.9712C38.2034 75.8696 37.7293 75.8188 37.2214 75.8188C36.0193 75.8188 35.105 76.1998 34.4785 76.9617C33.8521 77.7066 33.5388 78.7648 33.5388 80.1363C33.5388 81.4569 33.8351 82.5066 34.4277 83.2855C35.0203 84.0474 36.0193 84.4283 37.4246 84.4283C37.9494 84.4283 38.4658 84.3775 38.9738 84.2759C39.4817 84.1744 39.9219 84.0474 40.2944 83.895L40.7261 86.4347C40.3875 86.604 39.8711 86.7564 39.1769 86.8918C38.4997 87.0273 37.797 87.095 37.069 87.095C35.9346 87.095 34.9441 86.9257 34.0976 86.587C33.2679 86.2315 32.5738 85.749 32.015 85.1394C31.4732 84.513 31.0669 83.7765 30.796 82.9299C30.5251 82.0664 30.3896 81.1352 30.3896 80.1363Z" fill="#152450"/>
<path d="M54.0085 86.3585C53.4159 86.5108 52.6456 86.6632 51.6974 86.8156C50.7493 86.9849 49.708 87.0696 48.5736 87.0696C47.507 87.0696 46.6096 86.9172 45.8816 86.6124C45.1705 86.3077 44.5948 85.8844 44.1546 85.3426C43.7313 84.8008 43.4265 84.1574 43.2403 83.4124C43.0541 82.6505 42.9609 81.8209 42.9609 80.9236V73.4823H46.0339V80.441C46.0339 81.8632 46.2371 82.8791 46.6435 83.4886C47.0668 84.0982 47.7948 84.4029 48.8276 84.4029C49.2001 84.4029 49.5895 84.386 49.9958 84.3521C50.4191 84.3183 50.7324 84.2759 50.9355 84.2251V73.4823H54.0085V86.3585Z" fill="#152450"/>
<path d="M62.5421 87.0188C61.6279 87.0019 60.866 86.9003 60.2564 86.7141C59.6638 86.5278 59.1898 86.2654 58.8342 85.9268C58.4787 85.5712 58.2247 85.1395 58.0723 84.6315C57.9369 84.1067 57.8691 83.5141 57.8691 82.8537V67.5649L60.9422 67.0569V82.2696C60.9422 82.6421 60.9676 82.9553 61.0183 83.2093C61.0861 83.4633 61.1961 83.6834 61.3485 83.8696C61.5009 84.0389 61.7041 84.1744 61.958 84.276C62.2289 84.3606 62.5675 84.4284 62.9739 84.4791L62.5421 87.0188Z" fill="#152450"/>
<path d="M70.1361 84.6061C71.0843 84.6061 71.8038 84.5553 72.2949 84.4537V81.0506C72.1255 80.9998 71.88 80.949 71.5583 80.8982C71.2367 80.8474 70.8811 80.822 70.4917 80.822C70.1531 80.822 69.806 80.8474 69.4504 80.8982C69.1118 80.949 68.7986 81.0421 68.5107 81.1775C68.2398 81.313 68.0197 81.5077 67.8504 81.7617C67.6811 81.9987 67.5964 82.3035 67.5964 82.676C67.5964 83.404 67.825 83.9119 68.2822 84.1998C68.7393 84.4707 69.3573 84.6061 70.1361 84.6061ZM69.8822 73.1522C70.898 73.1522 71.7531 73.2791 72.4472 73.5331C73.1414 73.7871 73.6917 74.1426 74.098 74.5998C74.5213 75.0569 74.8176 75.6156 74.9869 76.276C75.1732 76.9193 75.2663 77.6305 75.2663 78.4093V86.4601C74.7922 86.5617 74.0726 86.6802 73.1076 86.8156C72.1594 86.968 71.0843 87.0442 69.8822 87.0442C69.0864 87.0442 68.3584 86.968 67.698 86.8156C67.0377 86.6632 66.4705 86.4177 65.9964 86.0791C65.5393 85.7405 65.1753 85.3003 64.9044 84.7585C64.6504 84.2167 64.5234 83.5479 64.5234 82.7521C64.5234 81.9902 64.6674 81.3469 64.9552 80.822C65.2599 80.2971 65.6663 79.8738 66.1742 79.5521C66.6822 79.2135 67.2663 78.9765 67.9266 78.841C68.6039 78.6887 69.3065 78.6125 70.0345 78.6125C70.3732 78.6125 70.7287 78.6379 71.1012 78.6887C71.4737 78.7225 71.8716 78.7902 72.2949 78.8918V78.3839C72.2949 78.0283 72.2525 77.6897 72.1679 77.368C72.0832 77.0463 71.9308 76.767 71.7107 76.5299C71.5076 76.276 71.2282 76.0813 70.8726 75.9458C70.534 75.8104 70.1023 75.7426 69.5774 75.7426C68.8663 75.7426 68.2144 75.7934 67.6218 75.895C67.0293 75.9966 66.5467 76.1151 66.1742 76.2506L65.7933 73.7617C66.1827 73.6262 66.7499 73.4908 67.4949 73.3553C68.2398 73.2199 69.0356 73.1522 69.8822 73.1522Z" fill="#152450"/>
<path d="M86.5926 76.2506C86.3387 76.1659 85.9831 76.0812 85.526 75.9966C85.0858 75.895 84.5694 75.8442 83.9768 75.8442C83.6382 75.8442 83.2741 75.8781 82.8847 75.9458C82.5122 76.0135 82.2498 76.0728 82.0974 76.1236V86.7648H79.0244V74.1172C79.617 73.8971 80.3535 73.6939 81.2339 73.5077C82.1313 73.3045 83.1218 73.2029 84.2054 73.2029C84.4085 73.2029 84.6456 73.2199 84.9165 73.2537C85.1874 73.2707 85.4583 73.3045 85.7292 73.3553C86.0001 73.3892 86.2625 73.44 86.5165 73.5077C86.7704 73.5585 86.9736 73.6093 87.126 73.6601L86.5926 76.2506Z" fill="#152450"/>
<path d="M100.562 73.4823C99.1903 78.5278 97.5987 83.0992 95.7871 87.1966C95.4485 87.9585 95.1014 88.6103 94.7458 89.1521C94.3903 89.6939 93.9924 90.1426 93.5522 90.4981C93.112 90.8537 92.621 91.1077 92.0792 91.26C91.5374 91.4294 90.9109 91.514 90.1998 91.514C89.7257 91.514 89.2517 91.4632 88.7776 91.3616C88.3205 91.26 87.9734 91.15 87.7363 91.0315L88.2951 88.568C88.9046 88.805 89.5056 88.9235 90.0982 88.9235C90.894 88.9235 91.512 88.7288 91.9522 88.3394C92.4093 87.9669 92.8072 87.3828 93.1458 86.587C92.1808 84.7246 91.2495 82.6929 90.3522 80.4918C89.4718 78.2908 88.6845 75.9543 87.9903 73.4823H91.2665C91.4358 74.1934 91.639 74.9638 91.876 75.7934C92.13 76.623 92.4009 77.4696 92.6887 78.3331C92.9765 79.1796 93.2813 80.0262 93.603 80.8728C93.9247 81.7193 94.2464 82.5066 94.5681 83.2347C95.1099 81.7278 95.6178 80.1278 96.0919 78.4347C96.5659 76.7246 96.9977 75.0738 97.3871 73.4823H100.562Z" fill="#152450"/>
</g>
<defs>
<clipPath id="clip0_432_373">
<rect width="80" height="57.6683" fill="white" transform="translate(10.625 0.461609)"/>
</clipPath>
<clipPath id="clip1_432_373">
<rect width="100" height="25.7936" fill="white" transform="translate(0.625 66.1299)"/>
</clipPath>
</defs>
</svg>
