<svg xmlns="http://www.w3.org/2000/svg" version="1.1" xmlns:xlink="http://www.w3.org/1999/xlink" xmlns:svgjs="http://svgjs.com/svgjs" width="512" height="512" x="0" y="0" viewBox="0 0 297 297" style="enable-background:new 0 0 512 512" xml:space="preserve" class=""><g><path d="M294.075 5.96a10.11 10.11 0 0 0-7.914-2.966l-46.357 3.39c-5.564.407-9.745 5.247-9.339 10.812.406 5.565 5.249 9.727 10.812 9.338l19.262-1.409-67.86 67.948-78.92-66.833a10.1 10.1 0 0 0-13.672.565L2.959 123.934c-3.945 3.945-3.945 10.342 0 14.287 1.973 1.972 4.558 2.959 7.144 2.959s5.17-.986 7.143-2.959l90.552-90.553 78.925 66.837a10.1 10.1 0 0 0 13.676-.57l74.159-74.255-1.532 18.499c-.461 5.56 3.674 10.44 9.234 10.901.284.024.565.035.845.035 5.202-.001 9.62-3.993 10.057-9.269l3.804-45.944a10.102 10.102 0 0 0-2.891-7.942z" fill="#000000" data-original="#000000" class=""></path><path d="M90.107 121.744a10.11 10.11 0 0 0-11.01 2.19l-41.976 41.977a10.106 10.106 0 0 0-2.959 7.144v110.877c0 5.579 4.523 10.102 10.102 10.102H86.24c5.579 0 10.102-4.523 10.102-10.102V131.077a10.101 10.101 0 0 0-6.235-9.333zM135.363 123.934a10.104 10.104 0 0 0-17.246 7.144v152.854c0 5.579 4.523 10.102 10.102 10.102h41.977c5.579 0 10.102-4.523 10.102-10.102V173.055a10.1 10.1 0 0 0-2.959-7.143l-41.976-41.978zM258.016 121.744a10.108 10.108 0 0 0-11.01 2.19l-41.977 41.978a10.105 10.105 0 0 0-2.959 7.143v110.876c0 5.579 4.523 10.102 10.102 10.102h41.977c5.579 0 10.102-4.523 10.102-10.102V131.077a10.1 10.1 0 0 0-6.235-9.333z" fill="#000000" data-original="#000000" class=""></path></g></svg>