<svg xmlns="http://www.w3.org/2000/svg" version="1.1" xmlns:xlink="http://www.w3.org/1999/xlink" xmlns:svgjs="http://svgjs.com/svgjs" width="512" height="512" x="0" y="0" viewBox="0 0 64 64" style="enable-background:new 0 0 512 512" xml:space="preserve" class=""><g><path d="M32 2a30 30 0 1 0 30 30A30.037 30.037 0 0 0 32 2zm.71 18.37a12.1 12.1 0 0 1 7.55-3.36 9.835 9.835 0 0 1 7.45 2.64v21.42c-4.38-2.97-10.45-.61-15 3.35zm-16.42-.72a9.81 9.81 0 0 1 7.45-2.64 12.1 12.1 0 0 1 7.55 3.36v24.05c-4.41-3.7-10.05-6.47-15-3.35zM52 45.58a1.43 1.43 0 0 1-1.43 1.43H13.43A1.43 1.43 0 0 1 12 45.58V23.21a1.43 1.43 0 0 1 1.43-1.43h1.43v20.81a.717.717 0 0 0 .44.66.729.729 0 0 0 .78-.15c4-4 10.38-.97 14.35 2.48.3.27.58.53.86.79a.796.796 0 0 0 1.22.2c3.92-3.89 11.02-7.82 15.41-3.47a.729.729 0 0 0 .78.15.717.717 0 0 0 .44-.66V21.78h1.43A1.43 1.43 0 0 1 52 23.21z" fill="#000000" data-original="#000000" class=""></path><path d="M28.74 38.57a.734.734 0 0 0 1-.2.713.713 0 0 0-.2-.99 10.606 10.606 0 0 0-12.23-.23.7.7 0 0 0-.18.99.72.72 0 0 0 .99.18 9.211 9.211 0 0 1 10.62.25zM18.12 33.16a9.228 9.228 0 0 1 10.62.25.717.717 0 1 0 .8-1.19 10.623 10.623 0 0 0-12.23-.23.712.712 0 1 0 .81 1.17zM18.12 28a9.245 9.245 0 0 1 10.62.25.723.723 0 0 0 1-.19.711.711 0 0 0-.2-.99 10.624 10.624 0 0 0-12.23-.24.712.712 0 1 0 .81 1.17zM18.12 22.85a9.228 9.228 0 0 1 10.62.25.723.723 0 0 0 1-.19.711.711 0 0 0-.2-.99 10.607 10.607 0 0 0-12.23-.24.712.712 0 1 0 .81 1.17zM46.87 38.14a.7.7 0 0 0-.18-.99 10.62 10.62 0 0 0-12.28.26.718.718 0 0 0-.19.99.702.702 0 0 0 .99.19 9.242 9.242 0 0 1 10.67-.27.718.718 0 0 0 .99-.18zM35.21 33.44a9.243 9.243 0 0 1 10.67-.28.712.712 0 1 0 .81-1.17 10.637 10.637 0 0 0-12.28.26.732.732 0 0 0-.19 1 .71.71 0 0 0 .99.19zM35.21 28.28A9.243 9.243 0 0 1 45.88 28a.712.712 0 1 0 .81-1.17 10.638 10.638 0 0 0-12.28.27.73.73 0 0 0-.19 1 .709.709 0 0 0 .99.18zM35.21 23.13a9.226 9.226 0 0 1 10.67-.28.712.712 0 1 0 .81-1.17 10.605 10.605 0 0 0-12.28.27.713.713 0 1 0 .8 1.18z" fill="#000000" data-original="#000000" class=""></path></g></svg>