<svg width="60" height="61" viewBox="0 0 60 61" fill="none" xmlns="http://www.w3.org/2000/svg">
<g clip-path="url(#clip0_163_560)">
<path d="M58.5791 52.3062L44.7847 38.5108C47.2103 34.6551 48.4946 30.1914 48.4888 25.6362C48.4888 12.2459 37.6337 1.39233 24.2439 1.39233C10.8541 1.39233 0 12.2459 0 25.6362C0 39.027 10.8536 49.8796 24.2439 49.8796C29.1963 49.8859 34.0308 48.3684 38.0913 45.533L51.7215 59.1642C52.1716 59.6146 52.7062 59.9716 53.2946 60.2148C53.883 60.458 54.5136 60.5827 55.1503 60.5816C55.7872 60.5827 56.4181 60.4581 57.0067 60.2149C57.5954 59.9716 58.1302 59.6146 58.5806 59.1642C59.4896 58.2545 60.0001 57.021 59.9999 55.7349C59.9996 54.4488 59.4885 53.2155 58.5791 52.3062ZM24.2439 42.0249C15.1936 42.0249 7.85617 34.688 7.85617 25.6372C7.85617 16.5864 15.1936 9.24901 24.2439 9.24901C33.2947 9.24901 40.6316 16.5864 40.6316 25.6372C40.6316 34.688 33.2947 42.0249 24.2439 42.0249Z" fill="#333"/>
</g>
<defs>
<clipPath id="clip0_163_560">
<rect width="60" height="60" fill="" transform="translate(0 0.987305)"/>
</clipPath>
</defs>
</svg>
