<svg width="1200" height="434" viewBox="0 0 1200 434" fill="none" xmlns="http://www.w3.org/2000/svg">
<path d="M0.367188 219.729H419C474.228 219.729 519 264.501 519 319.729V333.018C519 388.246 474.228 433.018 419 433.018H0.367188V219.729Z" fill="#C0C7DA"/>
<path d="M1200 0.514771H723.816C700.372 0.514771 681.367 19.5199 681.367 42.964C681.367 66.408 700.372 85.4131 723.816 85.4131H1200V0.514771Z" fill="#C0C7DA"/>
<g clip-path="url(#clip0_603_2678)">
<path d="M928.995 338.335C1008.28 338.335 1072.55 274.064 1072.55 194.781C1072.55 115.498 1008.28 51.2261 928.995 51.2261C849.712 51.2261 785.44 115.498 785.44 194.781C785.44 274.064 849.712 338.335 928.995 338.335Z" fill="#131313" fill-opacity="0.15"/>
<path d="M914.147 179.931C925.239 168.84 939.984 162.732 955.668 162.732C966.353 162.732 976.601 165.569 985.556 170.883V69.8372H772.55V255.527C772.55 258.749 775.187 261.386 778.409 261.386H912.627C891.269 238.39 891.773 202.305 914.147 179.931Z" fill="#131313" fill-opacity="0.15"/>
<path d="M785.839 255.527V69.8372H772.55V255.527C772.55 258.749 775.187 261.386 778.409 261.386H791.698C788.476 261.386 785.839 258.749 785.839 255.527Z" fill="#131313" fill-opacity="0.15"/>
<path d="M982.207 38.3354H775.899C774.057 38.3354 772.55 39.8425 772.55 41.6847V71.4983H985.556V41.6847C985.556 39.8425 984.049 38.3354 982.207 38.3354Z" fill="#131313" fill-opacity="0.15"/>
<path d="M789.188 38.3354H775.899C774.057 38.3354 772.55 39.8425 772.55 41.6847V71.4983H785.839V41.6847C785.839 39.8425 787.346 38.3354 789.188 38.3354Z" fill="#131313" fill-opacity="0.15"/>
<path d="M865.28 142.993C865.28 144.604 863.962 145.922 862.35 145.922H797.052C795.44 145.922 794.122 144.604 794.122 142.993V96.1652C794.122 94.5538 795.44 93.2355 797.052 93.2355H862.35C863.961 93.2355 865.279 94.5538 865.279 96.1652L865.28 142.993Z" fill="#131313" fill-opacity="0.15"/>
<path d="M807.411 142.993V96.1652C807.411 94.5538 808.729 93.2355 810.341 93.2355H797.052C795.44 93.2355 794.122 94.5538 794.122 96.1652V142.993C794.122 144.604 795.44 145.922 797.052 145.922H810.341C808.729 145.922 807.411 144.604 807.411 142.993Z" fill="#131313" fill-opacity="0.15"/>
<path d="M899.786 203.446H797.052C795.44 203.446 794.122 204.764 794.122 206.375V234.388C794.122 236 795.44 237.318 797.052 237.318H899.149C896.058 226.239 896.269 214.424 899.786 203.446Z" fill="#131313" fill-opacity="0.15"/>
<path d="M807.411 234.388V206.375C807.411 204.764 808.729 203.446 810.341 203.446H797.052C795.44 203.446 794.122 204.764 794.122 206.375V234.388C794.122 236 795.44 237.318 797.052 237.318H810.341C808.729 237.318 807.411 236 807.411 234.388Z" fill="#131313" fill-opacity="0.15"/>
<path d="M899.786 203.446H878.517V237.318H899.149C896.058 226.239 896.268 214.424 899.786 203.446Z" fill="#131313" fill-opacity="0.15"/>
<path d="M960.492 97.63H888.662C887.497 97.63 886.379 97.167 885.555 96.3429C884.731 95.5187 884.268 94.401 884.268 93.2355C884.268 92.07 884.731 90.9522 885.555 90.1281C886.379 89.3039 887.497 88.8409 888.662 88.8409H960.492C962.92 88.8409 964.887 90.8085 964.887 93.2355C964.887 95.6624 962.92 97.63 960.492 97.63ZM960.492 115.192H888.662C887.497 115.192 886.379 114.729 885.555 113.905C884.731 113.081 884.268 111.963 884.268 110.798C884.268 109.632 884.731 108.515 885.555 107.69C886.379 106.866 887.497 106.403 888.662 106.403H960.492C961.657 106.403 962.775 106.866 963.599 107.69C964.424 108.515 964.887 109.632 964.887 110.798C964.887 111.963 964.424 113.081 963.599 113.905C962.775 114.729 961.657 115.192 960.492 115.192ZM960.492 132.755H888.662C887.497 132.755 886.379 132.292 885.555 131.467C884.731 130.643 884.268 129.526 884.268 128.36C884.268 127.195 884.731 126.077 885.555 125.253C886.379 124.429 887.497 123.966 888.662 123.966H960.492C962.92 123.966 964.887 125.933 964.887 128.36C964.887 130.787 962.92 132.755 960.492 132.755ZM960.492 150.317H888.662C887.497 150.317 886.379 149.854 885.555 149.03C884.731 148.206 884.268 147.088 884.268 145.922C884.268 144.757 884.731 143.639 885.555 142.815C886.379 141.991 887.497 141.528 888.662 141.528H960.492C962.92 141.528 964.887 143.495 964.887 145.922C964.887 148.349 962.92 150.317 960.492 150.317ZM948.014 163.227H794.122C791.695 163.227 789.728 165.194 789.728 167.621C789.728 170.048 791.695 172.016 794.122 172.016H923.951C931.218 167.332 939.439 164.329 948.014 163.227ZM913.006 181.106H794.122C791.695 181.106 789.728 183.074 789.728 185.501C789.728 187.928 791.695 189.895 794.122 189.895H906.146C908.148 186.754 910.445 183.811 913.006 181.106Z" fill="#131313" fill-opacity="0.15"/>
<path d="M792.996 58.6147C791.837 58.6147 790.705 58.146 789.885 57.331C789.066 56.5025 788.605 55.3853 788.602 54.2202C788.602 53.0653 789.07 51.9351 789.885 51.1147C790.711 50.2917 791.83 49.8284 792.996 49.8257C794.151 49.8257 795.287 50.2938 796.102 51.1147C796.922 51.9351 797.391 53.0659 797.391 54.2202C797.391 55.3798 796.922 56.5112 796.102 57.331C795.275 58.1503 794.16 58.6115 792.996 58.6147Z" fill="#131313" fill-opacity="0.15"/>
<path d="M807.407 58.6147C806.242 58.6127 805.126 58.1491 804.302 57.3254C803.478 56.5017 803.015 55.3851 803.013 54.2202C803.013 53.0653 803.481 51.9351 804.301 51.1147C805.121 50.2944 806.252 49.8257 807.407 49.8257C808.574 49.8284 809.692 50.2917 810.519 51.1147C811.333 51.9351 811.802 53.0659 811.802 54.2202C811.802 55.3745 811.332 56.5112 810.519 57.3251C809.692 58.1484 808.574 58.6119 807.407 58.6147Z" fill="#131313" fill-opacity="0.15"/>
<path d="M821.824 58.6147C820.664 58.6147 819.533 58.146 818.719 57.331C817.896 56.5045 817.433 55.3865 817.43 54.2202C817.431 53.0552 817.895 51.9383 818.719 51.1145C819.542 50.2907 820.659 49.8272 821.824 49.8257C822.979 49.8257 824.115 50.2938 824.93 51.1147C825.75 51.9351 826.219 53.0659 826.219 54.2202C826.219 55.3798 825.75 56.5112 824.93 57.331C824.103 58.1492 822.988 58.6102 821.824 58.6147Z" fill="#131313" fill-opacity="0.15"/>
<path d="M1012.65 266.386L1000.6 278.431L1024.3 302.125C1028.55 298.35 1032.57 294.328 1036.34 290.08L1012.65 266.386Z" fill="#131313" fill-opacity="0.15"/>
<path d="M1017.43 259.123L1007.45 249.142C1004.73 254.233 1001.27 258.893 997.187 262.971C993.047 267.111 988.397 270.556 983.379 273.249L993.342 283.211C994.481 284.351 996.345 284.351 997.485 283.211L1017.43 263.266C1018.57 262.127 1018.57 260.263 1017.43 259.123Z" fill="#131313" fill-opacity="0.15"/>
<path d="M1000.18 276.375L991.657 267.855C989.054 269.883 986.285 271.687 983.378 273.248L993.341 283.21C994.48 284.35 996.344 284.35 997.484 283.21L1004.32 276.374C1003.77 276.922 1003.02 277.229 1002.25 277.23C1001.47 277.23 1000.73 276.922 1000.18 276.375Z" fill="#131313" fill-opacity="0.15"/>
<path d="M998.016 179.102C1021.4 202.49 1021.4 240.411 998.015 263.799C974.628 287.186 936.708 287.187 913.318 263.799C889.93 240.411 889.931 202.49 913.318 179.102C936.708 155.713 974.628 155.713 998.016 179.102Z" fill="#131313" fill-opacity="0.15"/>
<path d="M985.36 251.143C968.962 267.541 942.374 267.541 925.975 251.141C909.576 234.745 909.576 208.156 925.975 191.757C942.373 175.359 968.962 175.36 985.36 191.757C1001.76 208.157 1001.76 234.744 985.36 251.143Z" fill="#131313" fill-opacity="0.15"/>
<path d="M985.36 251.143C986.831 249.672 988.191 248.094 989.429 246.422C972.99 258.613 949.67 257.259 934.764 242.352C919.859 227.449 918.505 204.128 930.695 187.689C929.024 188.927 927.446 190.287 925.975 191.757C909.576 208.156 909.576 234.744 925.975 251.142C942.374 267.541 968.962 267.541 985.36 251.143Z" fill="#131313" fill-opacity="0.15"/>
<path d="M982.207 38.3354H840.467V71.4983H985.556V41.6847C985.556 39.8425 984.049 38.3354 982.207 38.3354Z" fill="#131313" fill-opacity="0.15"/>
<path d="M962.88 200.365C966.763 200.365 969.911 197.217 969.911 193.333C969.911 189.45 966.763 186.302 962.88 186.302C958.997 186.302 955.849 189.45 955.849 193.333C955.849 197.217 958.997 200.365 962.88 200.365Z" fill="#131313" fill-opacity="0.15"/>
<path d="M977.651 205.621C980.402 205.621 982.632 203.391 982.632 200.64C982.632 197.889 980.402 195.66 977.651 195.66C974.901 195.66 972.671 197.889 972.671 200.64C972.671 203.391 974.901 205.621 977.651 205.621Z" fill="#131313" fill-opacity="0.15"/>
</g>
<g clip-path="url(#clip1_603_2678)">
<path d="M937.869 331.011C1017.15 331.011 1081.42 266.74 1081.42 187.457C1081.42 108.173 1017.15 43.9019 937.869 43.9019C858.586 43.9019 794.314 108.173 794.314 187.457C794.314 266.74 858.586 331.011 937.869 331.011Z" fill="#526697"/>
<path d="M923.021 172.607C934.113 161.516 948.858 155.408 964.542 155.408C975.227 155.408 985.475 158.245 994.43 163.559V62.513H781.424V248.202C781.424 251.425 784.061 254.062 787.283 254.062H921.501C900.143 231.066 900.647 194.981 923.021 172.607Z" fill="#EEF6FF"/>
<path d="M794.713 248.202V62.513H781.424V248.202C781.424 251.425 784.061 254.062 787.283 254.062H800.572C797.35 254.062 794.713 251.425 794.713 248.202Z" fill="#C3DDF4"/>
<path d="M991.081 31.0112H784.773C782.931 31.0112 781.424 32.5183 781.424 34.3604V64.1741H994.43V34.3604C994.43 32.5183 992.923 31.0112 991.081 31.0112Z" fill="#344D87"/>
<path d="M798.062 31.0112H784.773C782.931 31.0112 781.424 32.5183 781.424 34.3604V64.1741H794.713V34.3604C794.713 32.5183 796.22 31.0112 798.062 31.0112Z" fill="#1A2B63"/>
<path d="M874.154 135.668C874.154 137.28 872.836 138.598 871.224 138.598H805.926C804.314 138.598 802.996 137.28 802.996 135.668V88.8409C802.996 87.2296 804.314 85.9113 805.926 85.9113H871.224C872.835 85.9113 874.154 87.2296 874.154 88.8409L874.154 135.668Z" fill="#7081A8"/>
<path d="M816.285 135.668V88.8409C816.285 87.2296 817.604 85.9113 819.215 85.9113H805.926C804.314 85.9113 802.996 87.2296 802.996 88.8409V135.668C802.996 137.28 804.314 138.598 805.926 138.598H819.215C817.604 138.598 816.285 137.28 816.285 135.668Z" fill="#526697"/>
<path d="M908.66 196.121H805.926C804.314 196.121 802.996 197.44 802.996 199.051V227.064C802.996 228.675 804.314 229.994 805.926 229.994H908.023C904.932 218.914 905.143 207.099 908.66 196.121Z" fill="#97A4C1"/>
<path d="M816.285 227.064V199.051C816.285 197.44 817.604 196.121 819.215 196.121H805.926C804.314 196.121 802.996 197.44 802.996 199.051V227.064C802.996 228.675 804.314 229.994 805.926 229.994H819.215C817.604 229.994 816.285 228.675 816.285 227.064Z" fill="#7081A8"/>
<path d="M908.66 196.121H887.391V229.994H908.023C904.932 218.914 905.142 207.099 908.66 196.121Z" fill="#C0C7DA"/>
<path d="M969.366 90.3058H897.537C896.371 90.3058 895.253 89.8428 894.429 89.0187C893.605 88.1945 893.142 87.0768 893.142 85.9113C893.142 84.7458 893.605 83.628 894.429 82.8039C895.253 81.9797 896.371 81.5167 897.537 81.5167H969.366C971.794 81.5167 973.761 83.4843 973.761 85.9113C973.761 88.3382 971.794 90.3058 969.366 90.3058ZM969.366 107.868H897.537C896.371 107.868 895.253 107.405 894.429 106.581C893.605 105.757 893.142 104.639 893.142 103.474C893.142 102.308 893.605 101.19 894.429 100.366C895.253 99.542 896.371 99.079 897.537 99.079H969.366C970.532 99.079 971.649 99.542 972.473 100.366C973.298 101.19 973.761 102.308 973.761 103.474C973.761 104.639 973.298 105.757 972.473 106.581C971.649 107.405 970.532 107.868 969.366 107.868ZM969.366 125.43H897.537C896.371 125.43 895.253 124.967 894.429 124.143C893.605 123.319 893.142 122.201 893.142 121.036C893.142 119.87 893.605 118.753 894.429 117.928C895.253 117.104 896.371 116.641 897.537 116.641H969.366C971.794 116.641 973.761 118.609 973.761 121.036C973.761 123.463 971.794 125.43 969.366 125.43ZM969.366 142.993H897.537C896.371 142.993 895.253 142.53 894.429 141.706C893.605 140.881 893.142 139.764 893.142 138.598C893.142 137.433 893.605 136.315 894.429 135.491C895.253 134.667 896.371 134.204 897.537 134.204H969.366C971.794 134.204 973.761 136.171 973.761 138.598C973.761 141.025 971.794 142.993 969.366 142.993ZM956.888 155.903H802.996C800.569 155.903 798.602 157.87 798.602 160.297C798.602 162.724 800.569 164.692 802.996 164.692H932.825C940.092 160.008 948.313 157.005 956.888 155.903ZM921.88 173.782H802.996C800.569 173.782 798.602 175.75 798.602 178.176C798.602 180.603 800.569 182.571 802.996 182.571H915.02C917.022 179.43 919.319 176.487 921.88 173.782Z" fill="#7081A8"/>
<path d="M801.87 51.2905C800.711 51.2905 799.579 50.8218 798.759 50.0067C797.94 49.1783 797.479 48.0611 797.476 46.896C797.476 45.7411 797.944 44.6108 798.759 43.7905C799.585 42.9674 800.704 42.5041 801.87 42.5015C803.025 42.5015 804.161 42.9696 804.976 43.7905C805.796 44.6108 806.265 45.7417 806.265 46.896C806.265 48.0556 805.796 49.187 804.976 50.0067C804.149 50.8261 803.034 51.2873 801.87 51.2905Z" fill="#F18EA8"/>
<path d="M816.281 51.2905C815.116 51.2885 814 50.8249 813.176 50.0012C812.352 49.1775 811.889 48.0609 811.887 46.896C811.887 45.7411 812.355 44.6108 813.175 43.7905C813.996 42.9702 815.126 42.5015 816.281 42.5015C817.448 42.5041 818.566 42.9674 819.393 43.7905C820.207 44.6108 820.676 45.7417 820.676 46.896C820.676 48.0503 820.206 49.187 819.393 50.0009C818.566 50.8242 817.448 51.2877 816.281 51.2905Z" fill="#97A4C1"/>
<path d="M830.698 51.2905C829.538 51.2905 828.407 50.8218 827.593 50.0067C826.77 49.1803 826.307 48.0623 826.304 46.896C826.305 45.731 826.769 44.6141 827.593 43.7903C828.416 42.9665 829.533 42.503 830.698 42.5015C831.853 42.5015 832.989 42.9696 833.804 43.7905C834.624 44.6108 835.093 45.7417 835.093 46.896C835.093 48.0556 834.624 49.187 833.804 50.0067C832.977 50.825 831.862 51.286 830.698 51.2905Z" fill="#92F7A8"/>
<path d="M1021.52 259.062L1009.48 271.107L1033.17 294.8C1037.42 291.026 1041.44 287.004 1045.22 282.756L1021.52 259.062Z" fill="#92F7A8"/>
<path d="M1026.3 251.799L1016.32 241.818C1013.6 246.909 1010.14 251.569 1006.06 255.647C1001.92 259.787 997.271 263.232 992.253 265.925L1002.22 275.887C1003.35 277.027 1005.22 277.027 1006.36 275.887L1026.3 255.942C1027.44 254.803 1027.44 252.939 1026.3 251.799Z" fill="#4EF480"/>
<path d="M1009.05 269.051L1000.53 260.531C997.928 262.559 995.159 264.363 992.252 265.924L1002.21 275.886C1003.35 277.026 1005.22 277.026 1006.36 275.886L1013.19 269.05C1012.64 269.598 1011.9 269.905 1011.12 269.905C1010.35 269.905 1009.6 269.598 1009.05 269.051Z" fill="#00EE5D"/>
<path d="M1006.89 171.777C1030.28 195.166 1030.28 233.086 1006.89 256.475C983.502 279.862 945.582 279.862 922.192 256.475C898.804 233.086 898.805 195.166 922.192 171.778C945.582 148.389 983.502 148.389 1006.89 171.777Z" fill="#4EF480"/>
<path d="M994.234 243.818C977.836 260.217 951.248 260.217 934.849 243.817C918.451 227.42 918.45 200.832 934.849 184.433C951.247 168.035 977.836 168.036 994.234 184.433C1010.63 200.832 1010.63 227.42 994.234 243.818Z" fill="#E5FDEA"/>
<path d="M994.234 243.819C995.705 242.347 997.065 240.77 998.303 239.098C981.864 251.289 958.544 249.935 943.638 235.028C928.733 220.124 927.379 196.803 939.569 180.365C937.898 181.603 936.32 182.963 934.849 184.433C918.45 200.832 918.451 227.42 934.849 243.817C951.248 260.217 977.836 260.217 994.234 243.819Z" fill="#C0C7DA"/>
<path d="M991.081 31.0112H849.341V64.1741H994.43V34.3604C994.43 32.5183 992.923 31.0112 991.081 31.0112Z" fill="#526697"/>
<path d="M971.754 193.041C975.637 193.041 978.785 189.893 978.785 186.009C978.785 182.126 975.637 178.978 971.754 178.978C967.871 178.978 964.723 182.126 964.723 186.009C964.723 189.893 967.871 193.041 971.754 193.041Z" fill="#E3E3E3"/>
<path d="M986.525 198.296C989.276 198.296 991.506 196.067 991.506 193.316C991.506 190.565 989.276 188.335 986.525 188.335C983.775 188.335 981.545 190.565 981.545 193.316C981.545 196.067 983.775 198.296 986.525 198.296Z" fill="#E3E3E3"/>
</g>
<circle cx="712.596" cy="123.069" r="14.575" fill="#C0C7DA"/>
<circle cx="1103.46" cy="326.374" r="8" fill="#C0C7DA"/>
<circle cy="162.532" r="30" fill="#C0C7DA"/>
<defs>
<clipPath id="clip0_603_2678">
<rect width="300" height="300" fill="white" transform="translate(772.55 38.3354)"/>
</clipPath>
<clipPath id="clip1_603_2678">
<rect width="300" height="300" fill="white" transform="translate(781.424 31.0112)"/>
</clipPath>
</defs>
</svg>
