<svg width="1200" height="456" viewBox="0 0 1200 456" fill="none" xmlns="http://www.w3.org/2000/svg">
<path d="M0.367188 241.729H419C474.228 241.729 519 286.501 519 341.729V355.018C519 410.246 474.228 455.018 419 455.018H0.367188V241.729Z" fill="#A8CEDE"/>
<path d="M1202.63 0H726.449C703.005 0 684 19.0051 684 42.4492C684 65.8932 703.005 84.8984 726.449 84.8984H1202.63V0Z" fill="#A8CEDE"/>
<g clip-path="url(#clip0_603_2678)">
<path d="M928.995 360.335C1008.28 360.335 1072.55 296.064 1072.55 216.781C1072.55 137.498 1008.28 73.2261 928.995 73.2261C849.712 73.2261 785.44 137.498 785.44 216.781C785.44 296.064 849.712 360.335 928.995 360.335Z" fill="#131313" fill-opacity="0.15"/>
<path d="M914.147 201.931C925.239 190.84 939.984 184.732 955.668 184.732C966.353 184.732 976.601 187.569 985.556 192.883V91.8372H772.55V277.527C772.55 280.749 775.187 283.386 778.409 283.386H912.627C891.269 260.39 891.773 224.305 914.147 201.931Z" fill="#131313" fill-opacity="0.15"/>
<path d="M785.839 277.527V91.8372H772.55V277.527C772.55 280.749 775.187 283.386 778.409 283.386H791.698C788.476 283.386 785.839 280.749 785.839 277.527Z" fill="#131313" fill-opacity="0.15"/>
<path d="M982.207 60.3354H775.899C774.057 60.3354 772.55 61.8425 772.55 63.6847V93.4983H985.556V63.6847C985.556 61.8425 984.049 60.3354 982.207 60.3354Z" fill="#131313" fill-opacity="0.15"/>
<path d="M789.188 60.3354H775.899C774.057 60.3354 772.55 61.8425 772.55 63.6847V93.4983H785.839V63.6847C785.839 61.8425 787.346 60.3354 789.188 60.3354Z" fill="#131313" fill-opacity="0.15"/>
<path d="M865.28 164.993C865.28 166.604 863.962 167.922 862.35 167.922H797.052C795.44 167.922 794.122 166.604 794.122 164.993V118.165C794.122 116.554 795.44 115.235 797.052 115.235H862.35C863.961 115.235 865.279 116.554 865.279 118.165L865.28 164.993Z" fill="#131313" fill-opacity="0.15"/>
<path d="M807.411 164.993V118.165C807.411 116.554 808.729 115.235 810.341 115.235H797.052C795.44 115.235 794.122 116.554 794.122 118.165V164.993C794.122 166.604 795.44 167.922 797.052 167.922H810.341C808.729 167.922 807.411 166.604 807.411 164.993Z" fill="#131313" fill-opacity="0.15"/>
<path d="M899.786 225.446H797.052C795.44 225.446 794.122 226.764 794.122 228.375V256.388C794.122 258 795.44 259.318 797.052 259.318H899.149C896.058 248.239 896.269 236.424 899.786 225.446Z" fill="#131313" fill-opacity="0.15"/>
<path d="M807.411 256.388V228.375C807.411 226.764 808.729 225.446 810.341 225.446H797.052C795.44 225.446 794.122 226.764 794.122 228.375V256.388C794.122 258 795.44 259.318 797.052 259.318H810.341C808.729 259.318 807.411 258 807.411 256.388Z" fill="#131313" fill-opacity="0.15"/>
<path d="M899.786 225.446H878.517V259.318H899.149C896.058 248.239 896.268 236.424 899.786 225.446Z" fill="#131313" fill-opacity="0.15"/>
<path d="M960.492 119.63H888.662C887.497 119.63 886.379 119.167 885.555 118.343C884.731 117.519 884.268 116.401 884.268 115.235C884.268 114.07 884.731 112.952 885.555 112.128C886.379 111.304 887.497 110.841 888.662 110.841H960.492C962.92 110.841 964.887 112.809 964.887 115.235C964.887 117.662 962.92 119.63 960.492 119.63ZM960.492 137.192H888.662C887.497 137.192 886.379 136.729 885.555 135.905C884.731 135.081 884.268 133.963 884.268 132.798C884.268 131.632 884.731 130.515 885.555 129.69C886.379 128.866 887.497 128.403 888.662 128.403H960.492C961.657 128.403 962.775 128.866 963.599 129.69C964.424 130.515 964.887 131.632 964.887 132.798C964.887 133.963 964.424 135.081 963.599 135.905C962.775 136.729 961.657 137.192 960.492 137.192ZM960.492 154.755H888.662C887.497 154.755 886.379 154.292 885.555 153.467C884.731 152.643 884.268 151.526 884.268 150.36C884.268 149.195 884.731 148.077 885.555 147.253C886.379 146.429 887.497 145.966 888.662 145.966H960.492C962.92 145.966 964.887 147.933 964.887 150.36C964.887 152.787 962.92 154.755 960.492 154.755ZM960.492 172.317H888.662C887.497 172.317 886.379 171.854 885.555 171.03C884.731 170.206 884.268 169.088 884.268 167.922C884.268 166.757 884.731 165.639 885.555 164.815C886.379 163.991 887.497 163.528 888.662 163.528H960.492C962.92 163.528 964.887 165.495 964.887 167.922C964.887 170.349 962.92 172.317 960.492 172.317ZM948.014 185.227H794.122C791.695 185.227 789.728 187.194 789.728 189.621C789.728 192.048 791.695 194.016 794.122 194.016H923.951C931.218 189.332 939.439 186.329 948.014 185.227ZM913.006 203.106H794.122C791.695 203.106 789.728 205.074 789.728 207.501C789.728 209.928 791.695 211.895 794.122 211.895H906.146C908.148 208.754 910.445 205.811 913.006 203.106Z" fill="#131313" fill-opacity="0.15"/>
<path d="M792.996 80.6147C791.837 80.6147 790.705 80.146 789.885 79.331C789.066 78.5025 788.605 77.3853 788.602 76.2202C788.602 75.0653 789.07 73.9351 789.885 73.1147C790.711 72.2917 791.83 71.8284 792.996 71.8257C794.151 71.8257 795.287 72.2938 796.102 73.1147C796.922 73.9351 797.391 75.0659 797.391 76.2202C797.391 77.3798 796.922 78.5112 796.102 79.331C795.275 80.1503 794.16 80.6115 792.996 80.6147Z" fill="#131313" fill-opacity="0.15"/>
<path d="M807.407 80.6147C806.242 80.6127 805.126 80.1491 804.302 79.3254C803.478 78.5017 803.015 77.3851 803.013 76.2202C803.013 75.0653 803.481 73.9351 804.301 73.1147C805.121 72.2944 806.252 71.8257 807.407 71.8257C808.574 71.8284 809.692 72.2917 810.519 73.1147C811.333 73.9351 811.802 75.0659 811.802 76.2202C811.802 77.3745 811.332 78.5112 810.519 79.3251C809.692 80.1484 808.574 80.6119 807.407 80.6147Z" fill="#131313" fill-opacity="0.15"/>
<path d="M821.824 80.6147C820.664 80.6147 819.533 80.146 818.719 79.331C817.896 78.5045 817.433 77.3865 817.43 76.2202C817.431 75.0552 817.895 73.9383 818.719 73.1145C819.542 72.2907 820.659 71.8272 821.824 71.8257C822.979 71.8257 824.115 72.2938 824.93 73.1147C825.75 73.9351 826.219 75.0659 826.219 76.2202C826.219 77.3798 825.75 78.5112 824.93 79.331C824.103 80.1492 822.988 80.6102 821.824 80.6147Z" fill="#131313" fill-opacity="0.15"/>
<path d="M1012.65 288.386L1000.6 300.431L1024.3 324.125C1028.55 320.35 1032.57 316.328 1036.34 312.08L1012.65 288.386Z" fill="#131313" fill-opacity="0.15"/>
<path d="M1017.43 281.123L1007.45 271.142C1004.73 276.233 1001.27 280.893 997.187 284.971C993.047 289.111 988.397 292.556 983.379 295.249L993.342 305.211C994.481 306.351 996.345 306.351 997.485 305.211L1017.43 285.266C1018.57 284.127 1018.57 282.263 1017.43 281.123Z" fill="#131313" fill-opacity="0.15"/>
<path d="M1000.18 298.375L991.657 289.855C989.054 291.883 986.285 293.687 983.378 295.248L993.341 305.21C994.48 306.35 996.344 306.35 997.484 305.21L1004.32 298.374C1003.77 298.922 1003.02 299.229 1002.25 299.23C1001.47 299.23 1000.73 298.922 1000.18 298.375Z" fill="#131313" fill-opacity="0.15"/>
<path d="M998.016 201.102C1021.4 224.49 1021.4 262.411 998.015 285.799C974.628 309.186 936.708 309.187 913.318 285.799C889.93 262.411 889.931 224.49 913.318 201.102C936.708 177.713 974.628 177.713 998.016 201.102Z" fill="#131313" fill-opacity="0.15"/>
<path d="M985.36 273.143C968.962 289.541 942.374 289.541 925.975 273.141C909.576 256.745 909.576 230.156 925.975 213.757C942.373 197.359 968.962 197.36 985.36 213.757C1001.76 230.157 1001.76 256.744 985.36 273.143Z" fill="#131313" fill-opacity="0.15"/>
<path d="M985.36 273.143C986.831 271.672 988.191 270.094 989.429 268.422C972.99 280.613 949.67 279.259 934.764 264.352C919.859 249.449 918.505 226.128 930.695 209.689C929.024 210.927 927.446 212.287 925.975 213.757C909.576 230.156 909.576 256.744 925.975 273.142C942.374 289.541 968.962 289.541 985.36 273.143Z" fill="#131313" fill-opacity="0.15"/>
<path d="M982.207 60.3354H840.467V93.4983H985.556V63.6847C985.556 61.8425 984.049 60.3354 982.207 60.3354Z" fill="#131313" fill-opacity="0.15"/>
<path d="M962.88 222.365C966.763 222.365 969.911 219.217 969.911 215.333C969.911 211.45 966.763 208.302 962.88 208.302C958.997 208.302 955.849 211.45 955.849 215.333C955.849 219.217 958.997 222.365 962.88 222.365Z" fill="#131313" fill-opacity="0.15"/>
<path d="M977.651 227.621C980.402 227.621 982.632 225.391 982.632 222.64C982.632 219.889 980.402 217.66 977.651 217.66C974.901 217.66 972.671 219.889 972.671 222.64C972.671 225.391 974.901 227.621 977.651 227.621Z" fill="#131313" fill-opacity="0.15"/>
</g>
<g clip-path="url(#clip1_603_2678)">
<path d="M937.869 353.011C1017.15 353.011 1081.42 288.74 1081.42 209.457C1081.42 130.173 1017.15 65.9019 937.869 65.9019C858.586 65.9019 794.314 130.173 794.314 209.457C794.314 288.74 858.586 353.011 937.869 353.011Z" fill="#00406E"/>
<path d="M923.021 194.607C934.113 183.516 948.858 177.408 964.542 177.408C975.227 177.408 985.475 180.245 994.43 185.559V84.513H781.424V270.202C781.424 273.425 784.061 276.062 787.283 276.062H921.501C900.143 253.066 900.647 216.981 923.021 194.607Z" fill="#DCEBF2"/>
<path d="M794.713 270.202V84.513H781.424V270.202C781.424 273.425 784.061 276.062 787.283 276.062H800.572C797.35 276.062 794.713 273.425 794.713 270.202Z" fill="#A8CEDE"/>
<path d="M991.081 53.0112H784.773C782.931 53.0112 781.424 54.5183 781.424 56.3604V86.1741H994.43V56.3604C994.43 54.5183 992.923 53.0112 991.081 53.0112Z" fill="#00406E"/>
<path d="M798.062 53.0112H784.773C782.931 53.0112 781.424 54.5183 781.424 56.3604V86.1741H794.713V56.3604C794.713 54.5183 796.22 53.0112 798.062 53.0112Z" fill="#002558"/>
<path d="M874.154 157.668C874.154 159.28 872.836 160.598 871.224 160.598H805.926C804.314 160.598 802.996 159.28 802.996 157.668V110.841C802.996 109.23 804.314 107.911 805.926 107.911H871.224C872.835 107.911 874.154 109.23 874.154 110.841L874.154 157.668Z" fill="#00406E"/>
<path d="M816.285 157.668V110.841C816.285 109.23 817.604 107.911 819.215 107.911H805.926C804.314 107.911 802.996 109.23 802.996 110.841V157.668C802.996 159.28 804.314 160.598 805.926 160.598H819.215C817.604 160.598 816.285 159.28 816.285 157.668Z" fill="#00406E"/>
<path d="M908.66 218.121H805.926C804.314 218.121 802.996 219.44 802.996 221.051V249.064C802.996 250.675 804.314 251.994 805.926 251.994H908.023C904.932 240.914 905.143 229.099 908.66 218.121Z" fill="#A8CEDE"/>
<path d="M816.285 249.064V221.051C816.285 219.44 817.604 218.121 819.215 218.121H805.926C804.314 218.121 802.996 219.44 802.996 221.051V249.064C802.996 250.675 804.314 251.994 805.926 251.994H819.215C817.604 251.994 816.285 250.675 816.285 249.064Z" fill="#00406E"/>
<path d="M908.66 218.121H887.391V251.994H908.023C904.932 240.914 905.142 229.099 908.66 218.121Z" fill="#A8CEDE"/>
<path d="M969.366 112.306H897.537C896.371 112.306 895.253 111.843 894.429 111.019C893.605 110.195 893.142 109.077 893.142 107.911C893.142 106.746 893.605 105.628 894.429 104.804C895.253 103.98 896.371 103.517 897.537 103.517H969.366C971.794 103.517 973.761 105.484 973.761 107.911C973.761 110.338 971.794 112.306 969.366 112.306ZM969.366 129.868H897.537C896.371 129.868 895.253 129.405 894.429 128.581C893.605 127.757 893.142 126.639 893.142 125.474C893.142 124.308 893.605 123.19 894.429 122.366C895.253 121.542 896.371 121.079 897.537 121.079H969.366C970.532 121.079 971.649 121.542 972.473 122.366C973.298 123.19 973.761 124.308 973.761 125.474C973.761 126.639 973.298 127.757 972.473 128.581C971.649 129.405 970.532 129.868 969.366 129.868ZM969.366 147.43H897.537C896.371 147.43 895.253 146.967 894.429 146.143C893.605 145.319 893.142 144.201 893.142 143.036C893.142 141.87 893.605 140.753 894.429 139.928C895.253 139.104 896.371 138.641 897.537 138.641H969.366C971.794 138.641 973.761 140.609 973.761 143.036C973.761 145.463 971.794 147.43 969.366 147.43ZM969.366 164.993H897.537C896.371 164.993 895.253 164.53 894.429 163.706C893.605 162.881 893.142 161.764 893.142 160.598C893.142 159.433 893.605 158.315 894.429 157.491C895.253 156.667 896.371 156.204 897.537 156.204H969.366C971.794 156.204 973.761 158.171 973.761 160.598C973.761 163.025 971.794 164.993 969.366 164.993ZM956.888 177.903H802.996C800.569 177.903 798.602 179.87 798.602 182.297C798.602 184.724 800.569 186.692 802.996 186.692H932.825C940.092 182.008 948.313 179.005 956.888 177.903ZM921.88 195.782H802.996C800.569 195.782 798.602 197.75 798.602 200.176C798.602 202.603 800.569 204.571 802.996 204.571H915.02C917.022 201.43 919.319 198.487 921.88 195.782Z" fill="#00406E"/>
<path d="M801.87 73.2905C800.711 73.2905 799.579 72.8218 798.759 72.0067C797.94 71.1783 797.479 70.0611 797.476 68.896C797.476 67.7411 797.944 66.6108 798.759 65.7905C799.585 64.9674 800.704 64.5041 801.87 64.5015C803.025 64.5015 804.161 64.9696 804.976 65.7905C805.796 66.6108 806.265 67.7417 806.265 68.896C806.265 70.0556 805.796 71.187 804.976 72.0067C804.149 72.8261 803.034 73.2873 801.87 73.2905Z" fill="#F18EA8"/>
<path d="M816.281 73.2905C815.116 73.2885 814 72.8249 813.176 72.0012C812.352 71.1775 811.889 70.0609 811.887 68.896C811.887 67.7411 812.355 66.6108 813.175 65.7905C813.996 64.9702 815.126 64.5015 816.281 64.5015C817.448 64.5041 818.566 64.9674 819.393 65.7905C820.207 66.6108 820.676 67.7417 820.676 68.896C820.676 70.0503 820.206 71.187 819.393 72.0009C818.566 72.8242 817.448 73.2877 816.281 73.2905Z" fill="#A8CEDE"/>
<path d="M830.698 73.2905C829.538 73.2905 828.407 72.8218 827.593 72.0067C826.77 71.1803 826.307 70.0623 826.304 68.896C826.305 67.731 826.769 66.6141 827.593 65.7903C828.416 64.9665 829.533 64.503 830.698 64.5015C831.853 64.5015 832.989 64.9696 833.804 65.7905C834.624 66.6108 835.093 67.7417 835.093 68.896C835.093 70.0556 834.624 71.187 833.804 72.0067C832.977 72.825 831.862 73.286 830.698 73.2905Z" fill="#92F7A8"/>
<path d="M1021.52 281.062L1009.48 293.107L1033.17 316.8C1037.42 313.026 1041.44 309.004 1045.22 304.756L1021.52 281.062Z" fill="#92F7A8"/>
<path d="M1026.3 273.799L1016.32 263.818C1013.6 268.909 1010.14 273.569 1006.06 277.647C1001.92 281.787 997.271 285.232 992.253 287.925L1002.22 297.887C1003.35 299.027 1005.22 299.027 1006.36 297.887L1026.3 277.942C1027.44 276.803 1027.44 274.939 1026.3 273.799Z" fill="#4EF480"/>
<path d="M1009.05 291.051L1000.53 282.531C997.928 284.559 995.159 286.363 992.252 287.924L1002.21 297.886C1003.35 299.026 1005.22 299.026 1006.36 297.886L1013.19 291.05C1012.64 291.598 1011.9 291.905 1011.12 291.905C1010.35 291.905 1009.6 291.598 1009.05 291.051Z" fill="#00EE5D"/>
<path d="M1006.89 193.777C1030.28 217.166 1030.28 255.086 1006.89 278.475C983.502 301.862 945.582 301.862 922.192 278.475C898.804 255.086 898.805 217.166 922.192 193.778C945.582 170.389 983.502 170.389 1006.89 193.777Z" fill="#4EF480"/>
<path d="M994.234 265.818C977.836 282.217 951.248 282.217 934.849 265.817C918.451 249.42 918.45 222.832 934.849 206.433C951.247 190.035 977.836 190.036 994.234 206.433C1010.63 222.832 1010.63 249.42 994.234 265.818Z" fill="#DCEBF2"/>
<path d="M994.234 265.819C995.705 264.347 997.065 262.77 998.303 261.098C981.864 273.289 958.544 271.935 943.638 257.028C928.733 242.124 927.379 218.803 939.569 202.365C937.898 203.603 936.32 204.963 934.849 206.433C918.45 222.832 918.451 249.42 934.849 265.817C951.248 282.217 977.836 282.217 994.234 265.819Z" fill="#A8CEDE"/>
<path d="M991.081 53.0112H849.341V86.1741H994.43V56.3604C994.43 54.5183 992.923 53.0112 991.081 53.0112Z" fill="#00406E"/>
<path d="M971.754 215.041C975.637 215.041 978.785 211.893 978.785 208.009C978.785 204.126 975.637 200.978 971.754 200.978C967.871 200.978 964.723 204.126 964.723 208.009C964.723 211.893 967.871 215.041 971.754 215.041Z" fill="#F7F7F7"/>
<path d="M986.525 220.296C989.276 220.296 991.506 218.067 991.506 215.316C991.506 212.565 989.276 210.335 986.525 210.335C983.775 210.335 981.545 212.565 981.545 215.316C981.545 218.067 983.775 220.296 986.525 220.296Z" fill="#F7F7F7"/>
</g>
<circle cx="712.596" cy="145.069" r="14.575" fill="#A8CEDE"/>
<circle cx="1103.46" cy="348.374" r="8" fill="#A8CEDE"/>
<circle cy="184.532" r="30" fill="#A8CEDE"/>
<defs>
<clipPath id="clip0_603_2678">
<rect width="300" height="300" fill="white" transform="translate(772.55 60.3354)"/>
</clipPath>
<clipPath id="clip1_603_2678">
<rect width="300" height="300" fill="white" transform="translate(781.424 53.0112)"/>
</clipPath>
</defs>
</svg>
