<svg width="628" height="833" viewBox="0 0 628 833" fill="none" xmlns="http://www.w3.org/2000/svg">
<rect x="0.572266" y="1.04938" width="627.389" height="831.191" rx="20" fill="#C0C7DA"/>
<path d="M0.572266 580.876H299.194C305.608 580.876 310.808 586.076 310.808 592.49C310.808 598.904 305.608 604.104 299.194 604.104H0.572266V580.876Z" fill="#E6E9F0"/>
<path d="M0.572266 641.291H110.319C137.232 641.291 159.05 663.109 159.05 690.023C159.05 716.937 137.232 738.755 110.319 738.755H0.572266V641.291Z" fill="#E6E9F0"/>
<path d="M592.784 1.80078L590.978 155.828C590.662 182.847 568.502 204.493 541.483 204.177C514.464 203.86 492.818 181.7 493.135 154.682L494.94 0.653891L592.784 1.80078Z" fill="#E6E9F0"/>
</svg>
