<svg xmlns="http://www.w3.org/2000/svg" version="1.1" xmlns:xlink="http://www.w3.org/1999/xlink" xmlns:svgjs="http://svgjs.com/svgjs" width="512" height="512" x="0" y="0" viewBox="0 0 60 60" style="enable-background:new 0 0 512 512" xml:space="preserve" class=""><g><g fill="#000" fill-rule="nonzero"><path d="M57 0H46a3 3 0 0 0-3 3v5.947a2.979 2.979 0 0 0-.658-.2L31.509 6.834a3.006 3.006 0 0 0-3.475 2.433l-2.11 11.967a3.041 3.041 0 0 0-.719-.359l-10.462-3.4a3 3 0 0 0-3.78 1.926l-.914 2.814c0 .013-.016.022-.02.035s0 .027-.005.04L.147 52.689a3 3 0 0 0 1.926 3.78l10.462 3.4c.3.098.614.148.93.148a3.006 3.006 0 0 0 2.85-2.075l6.857-21.1-1.91 10.834-.869 4.924-.347 1.969a3 3 0 0 0 2.433 3.476l10.833 1.91a3 3 0 0 0 3.476-2.433L38 50.628l5-28.337V57a3 3 0 0 0 3 3h11a3 3 0 0 0 3-3V3a3 3 0 0 0-3-3zM23.057 49.007l12.8 2.257-.521 2.955-12.8-2.258zm13.15.288-12.8-2.258 5.209-29.544 12.8 2.258zm-7.245-33.771.52-2.955 12.8 2.258-.521 2.954zM45 11h13v38H45zm0-2V6h13v3zm0 42h13v3H45zm1-49h11a1 1 0 0 1 1 1v1H45V3a1 1 0 0 1 1-1zM30.988 8.789c.058 0 .117.005.174.015L42 10.714a1 1 0 0 1 .811 1.158l-.174.985L29.83 10.6l.17-.985a1 1 0 0 1 .988-.826zM12.865 20.02a1 1 0 0 1 1.26-.642l10.462 3.4a1 1 0 0 1 .642 1.26l-.619 1.9-12.362-4.017zm2.787 33.491L3.288 49.5l8.342-25.677 12.362 4.02zm-1.239 3.813a1 1 0 0 1-1.26.642l-10.462-3.4a1 1 0 0 1-.641-1.26l.62-1.906 12.364 4.015zm19.247.66-10.833-1.91a1 1 0 0 1-.811-1.158l.173-.985 12.8 2.258-.174.984a1 1 0 0 1-1.155.811zM57 58H46a1 1 0 0 1-1-1v-1h13v1a1 1 0 0 1-1 1z" fill="#000000" data-original="#000000" class=""></path><path d="M54 14h-5a2 2 0 0 0-2 2v28a2 2 0 0 0 2 2h5a2 2 0 0 0 2-2V16a2 2 0 0 0-2-2zm-5 30V16h5v28zM14.409 29.789a1 1 0 0 0-1.26.643l-5.47 16.849a1 1 0 1 0 1.902.617l5.47-16.849a1 1 0 0 0-.642-1.26zM16.309 39.049a1 1 0 0 0-1.26.642l-2.93 9.03a1 1 0 1 0 1.902.617l2.93-9.029a1 1 0 0 0-.642-1.26zM37.768 23.169l-6.894-1.216a1 1 0 0 0-.348 1.97l6.894 1.216a1 1 0 1 0 .348-1.97zM37.073 27.108l-6.893-1.215a1 1 0 1 0-.348 1.969l6.894 1.216a1 1 0 1 0 .347-1.97z" fill="#000000" data-original="#000000" class=""></path></g></g></svg>