<svg width="464" height="78" viewBox="0 0 464 78" fill="none" xmlns="http://www.w3.org/2000/svg">
<path d="M39.1 65.3C40.8333 65.3 42.2667 65.8667 43.4 67C44.6 68.0667 45.2 69.4667 45.2 71.2C45.2 72.8667 44.6 74.2667 43.4 75.4C42.2667 76.4667 40.8333 77 39.1 77H6.6C4.86667 77 3.4 76.4333 2.2 75.3C1.06667 74.1 0.5 72.6333 0.5 70.9V13.1C0.5 11.3667 1.1 9.93333 2.3 8.8C3.5 7.6 5.03333 7 6.9 7C8.5 7 9.9 7.6 11.1 8.8C12.3667 9.93333 13 11.3667 13 13.1V67L10.8 65.3H39.1ZM66.9523 70.9C66.9523 72.6333 66.3857 74.1 65.2523 75.3C64.119 76.4333 62.6857 77 60.9523 77C59.219 77 57.7857 76.4333 56.6523 75.3C55.519 74.1 54.9523 72.6333 54.9523 70.9V29.6C54.9523 27.8667 55.519 26.4333 56.6523 25.3C57.7857 24.1 59.219 23.5 60.9523 23.5C62.6857 23.5 64.119 24.1 65.2523 25.3C66.3857 26.4333 66.9523 27.8667 66.9523 29.6V70.9ZM60.8523 17C58.5857 17 56.9857 16.6333 56.0523 15.9C55.119 15.1667 54.6523 13.8667 54.6523 12V10.1C54.6523 8.16666 55.1523 6.86667 56.1523 6.2C57.219 5.46666 58.819 5.1 60.9523 5.1C63.2857 5.1 64.919 5.46666 65.8523 6.2C66.7857 6.93333 67.2523 8.23333 67.2523 10.1V12C67.2523 13.9333 66.7523 15.2667 65.7523 16C64.7523 16.6667 63.119 17 60.8523 17ZM79.8852 24.5H103.585C105.185 24.5 106.518 25.0333 107.585 26.1C108.652 27.1667 109.185 28.5 109.185 30.1C109.185 31.6333 108.652 32.9333 107.585 34C106.518 35 105.185 35.5 103.585 35.5H79.8852C78.2852 35.5 76.9518 34.9667 75.8852 33.9C74.8185 32.8333 74.2852 31.5 74.2852 29.9C74.2852 28.3667 74.8185 27.1 75.8852 26.1C76.9518 25.0333 78.2852 24.5 79.8852 24.5ZM90.5852 12C92.3185 12 93.7185 12.6 94.7852 13.8C95.9185 14.9333 96.4852 16.3667 96.4852 18.1V62.6C96.4852 63.5333 96.6518 64.3 96.9852 64.9C97.3852 65.5 97.8852 65.9333 98.4852 66.2C99.1518 66.4667 99.8518 66.6 100.585 66.6C101.385 66.6 102.118 66.4667 102.785 66.2C103.452 65.8667 104.218 65.7 105.085 65.7C106.018 65.7 106.852 66.1333 107.585 67C108.385 67.8667 108.785 69.0667 108.785 70.6C108.785 72.4667 107.752 74 105.685 75.2C103.685 76.4 101.518 77 99.1852 77C97.7852 77 96.2185 76.9 94.4852 76.7C92.8185 76.4333 91.2185 75.8667 89.6852 75C88.2185 74.0667 86.9852 72.6667 85.9852 70.8C84.9852 68.9333 84.4852 66.3667 84.4852 63.1V18.1C84.4852 16.3667 85.0518 14.9333 86.1852 13.8C87.3852 12.6 88.8518 12 90.5852 12ZM144.915 78C139.248 78 134.315 76.8333 130.115 74.5C125.982 72.1 122.782 68.8667 120.515 64.8C118.315 60.7333 117.215 56.1333 117.215 51C117.215 45 118.415 39.9 120.815 35.7C123.282 31.4333 126.482 28.1667 130.415 25.9C134.348 23.6333 138.515 22.5 142.915 22.5C146.315 22.5 149.515 23.2 152.515 24.6C155.582 26 158.282 27.9333 160.615 30.4C162.948 32.8 164.782 35.6 166.115 38.8C167.515 42 168.215 45.4 168.215 49C168.148 50.6 167.515 51.9 166.315 52.9C165.115 53.9 163.715 54.4 162.115 54.4H123.915L120.915 44.4H157.615L155.415 46.4V43.7C155.282 41.7667 154.582 40.0333 153.315 38.5C152.115 36.9667 150.582 35.7667 148.715 34.9C146.915 33.9667 144.982 33.5 142.915 33.5C140.915 33.5 139.048 33.7667 137.315 34.3C135.582 34.8333 134.082 35.7333 132.815 37C131.548 38.2667 130.548 39.9667 129.815 42.1C129.082 44.2333 128.715 46.9333 128.715 50.2C128.715 53.8 129.448 56.8667 130.915 59.4C132.448 61.8667 134.382 63.7667 136.715 65.1C139.115 66.3667 141.648 67 144.315 67C146.782 67 148.748 66.8 150.215 66.4C151.682 66 152.848 65.5333 153.715 65C154.648 64.4 155.482 63.9 156.215 63.5C157.415 62.9 158.548 62.6 159.615 62.6C161.082 62.6 162.282 63.1 163.215 64.1C164.215 65.1 164.715 66.2667 164.715 67.6C164.715 69.4 163.782 71.0333 161.915 72.5C160.182 73.9667 157.748 75.2667 154.615 76.4C151.482 77.4667 148.248 78 144.915 78ZM184.699 77C182.966 77 181.533 76.4333 180.399 75.3C179.266 74.1 178.699 72.6333 178.699 70.9V29.6C178.699 27.8667 179.266 26.4333 180.399 25.3C181.533 24.1 182.966 23.5 184.699 23.5C186.433 23.5 187.866 24.1 188.999 25.3C190.133 26.4333 190.699 27.8667 190.699 29.6V39L189.999 32.3C190.733 30.7 191.666 29.3 192.799 28.1C193.999 26.8333 195.333 25.8 196.799 25C198.266 24.1333 199.833 23.5 201.499 23.1C203.166 22.7 204.833 22.5 206.499 22.5C208.499 22.5 210.166 23.0667 211.499 24.2C212.899 25.3333 213.599 26.6667 213.599 28.2C213.599 30.4 213.033 32 211.899 33C210.766 33.9333 209.533 34.4 208.199 34.4C206.933 34.4 205.766 34.1667 204.699 33.7C203.699 33.2333 202.533 33 201.199 33C199.999 33 198.766 33.3 197.499 33.9C196.299 34.4333 195.166 35.3 194.099 36.5C193.099 37.7 192.266 39.2 191.599 41C190.999 42.7333 190.699 44.8 190.699 47.2V70.9C190.699 72.6333 190.133 74.1 188.999 75.3C187.866 76.4333 186.433 77 184.699 77Z" fill="#1C2135"/>
<path d="M265.859 22.5C267.592 22.5 269.025 23.0667 270.159 24.2C271.292 25.3333 271.859 26.8 271.859 28.6V70.9C271.859 72.6333 271.292 74.1 270.159 75.3C269.025 76.4333 267.592 77 265.859 77C264.125 77 262.692 76.4333 261.559 75.3C260.425 74.1 259.859 72.6333 259.859 70.9V66L262.059 66.9C262.059 67.7667 261.592 68.8333 260.659 70.1C259.725 71.3 258.459 72.5 256.859 73.7C255.259 74.9 253.359 75.9333 251.159 76.8C249.025 77.6 246.692 78 244.159 78C239.559 78 235.392 76.8333 231.659 74.5C227.925 72.1 224.959 68.8333 222.759 64.7C220.625 60.5 219.559 55.7 219.559 50.3C219.559 44.8333 220.625 40.0333 222.759 35.9C224.959 31.7 227.892 28.4333 231.559 26.1C235.225 23.7 239.292 22.5 243.759 22.5C246.625 22.5 249.259 22.9333 251.659 23.8C254.059 24.6667 256.125 25.7667 257.859 27.1C259.659 28.4333 261.025 29.8 261.959 31.2C262.959 32.5333 263.459 33.6667 263.459 34.6L259.859 35.9V28.6C259.859 26.8667 260.425 25.4333 261.559 24.3C262.692 23.1 264.125 22.5 265.859 22.5ZM245.659 67C248.592 67 251.159 66.2667 253.359 64.8C255.559 63.3333 257.259 61.3333 258.459 58.8C259.725 56.2667 260.359 53.4333 260.359 50.3C260.359 47.1 259.725 44.2333 258.459 41.7C257.259 39.1667 255.559 37.1667 253.359 35.7C251.159 34.2333 248.592 33.5 245.659 33.5C242.792 33.5 240.259 34.2333 238.059 35.7C235.859 37.1667 234.125 39.1667 232.859 41.7C231.659 44.2333 231.059 47.1 231.059 50.3C231.059 53.4333 231.659 56.2667 232.859 58.8C234.125 61.3333 235.859 63.3333 238.059 64.8C240.259 66.2667 242.792 67 245.659 67ZM246.759 20.1C246.225 20.1 245.525 19.8333 244.659 19.3C243.859 18.7 243.492 17.8667 243.559 16.8C243.559 16.2 243.759 15.5667 244.159 14.9L249.959 4.7C250.559 3.63333 251.325 2.7 252.259 1.9C253.192 1.1 254.259 0.699999 255.459 0.699999C257.325 0.699999 258.692 1.2 259.559 2.2C260.425 3.13333 260.825 4.3 260.759 5.69999C260.692 6.36666 260.492 7.06667 260.159 7.8C259.892 8.53333 259.459 9.26666 258.859 10L251.259 18.4C250.592 19.1333 249.859 19.6 249.059 19.8C248.259 20 247.492 20.1 246.759 20.1ZM312.552 22.5C317.218 22.5 321.385 23.7 325.052 26.1C328.785 28.4333 331.718 31.6667 333.852 35.8C336.052 39.9333 337.152 44.7333 337.152 50.2C337.152 55.6667 336.052 60.5 333.852 64.7C331.718 68.8333 328.818 72.1 325.152 74.5C321.552 76.8333 317.485 78 312.952 78C310.285 78 307.785 77.5667 305.452 76.7C303.118 75.8333 301.052 74.7333 299.252 73.4C297.518 72.0667 296.152 70.7333 295.152 69.4C294.218 68 293.752 66.8333 293.752 65.9L296.852 64.6V71.9C296.852 73.6333 296.285 75.1 295.152 76.3C294.018 77.4333 292.585 78 290.852 78C289.118 78 287.685 77.4333 286.552 76.3C285.418 75.1667 284.852 73.7 284.852 71.9V9.1C284.852 7.36666 285.418 5.93333 286.552 4.79999C287.685 3.6 289.118 3 290.852 3C292.585 3 294.018 3.6 295.152 4.79999C296.285 5.93333 296.852 7.36666 296.852 9.1V34.5L295.152 33.6C295.152 32.7333 295.618 31.7 296.552 30.5C297.485 29.2333 298.752 28 300.352 26.8C301.952 25.5333 303.785 24.5 305.852 23.7C307.985 22.9 310.218 22.5 312.552 22.5ZM311.052 33.5C308.118 33.5 305.552 34.2333 303.352 35.7C301.152 37.1667 299.418 39.1667 298.152 41.7C296.952 44.1667 296.352 47 296.352 50.2C296.352 53.3333 296.952 56.2 298.152 58.8C299.418 61.3333 301.152 63.3333 303.352 64.8C305.552 66.2667 308.118 67 311.052 67C313.985 67 316.518 66.2667 318.652 64.8C320.852 63.3333 322.552 61.3333 323.752 58.8C325.018 56.2 325.652 53.3333 325.652 50.2C325.652 47 325.018 44.1667 323.752 41.7C322.552 39.1667 320.852 37.1667 318.652 35.7C316.518 34.2333 313.985 33.5 311.052 33.5ZM358.945 70.9C358.945 72.6333 358.378 74.1 357.245 75.3C356.111 76.4333 354.678 77 352.945 77C351.211 77 349.778 76.4333 348.645 75.3C347.511 74.1 346.945 72.6333 346.945 70.9V29.6C346.945 27.8667 347.511 26.4333 348.645 25.3C349.778 24.1 351.211 23.5 352.945 23.5C354.678 23.5 356.111 24.1 357.245 25.3C358.378 26.4333 358.945 27.8667 358.945 29.6V70.9ZM352.845 17C350.578 17 348.978 16.6333 348.045 15.9C347.111 15.1667 346.645 13.8667 346.645 12V10.1C346.645 8.16666 347.145 6.86667 348.145 6.2C349.211 5.46666 350.811 5.1 352.945 5.1C355.278 5.1 356.911 5.46666 357.845 6.2C358.778 6.93333 359.245 8.23333 359.245 10.1V12C359.245 13.9333 358.745 15.2667 357.745 16C356.745 16.6667 355.111 17 352.845 17ZM371.877 24.5H395.577C397.177 24.5 398.511 25.0333 399.577 26.1C400.644 27.1667 401.177 28.5 401.177 30.1C401.177 31.6333 400.644 32.9333 399.577 34C398.511 35 397.177 35.5 395.577 35.5H371.877C370.277 35.5 368.944 34.9667 367.877 33.9C366.811 32.8333 366.277 31.5 366.277 29.9C366.277 28.3667 366.811 27.1 367.877 26.1C368.944 25.0333 370.277 24.5 371.877 24.5ZM382.577 12C384.311 12 385.711 12.6 386.777 13.8C387.911 14.9333 388.477 16.3667 388.477 18.1V62.6C388.477 63.5333 388.644 64.3 388.977 64.9C389.377 65.5 389.877 65.9333 390.477 66.2C391.144 66.4667 391.844 66.6 392.577 66.6C393.377 66.6 394.111 66.4667 394.777 66.2C395.444 65.8667 396.211 65.7 397.077 65.7C398.011 65.7 398.844 66.1333 399.577 67C400.377 67.8667 400.777 69.0667 400.777 70.6C400.777 72.4667 399.744 74 397.677 75.2C395.677 76.4 393.511 77 391.177 77C389.777 77 388.211 76.9 386.477 76.7C384.811 76.4333 383.211 75.8667 381.677 75C380.211 74.0667 378.977 72.6667 377.977 70.8C376.977 68.9333 376.477 66.3667 376.477 63.1V18.1C376.477 16.3667 377.044 14.9333 378.177 13.8C379.377 12.6 380.844 12 382.577 12ZM463.607 50.3C463.607 55.7667 462.374 60.6 459.907 64.8C457.507 68.9333 454.24 72.1667 450.107 74.5C446.04 76.8333 441.474 78 436.407 78C431.34 78 426.74 76.8333 422.607 74.5C418.54 72.1667 415.274 68.9333 412.807 64.8C410.407 60.6 409.207 55.7667 409.207 50.3C409.207 44.8333 410.407 40.0333 412.807 35.9C415.274 31.7 418.54 28.4333 422.607 26.1C426.74 23.7 431.34 22.5 436.407 22.5C441.474 22.5 446.04 23.7 450.107 26.1C454.24 28.4333 457.507 31.7 459.907 35.9C462.374 40.0333 463.607 44.8333 463.607 50.3ZM451.607 50.3C451.607 46.9 450.907 43.9667 449.507 41.5C448.174 38.9667 446.34 37 444.007 35.6C441.74 34.2 439.207 33.5 436.407 33.5C433.607 33.5 431.04 34.2 428.707 35.6C426.44 37 424.607 38.9667 423.207 41.5C421.874 43.9667 421.207 46.9 421.207 50.3C421.207 53.6333 421.874 56.5667 423.207 59.1C424.607 61.5667 426.44 63.5 428.707 64.9C431.04 66.3 433.607 67 436.407 67C439.207 67 441.74 66.3 444.007 64.9C446.34 63.5 448.174 61.5667 449.507 59.1C450.907 56.5667 451.607 53.6333 451.607 50.3Z" fill="#3CBD7B"/>
</svg>
