<svg xmlns="http://www.w3.org/2000/svg" version="1.1" xmlns:xlink="http://www.w3.org/1999/xlink" width="512" height="512" x="0" y="0" viewBox="0 0 24 24" style="enable-background:new 0 0 512 512" xml:space="preserve" class=""><g><g fill="#000"><path fill-rule="evenodd" d="M12 3.538a8.462 8.462 0 1 0 0 16.924 8.462 8.462 0 0 0 0-16.924zM2 12C2 6.477 6.477 2 12 2s10 4.477 10 10-4.477 10-10 10S2 17.523 2 12z" clip-rule="evenodd" fill="#ACACAC" opacity="1" data-original="#000000" class=""></path><path fill-rule="evenodd" d="M8.308 16.564a.77.77 0 0 0 1.077.154c.462-.347.842-.556 1.225-.683.383-.128.812-.189 1.39-.189s1.007.06 1.39.189c.383.127.763.336 1.225.683a.77.77 0 1 0 .923-1.23c-.55-.414-1.076-.718-1.661-.913s-1.189-.267-1.877-.267-1.291.072-1.877.267c-.585.195-1.11.5-1.661.912a.77.77 0 0 0-.154 1.077z" clip-rule="evenodd" fill="#ACACAC" opacity="1" data-original="#000000" class=""></path><path d="M9.949 8.923a1.026 1.026 0 1 1-2.052 0 1.026 1.026 0 0 1 2.052 0zM16.103 8.923a1.026 1.026 0 1 1-2.052 0 1.026 1.026 0 0 1 2.052 0z" fill="#ACACAC" opacity="1" data-original="#000000" class=""></path></g></g></svg>