<svg xmlns="http://www.w3.org/2000/svg" height="48" viewBox="0 96 960 960" width="48">
  <path d="M168 948.4q-24.75 0-42.375-17.625t-17.625-42.375V276q0-24.75 17.625-42.375T168 216h409v60H168v600h600V456h60v432q0 24.75-17.625 42.375T780 948.4H168Zm532-486.4v-81h-81v-60h81v-81h60v81h81v60h-81v81h-60ZM228 762h480L552 570 425 737l-94-124-115 149Zm-60-498v600-600Z" style="fill: rgba(0, 0, 0, 0.15); transform: translate(-12px, 16px);"></path>
  <path d="M180 936q-24.75 0-42.375-17.625T120 876V276q0-24.75 17.625-42.375T180 216h409v60H180v600h600V468h60v408q0 24.75-17.625 42.375T780 936H180Zm520-498v-81h-81v-60h81v-81h60v81h81v60h-81v81h-60ZM240 774h480L576 582 449 749l-94-124-115 149Zm-60-498v600-600Z" style="fill: #152450;"></path>
</svg>
