<svg xmlns="http://www.w3.org/2000/svg" width="1405" height="617" viewBox="0 0 1405 617" fill="none">
<path d="M638 203.333C605.573 203.333 579.333 177.093 579.333 144.667C579.333 112.24 605.573 86 638 86C670.426 86 696.666 112.24 696.666 144.667C696.666 177.093 670.426 203.333 638 203.333ZM638 118C630.927 118 624.144 120.81 619.143 125.81C614.143 130.811 611.333 137.594 611.333 144.667C611.333 151.739 614.143 158.522 619.143 163.523C624.144 168.524 630.927 171.333 638 171.333C645.072 171.333 651.855 168.524 656.856 163.523C661.857 158.522 664.666 151.739 664.666 144.667C664.666 137.594 661.857 130.811 656.856 125.81C651.855 120.81 645.072 118 638 118Z" fill="#515151"/>
<path d="M766 459.333H638C522.16 459.333 472.667 409.84 472.667 294V166C472.667 50.16 522.16 0.666626 638 0.666626H723.333C732.08 0.666626 739.333 7.91996 739.333 16.6666C739.333 25.4133 732.08 32.6666 723.333 32.6666H638C539.653 32.6666 504.667 67.6533 504.667 166V294C504.667 392.347 539.653 427.333 638 427.333H766C864.347 427.333 899.333 392.347 899.333 294V187.333C899.333 178.587 906.587 171.333 915.333 171.333C924.08 171.333 931.333 178.587 931.333 187.333V294C931.333 409.84 881.84 459.333 766 459.333Z" fill="#515151"/>
<path d="M830 160.667C821.253 160.667 814 153.413 814 144.667V16.6667C814 10.2667 817.84 4.29334 823.813 1.94667C829.787 -0.399997 836.613 0.880005 841.307 5.36L883.973 48.0267C890.16 54.2133 890.16 64.4533 883.973 70.64C877.787 76.8267 867.547 76.8267 861.36 70.64L846 55.28V144.667C846 153.413 838.747 160.667 830 160.667Z" fill="#515151"/>
<path d="M787.333 75.3333C783.28 75.3333 779.226 73.84 776.026 70.64C773.051 67.629 771.382 63.5665 771.382 59.3333C771.382 55.1001 773.051 51.0376 776.026 48.0266L818.693 5.35997C824.88 -0.826696 835.12 -0.826696 841.306 5.35997C847.493 11.5466 847.493 21.7866 841.306 27.9733L798.64 70.64C795.44 73.84 791.386 75.3333 787.333 75.3333ZM502.96 394.267C499.55 394.243 496.236 393.132 493.501 391.095C490.767 389.058 488.753 386.202 487.753 382.942C486.754 379.681 486.821 376.187 487.944 372.968C489.068 369.748 491.189 366.971 494 365.04L599.173 294.427C622.213 279.067 654 280.773 674.906 298.48L681.946 304.667C692.613 313.84 710.746 313.84 721.2 304.667L809.946 228.507C832.56 209.093 868.186 209.093 891.013 228.507L925.786 258.373C932.4 264.133 933.253 274.16 927.493 280.987C921.733 287.6 911.493 288.453 904.88 282.693L870.106 252.827C859.44 243.653 841.52 243.653 830.853 252.827L742.106 328.987C719.493 348.4 683.866 348.4 661.04 328.987L654 322.8C644.186 314.48 627.973 313.627 617.093 321.093L512.133 391.707C509.146 393.413 505.946 394.267 502.96 394.267Z" fill="#515151"/>
<path d="M2.77728 562.872C2.77728 557.976 3.90528 553.584 6.16128 549.696C8.46528 545.808 11.5613 542.784 15.4493 540.624C19.3853 538.416 23.6813 537.312 28.3373 537.312C33.6653 537.312 38.3933 538.632 42.5213 541.272C46.6973 543.864 49.7213 547.56 51.5933 552.36H41.7293C40.4333 549.72 38.6333 547.752 36.3293 546.456C34.0253 545.16 31.3613 544.512 28.3373 544.512C25.0253 544.512 22.0733 545.256 19.4813 546.744C16.8893 548.232 14.8493 550.368 13.3613 553.152C11.9213 555.936 11.2013 559.176 11.2013 562.872C11.2013 566.568 11.9213 569.808 13.3613 572.592C14.8493 575.376 16.8893 577.536 19.4813 579.072C22.0733 580.56 25.0253 581.304 28.3373 581.304C31.3613 581.304 34.0253 580.656 36.3293 579.36C38.6333 578.064 40.4333 576.096 41.7293 573.456H51.5933C49.7213 578.256 46.6973 581.952 42.5213 584.544C38.3933 587.136 33.6653 588.432 28.3373 588.432C23.6333 588.432 19.3373 587.352 15.4493 585.192C11.5613 582.984 8.46528 579.936 6.16128 576.048C3.90528 572.16 2.77728 567.768 2.77728 562.872ZM69.4088 534.72V588H61.2008V534.72H69.4088ZM84.3612 543.072C82.8732 543.072 81.6252 542.568 80.6172 541.56C79.6092 540.552 79.1052 539.304 79.1052 537.816C79.1052 536.328 79.6092 535.08 80.6172 534.072C81.6252 533.064 82.8732 532.56 84.3612 532.56C85.8012 532.56 87.0252 533.064 88.0332 534.072C89.0412 535.08 89.5452 536.328 89.5452 537.816C89.5452 539.304 89.0412 540.552 88.0332 541.56C87.0252 542.568 85.8012 543.072 84.3612 543.072ZM88.3932 548.328V588H80.1852V548.328H88.3932ZM96.4335 567.984C96.4335 564 97.2495 560.472 98.8815 557.4C100.562 554.328 102.818 551.952 105.65 550.272C108.53 548.544 111.722 547.68 115.226 547.68C118.298 547.68 121.01 548.304 123.362 549.552C125.762 550.8 127.61 552.312 128.906 554.088V548.328H137.186V606.864H128.906V582.24C127.61 584.016 125.738 585.528 123.29 586.776C120.842 588.024 118.058 588.648 114.938 588.648C111.53 588.648 108.41 587.784 105.578 586.056C102.794 584.28 100.562 581.832 98.8815 578.712C97.2495 575.544 96.4335 571.968 96.4335 567.984ZM128.906 568.128C128.906 565.392 128.33 563.016 127.178 561C126.074 558.984 124.61 557.448 122.786 556.392C120.962 555.336 118.994 554.808 116.882 554.808C114.77 554.808 112.802 555.336 110.978 556.392C109.154 557.4 107.666 558.912 106.514 560.928C105.41 562.896 104.858 565.248 104.858 567.984C104.858 570.72 105.41 573.12 106.514 575.184C107.666 577.248 109.154 578.832 110.978 579.936C112.85 580.992 114.818 581.52 116.882 581.52C118.994 581.52 120.962 580.992 122.786 579.936C124.61 578.88 126.074 577.344 127.178 575.328C128.33 573.264 128.906 570.864 128.906 568.128ZM183.894 548.328V588H175.686V583.32C174.39 584.952 172.686 586.248 170.574 587.208C168.51 588.12 166.302 588.576 163.95 588.576C160.83 588.576 158.022 587.928 155.526 586.632C153.078 585.336 151.134 583.416 149.694 580.872C148.302 578.328 147.606 575.256 147.606 571.656V548.328H155.742V570.432C155.742 573.984 156.63 576.72 158.406 578.64C160.182 580.512 162.606 581.448 165.678 581.448C168.75 581.448 171.174 580.512 172.95 578.64C174.774 576.72 175.686 573.984 175.686 570.432V548.328H183.894ZM231.084 567.192C231.084 568.68 230.988 570.024 230.796 571.224H200.484C200.724 574.392 201.9 576.936 204.012 578.856C206.124 580.776 208.716 581.736 211.788 581.736C216.204 581.736 219.324 579.888 221.148 576.192H230.004C228.804 579.84 226.62 582.84 223.452 585.192C220.332 587.496 216.444 588.648 211.788 588.648C207.996 588.648 204.588 587.808 201.564 586.128C198.588 584.4 196.236 582 194.508 578.928C192.828 575.808 191.988 572.208 191.988 568.128C191.988 564.048 192.804 560.472 194.436 557.4C196.116 554.28 198.444 551.88 201.42 550.2C204.444 548.52 207.9 547.68 211.788 547.68C215.532 547.68 218.868 548.496 221.796 550.128C224.724 551.76 227.004 554.064 228.636 557.04C230.268 559.968 231.084 563.352 231.084 567.192ZM222.516 564.6C222.468 561.576 221.388 559.152 219.276 557.328C217.164 555.504 214.548 554.592 211.428 554.592C208.596 554.592 206.172 555.504 204.156 557.328C202.14 559.104 200.94 561.528 200.556 564.6H222.516ZM255.129 567.984C255.129 564 255.945 560.472 257.577 557.4C259.257 554.328 261.513 551.952 264.345 550.272C267.225 548.544 270.393 547.68 273.849 547.68C276.969 547.68 279.681 548.304 281.985 549.552C284.337 550.752 286.209 552.264 287.601 554.088V548.328H295.881V588H287.601V582.096C286.209 583.968 284.313 585.528 281.913 586.776C279.513 588.024 276.777 588.648 273.705 588.648C270.297 588.648 267.177 587.784 264.345 586.056C261.513 584.28 259.257 581.832 257.577 578.712C255.945 575.544 255.129 571.968 255.129 567.984ZM287.601 568.128C287.601 565.392 287.025 563.016 285.873 561C284.769 558.984 283.305 557.448 281.481 556.392C279.657 555.336 277.689 554.808 275.577 554.808C273.465 554.808 271.497 555.336 269.673 556.392C267.849 557.4 266.361 558.912 265.209 560.928C264.105 562.896 263.553 565.248 263.553 567.984C263.553 570.72 264.105 573.12 265.209 575.184C266.361 577.248 267.849 578.832 269.673 579.936C271.545 580.992 273.513 581.52 275.577 581.52C277.689 581.52 279.657 580.992 281.481 579.936C283.305 578.88 284.769 577.344 285.873 575.328C287.025 573.264 287.601 570.864 287.601 568.128ZM303.926 567.984C303.926 564 304.742 560.472 306.374 557.4C308.054 554.328 310.31 551.952 313.142 550.272C316.022 548.544 319.214 547.68 322.718 547.68C325.79 547.68 328.502 548.304 330.854 549.552C333.254 550.8 335.102 552.312 336.398 554.088V548.328H344.678V606.864H336.398V582.24C335.102 584.016 333.23 585.528 330.782 586.776C328.334 588.024 325.55 588.648 322.43 588.648C319.022 588.648 315.902 587.784 313.07 586.056C310.286 584.28 308.054 581.832 306.374 578.712C304.742 575.544 303.926 571.968 303.926 567.984ZM336.398 568.128C336.398 565.392 335.822 563.016 334.67 561C333.566 558.984 332.102 557.448 330.278 556.392C328.454 555.336 326.486 554.808 324.374 554.808C322.262 554.808 320.294 555.336 318.47 556.392C316.646 557.4 315.158 558.912 314.006 560.928C312.902 562.896 312.35 565.248 312.35 567.984C312.35 570.72 312.902 573.12 314.006 575.184C315.158 577.248 316.646 578.832 318.47 579.936C320.342 580.992 322.31 581.52 324.374 581.52C326.486 581.52 328.454 580.992 330.278 579.936C332.102 578.88 333.566 577.344 334.67 575.328C335.822 573.264 336.398 570.864 336.398 568.128ZM391.387 548.328V588H383.179V583.32C381.883 584.952 380.179 586.248 378.067 587.208C376.003 588.12 373.795 588.576 371.443 588.576C368.323 588.576 365.515 587.928 363.019 586.632C360.571 585.336 358.627 583.416 357.187 580.872C355.795 578.328 355.099 575.256 355.099 571.656V548.328H363.235V570.432C363.235 573.984 364.123 576.72 365.899 578.64C367.675 580.512 370.099 581.448 373.171 581.448C376.243 581.448 378.667 580.512 380.443 578.64C382.267 576.72 383.179 573.984 383.179 570.432V548.328H391.387ZM406.392 543.072C404.904 543.072 403.656 542.568 402.648 541.56C401.64 540.552 401.136 539.304 401.136 537.816C401.136 536.328 401.64 535.08 402.648 534.072C403.656 533.064 404.904 532.56 406.392 532.56C407.832 532.56 409.056 533.064 410.064 534.072C411.072 535.08 411.576 536.328 411.576 537.816C411.576 539.304 411.072 540.552 410.064 541.56C409.056 542.568 407.832 543.072 406.392 543.072ZM410.424 548.328V588H402.216V548.328H410.424ZM448.112 554.16C449.504 552.336 451.4 550.8 453.8 549.552C456.2 548.304 458.912 547.68 461.936 547.68C465.392 547.68 468.536 548.544 471.368 550.272C474.248 551.952 476.504 554.328 478.136 557.4C479.768 560.472 480.584 564 480.584 567.984C480.584 571.968 479.768 575.544 478.136 578.712C476.504 581.832 474.248 584.28 471.368 586.056C468.536 587.784 465.392 588.648 461.936 588.648C458.912 588.648 456.224 588.048 453.872 586.848C451.52 585.6 449.6 584.064 448.112 582.24V606.864H439.904V548.328H448.112V554.16ZM472.232 567.984C472.232 565.248 471.656 562.896 470.504 560.928C469.4 558.912 467.912 557.4 466.04 556.392C464.216 555.336 462.248 554.808 460.136 554.808C458.072 554.808 456.104 555.336 454.232 556.392C452.408 557.448 450.92 558.984 449.768 561C448.664 563.016 448.112 565.392 448.112 568.128C448.112 570.864 448.664 573.264 449.768 575.328C450.92 577.344 452.408 578.88 454.232 579.936C456.104 580.992 458.072 581.52 460.136 581.52C462.248 581.52 464.216 580.992 466.04 579.936C467.912 578.832 469.4 577.248 470.504 575.184C471.656 573.12 472.232 570.72 472.232 567.984ZM485.965 567.984C485.965 564 486.781 560.472 488.413 557.4C490.093 554.328 492.349 551.952 495.181 550.272C498.061 548.544 501.229 547.68 504.685 547.68C507.805 547.68 510.517 548.304 512.821 549.552C515.173 550.752 517.045 552.264 518.437 554.088V548.328H526.717V588H518.437V582.096C517.045 583.968 515.149 585.528 512.749 586.776C510.349 588.024 507.613 588.648 504.541 588.648C501.133 588.648 498.013 587.784 495.181 586.056C492.349 584.28 490.093 581.832 488.413 578.712C486.781 575.544 485.965 571.968 485.965 567.984ZM518.437 568.128C518.437 565.392 517.861 563.016 516.709 561C515.605 558.984 514.141 557.448 512.317 556.392C510.493 555.336 508.525 554.808 506.413 554.808C504.301 554.808 502.333 555.336 500.509 556.392C498.685 557.4 497.197 558.912 496.045 560.928C494.941 562.896 494.389 565.248 494.389 567.984C494.389 570.72 494.941 573.12 496.045 575.184C497.197 577.248 498.685 578.832 500.509 579.936C502.381 580.992 504.349 581.52 506.413 581.52C508.525 581.52 510.493 580.992 512.317 579.936C514.141 578.88 515.605 577.344 516.709 575.328C517.861 573.264 518.437 570.864 518.437 568.128ZM545.706 554.088C546.906 552.072 548.49 550.512 550.458 549.408C552.474 548.256 554.85 547.68 557.586 547.68V556.176H555.498C552.282 556.176 549.834 556.992 548.154 558.624C546.522 560.256 545.706 563.088 545.706 567.12V588H537.498V548.328H545.706V554.088ZM562.394 567.984C562.394 564 563.21 560.472 564.842 557.4C566.522 554.328 568.778 551.952 571.61 550.272C574.49 548.544 577.658 547.68 581.114 547.68C584.234 547.68 586.946 548.304 589.25 549.552C591.602 550.752 593.474 552.264 594.866 554.088V548.328H603.146V588H594.866V582.096C593.474 583.968 591.578 585.528 589.178 586.776C586.778 588.024 584.042 588.648 580.97 588.648C577.562 588.648 574.442 587.784 571.61 586.056C568.778 584.28 566.522 581.832 564.842 578.712C563.21 575.544 562.394 571.968 562.394 567.984ZM594.866 568.128C594.866 565.392 594.29 563.016 593.138 561C592.034 558.984 590.57 557.448 588.746 556.392C586.922 555.336 584.954 554.808 582.842 554.808C580.73 554.808 578.762 555.336 576.938 556.392C575.114 557.4 573.626 558.912 572.474 560.928C571.37 562.896 570.818 565.248 570.818 567.984C570.818 570.72 571.37 573.12 572.474 575.184C573.626 577.248 575.114 578.832 576.938 579.936C578.81 580.992 580.778 581.52 582.842 581.52C584.954 581.52 586.922 580.992 588.746 579.936C590.57 578.88 592.034 577.344 593.138 575.328C594.29 573.264 594.866 570.864 594.866 568.128ZM668.99 567.192C668.99 568.68 668.894 570.024 668.702 571.224H638.39C638.63 574.392 639.806 576.936 641.918 578.856C644.03 580.776 646.622 581.736 649.694 581.736C654.11 581.736 657.23 579.888 659.054 576.192H667.91C666.71 579.84 664.526 582.84 661.358 585.192C658.238 587.496 654.35 588.648 649.694 588.648C645.902 588.648 642.494 587.808 639.47 586.128C636.494 584.4 634.142 582 632.414 578.928C630.734 575.808 629.894 572.208 629.894 568.128C629.894 564.048 630.71 560.472 632.342 557.4C634.022 554.28 636.35 551.88 639.326 550.2C642.35 548.52 645.806 547.68 649.694 547.68C653.438 547.68 656.774 548.496 659.702 550.128C662.63 551.76 664.91 554.064 666.542 557.04C668.174 559.968 668.99 563.352 668.99 567.192ZM660.422 564.6C660.374 561.576 659.294 559.152 657.182 557.328C655.07 555.504 652.454 554.592 649.334 554.592C646.502 554.592 644.078 555.504 642.062 557.328C640.046 559.104 638.846 561.528 638.462 564.6H660.422ZM697.084 547.68C700.204 547.68 702.988 548.328 705.436 549.624C707.932 550.92 709.876 552.84 711.268 555.384C712.66 557.928 713.356 561 713.356 564.6V588H705.22V565.824C705.22 562.272 704.332 559.56 702.556 557.688C700.78 555.768 698.356 554.808 695.284 554.808C692.212 554.808 689.764 555.768 687.94 557.688C686.164 559.56 685.276 562.272 685.276 565.824V588H677.068V548.328H685.276V552.864C686.62 551.232 688.324 549.96 690.388 549.048C692.5 548.136 694.732 547.68 697.084 547.68ZM739.162 580.656L750.394 548.328H759.106L743.986 588H734.194L719.146 548.328H727.93L739.162 580.656ZM769.486 543.072C767.998 543.072 766.75 542.568 765.742 541.56C764.734 540.552 764.23 539.304 764.23 537.816C764.23 536.328 764.734 535.08 765.742 534.072C766.75 533.064 767.998 532.56 769.486 532.56C770.926 532.56 772.15 533.064 773.158 534.072C774.166 535.08 774.67 536.328 774.67 537.816C774.67 539.304 774.166 540.552 773.158 541.56C772.15 542.568 770.926 543.072 769.486 543.072ZM773.518 548.328V588H765.31V548.328H773.518ZM781.559 567.984C781.559 564 782.375 560.472 784.007 557.4C785.687 554.328 787.943 551.952 790.775 550.272C793.655 548.544 796.823 547.68 800.279 547.68C803.399 547.68 806.111 548.304 808.415 549.552C810.767 550.752 812.639 552.264 814.031 554.088V548.328H822.311V588H814.031V582.096C812.639 583.968 810.743 585.528 808.343 586.776C805.943 588.024 803.207 588.648 800.135 588.648C796.727 588.648 793.607 587.784 790.775 586.056C787.943 584.28 785.687 581.832 784.007 578.712C782.375 575.544 781.559 571.968 781.559 567.984ZM814.031 568.128C814.031 565.392 813.455 563.016 812.303 561C811.199 558.984 809.735 557.448 807.911 556.392C806.087 555.336 804.119 554.808 802.007 554.808C799.895 554.808 797.927 555.336 796.103 556.392C794.279 557.4 792.791 558.912 791.639 560.928C790.535 562.896 789.983 565.248 789.983 567.984C789.983 570.72 790.535 573.12 791.639 575.184C792.791 577.248 794.279 578.832 796.103 579.936C797.975 580.992 799.943 581.52 802.007 581.52C804.119 581.52 806.087 580.992 807.911 579.936C809.735 578.88 811.199 577.344 812.303 575.328C813.455 573.264 814.031 570.864 814.031 568.128ZM841.299 554.088C842.499 552.072 844.083 550.512 846.051 549.408C848.067 548.256 850.443 547.68 853.179 547.68V556.176H851.091C847.875 556.176 845.427 556.992 843.747 558.624C842.115 560.256 841.299 563.088 841.299 567.12V588H833.091V548.328H841.299V554.088ZM876.691 567.984C876.691 564 877.507 560.472 879.139 557.4C880.819 554.328 883.075 551.952 885.907 550.272C888.787 548.544 891.955 547.68 895.411 547.68C898.531 547.68 901.243 548.304 903.547 549.552C905.899 550.752 907.771 552.264 909.163 554.088V548.328H917.443V588H909.163V582.096C907.771 583.968 905.875 585.528 903.475 586.776C901.075 588.024 898.339 588.648 895.267 588.648C891.859 588.648 888.739 587.784 885.907 586.056C883.075 584.28 880.819 581.832 879.139 578.712C877.507 575.544 876.691 571.968 876.691 567.984ZM909.163 568.128C909.163 565.392 908.587 563.016 907.435 561C906.331 558.984 904.867 557.448 903.043 556.392C901.219 555.336 899.251 554.808 897.139 554.808C895.027 554.808 893.059 555.336 891.235 556.392C889.411 557.4 887.923 558.912 886.771 560.928C885.667 562.896 885.115 565.248 885.115 567.984C885.115 570.72 885.667 573.12 886.771 575.184C887.923 577.248 889.411 578.832 891.235 579.936C893.107 580.992 895.075 581.52 897.139 581.52C899.251 581.52 901.219 580.992 903.043 579.936C904.867 578.88 906.331 577.344 907.435 575.328C908.587 573.264 909.163 570.864 909.163 568.128ZM961.327 588.648C958.207 588.648 955.399 588.096 952.903 586.992C950.455 585.84 948.511 584.304 947.071 582.384C945.631 580.416 944.863 578.232 944.767 575.832H953.263C953.407 577.512 954.199 578.928 955.639 580.08C957.127 581.184 958.975 581.736 961.183 581.736C963.487 581.736 965.263 581.304 966.511 580.44C967.807 579.528 968.455 578.376 968.455 576.984C968.455 575.496 967.735 574.392 966.295 573.672C964.903 572.952 962.671 572.16 959.599 571.296C956.623 570.48 954.199 569.688 952.327 568.92C950.455 568.152 948.823 566.976 947.431 565.392C946.087 563.808 945.415 561.72 945.415 559.128C945.415 557.016 946.039 555.096 947.287 553.368C948.535 551.592 950.311 550.2 952.615 549.192C954.967 548.184 957.655 547.68 960.679 547.68C965.191 547.68 968.815 548.832 971.551 551.136C974.335 553.392 975.823 556.488 976.015 560.424H967.807C967.663 558.648 966.943 557.232 965.647 556.176C964.351 555.12 962.599 554.592 960.391 554.592C958.231 554.592 956.575 555 955.423 555.816C954.271 556.632 953.695 557.712 953.695 559.056C953.695 560.112 954.079 561 954.847 561.72C955.615 562.44 956.551 563.016 957.655 563.448C958.759 563.832 960.391 564.336 962.551 564.96C965.431 565.728 967.783 566.52 969.607 567.336C971.479 568.104 973.087 569.256 974.431 570.792C975.775 572.328 976.471 574.368 976.519 576.912C976.519 579.168 975.895 581.184 974.647 582.96C973.399 584.736 971.623 586.128 969.319 587.136C967.063 588.144 964.399 588.648 961.327 588.648ZM1021.32 548.328V588H1013.11V583.32C1011.81 584.952 1010.11 586.248 1008 587.208C1005.93 588.12 1003.72 588.576 1001.37 588.576C998.252 588.576 995.444 587.928 992.948 586.632C990.5 585.336 988.556 583.416 987.116 580.872C985.724 578.328 985.028 575.256 985.028 571.656V548.328H993.164V570.432C993.164 573.984 994.052 576.72 995.828 578.64C997.604 580.512 1000.03 581.448 1003.1 581.448C1006.17 581.448 1008.6 580.512 1010.37 578.64C1012.2 576.72 1013.11 573.984 1013.11 570.432V548.328H1021.32ZM1029.41 567.984C1029.41 564 1030.23 560.472 1031.86 557.4C1033.54 554.328 1035.79 551.952 1038.63 550.272C1041.51 548.544 1044.67 547.68 1048.13 547.68C1051.25 547.68 1053.96 548.304 1056.27 549.552C1058.62 550.752 1060.49 552.264 1061.88 554.088V548.328H1070.16V588H1061.88V582.096C1060.49 583.968 1058.59 585.528 1056.19 586.776C1053.79 588.024 1051.06 588.648 1047.99 588.648C1044.58 588.648 1041.46 587.784 1038.63 586.056C1035.79 584.28 1033.54 581.832 1031.86 578.712C1030.23 575.544 1029.41 571.968 1029.41 567.984ZM1061.88 568.128C1061.88 565.392 1061.31 563.016 1060.15 561C1059.05 558.984 1057.59 557.448 1055.76 556.392C1053.94 555.336 1051.97 554.808 1049.86 554.808C1047.75 554.808 1045.78 555.336 1043.95 556.392C1042.13 557.4 1040.64 558.912 1039.49 560.928C1038.39 562.896 1037.83 565.248 1037.83 567.984C1037.83 570.72 1038.39 573.12 1039.49 575.184C1040.64 577.248 1042.13 578.832 1043.95 579.936C1045.83 580.992 1047.79 581.52 1049.86 581.52C1051.97 581.52 1053.94 580.992 1055.76 579.936C1057.59 578.88 1059.05 577.344 1060.15 575.328C1061.31 573.264 1061.88 570.864 1061.88 568.128ZM1103.82 543.072C1102.33 543.072 1101.09 542.568 1100.08 541.56C1099.07 540.552 1098.57 539.304 1098.57 537.816C1098.57 536.328 1099.07 535.08 1100.08 534.072C1101.09 533.064 1102.33 532.56 1103.82 532.56C1105.26 532.56 1106.49 533.064 1107.49 534.072C1108.5 535.08 1109.01 536.328 1109.01 537.816C1109.01 539.304 1108.5 540.552 1107.49 541.56C1106.49 542.568 1105.26 543.072 1103.82 543.072ZM1107.85 548.328V588H1099.65V548.328H1107.85ZM1166.65 547.68C1169.77 547.68 1172.56 548.328 1175.01 549.624C1177.5 550.92 1179.45 552.84 1180.84 555.384C1182.28 557.928 1183 561 1183 564.6V588H1174.86V565.824C1174.86 562.272 1173.97 559.56 1172.2 557.688C1170.42 555.768 1168 554.808 1164.93 554.808C1161.85 554.808 1159.41 555.768 1157.58 557.688C1155.81 559.56 1154.92 562.272 1154.92 565.824V588H1146.78V565.824C1146.78 562.272 1145.89 559.56 1144.12 557.688C1142.34 555.768 1139.92 554.808 1136.85 554.808C1133.77 554.808 1131.33 555.768 1129.5 557.688C1127.73 559.56 1126.84 562.272 1126.84 565.824V588H1118.63V548.328H1126.84V552.864C1128.18 551.232 1129.89 549.96 1131.95 549.048C1134.01 548.136 1136.22 547.68 1138.57 547.68C1141.74 547.68 1144.57 548.352 1147.07 549.696C1149.57 551.04 1151.49 552.984 1152.83 555.528C1154.03 553.128 1155.9 551.232 1158.45 549.84C1160.99 548.4 1163.73 547.68 1166.65 547.68ZM1190.71 567.984C1190.71 564 1191.52 560.472 1193.15 557.4C1194.83 554.328 1197.09 551.952 1199.92 550.272C1202.8 548.544 1205.97 547.68 1209.43 547.68C1212.55 547.68 1215.26 548.304 1217.56 549.552C1219.91 550.752 1221.79 552.264 1223.18 554.088V548.328H1231.46V588H1223.18V582.096C1221.79 583.968 1219.89 585.528 1217.49 586.776C1215.09 588.024 1212.35 588.648 1209.28 588.648C1205.87 588.648 1202.75 587.784 1199.92 586.056C1197.09 584.28 1194.83 581.832 1193.15 578.712C1191.52 575.544 1190.71 571.968 1190.71 567.984ZM1223.18 568.128C1223.18 565.392 1222.6 563.016 1221.45 561C1220.35 558.984 1218.88 557.448 1217.06 556.392C1215.23 555.336 1213.27 554.808 1211.15 554.808C1209.04 554.808 1207.07 555.336 1205.25 556.392C1203.43 557.4 1201.94 558.912 1200.79 560.928C1199.68 562.896 1199.13 565.248 1199.13 567.984C1199.13 570.72 1199.68 573.12 1200.79 575.184C1201.94 577.248 1203.43 578.832 1205.25 579.936C1207.12 580.992 1209.09 581.52 1211.15 581.52C1213.27 581.52 1215.23 580.992 1217.06 579.936C1218.88 578.88 1220.35 577.344 1221.45 575.328C1222.6 573.264 1223.18 570.864 1223.18 568.128ZM1258.22 547.68C1261.3 547.68 1264.01 548.304 1266.36 549.552C1268.76 550.752 1270.63 552.264 1271.98 554.088V548.328H1280.26V588.648C1280.26 592.296 1279.49 595.536 1277.95 598.368C1276.42 601.248 1274.18 603.504 1271.26 605.136C1268.38 606.768 1264.92 607.584 1260.89 607.584C1255.51 607.584 1251.05 606.312 1247.5 603.768C1243.94 601.272 1241.93 597.864 1241.45 593.544H1249.58C1250.21 595.608 1251.53 597.264 1253.54 598.512C1255.61 599.808 1258.06 600.456 1260.89 600.456C1264.2 600.456 1266.86 599.448 1268.88 597.432C1270.94 595.416 1271.98 592.488 1271.98 588.648V582.024C1270.58 583.896 1268.69 585.48 1266.29 586.776C1263.94 588.024 1261.25 588.648 1258.22 588.648C1254.77 588.648 1251.6 587.784 1248.72 586.056C1245.89 584.28 1243.63 581.832 1241.95 578.712C1240.32 575.544 1239.5 571.968 1239.5 567.984C1239.5 564 1240.32 560.472 1241.95 557.4C1243.63 554.328 1245.89 551.952 1248.72 550.272C1251.6 548.544 1254.77 547.68 1258.22 547.68ZM1271.98 568.128C1271.98 565.392 1271.4 563.016 1270.25 561C1269.14 558.984 1267.68 557.448 1265.86 556.392C1264.03 555.336 1262.06 554.808 1259.95 554.808C1257.84 554.808 1255.87 555.336 1254.05 556.392C1252.22 557.4 1250.74 558.912 1249.58 560.928C1248.48 562.896 1247.93 565.248 1247.93 567.984C1247.93 570.72 1248.48 573.12 1249.58 575.184C1250.74 577.248 1252.22 578.832 1254.05 579.936C1255.92 580.992 1257.89 581.52 1259.95 581.52C1262.06 581.52 1264.03 580.992 1265.86 579.936C1267.68 578.88 1269.14 577.344 1270.25 575.328C1271.4 573.264 1271.98 570.864 1271.98 568.128ZM1327.4 567.192C1327.4 568.68 1327.3 570.024 1327.11 571.224H1296.8C1297.04 574.392 1298.21 576.936 1300.32 578.856C1302.44 580.776 1305.03 581.736 1308.1 581.736C1312.52 581.736 1315.64 579.888 1317.46 576.192H1326.32C1325.12 579.84 1322.93 582.84 1319.76 585.192C1316.64 587.496 1312.76 588.648 1308.1 588.648C1304.31 588.648 1300.9 587.808 1297.88 586.128C1294.9 584.4 1292.55 582 1290.82 578.928C1289.14 575.808 1288.3 572.208 1288.3 568.128C1288.3 564.048 1289.12 560.472 1290.75 557.4C1292.43 554.28 1294.76 551.88 1297.73 550.2C1300.76 548.52 1304.21 547.68 1308.1 547.68C1311.84 547.68 1315.18 548.496 1318.11 550.128C1321.04 551.76 1323.32 554.064 1324.95 557.04C1326.58 559.968 1327.4 563.352 1327.4 567.192ZM1318.83 564.6C1318.78 561.576 1317.7 559.152 1315.59 557.328C1313.48 555.504 1310.86 554.592 1307.74 554.592C1304.91 554.592 1302.48 555.504 1300.47 557.328C1298.45 559.104 1297.25 561.528 1296.87 564.6H1318.83ZM1383.5 547.68C1386.62 547.68 1389.4 548.328 1391.85 549.624C1394.35 550.92 1396.29 552.84 1397.68 555.384C1399.12 557.928 1399.84 561 1399.84 564.6V588H1391.71V565.824C1391.71 562.272 1390.82 559.56 1389.04 557.688C1387.27 555.768 1384.84 554.808 1381.77 554.808C1378.7 554.808 1376.25 555.768 1374.43 557.688C1372.65 559.56 1371.76 562.272 1371.76 565.824V588H1363.63V565.824C1363.63 562.272 1362.74 559.56 1360.96 557.688C1359.19 555.768 1356.76 554.808 1353.69 554.808C1350.62 554.808 1348.17 555.768 1346.35 557.688C1344.57 559.56 1343.68 562.272 1343.68 565.824V588H1335.47V548.328H1343.68V552.864C1345.03 551.232 1346.73 549.96 1348.79 549.048C1350.86 548.136 1353.07 547.68 1355.42 547.68C1358.59 547.68 1361.42 548.352 1363.91 549.696C1366.41 551.04 1368.33 552.984 1369.67 555.528C1370.87 553.128 1372.75 551.232 1375.29 549.84C1377.83 548.4 1380.57 547.68 1383.5 547.68Z" fill="#646464"/>
</svg>