<svg width="48" height="48" viewBox="0 0 48 48" fill="none" xmlns="http://www.w3.org/2000/svg">
<path fill-rule="evenodd" clip-rule="evenodd" d="M24.0061 18.3168C20.7421 18.3168 18.1021 20.8608 18.1021 24C18.1021 27.1392 20.7421 29.6832 24.0061 29.6832C27.2701 29.6832 29.9101 27.1392 29.9101 24C29.9101 20.8608 27.2677 18.3168 24.0061 18.3168ZM14.1637 24C14.1637 18.768 18.5701 14.5272 24.0037 14.5272C29.4421 14.5272 33.8485 18.768 33.8485 24C33.8485 29.232 29.4421 33.4728 24.0061 33.4728C18.5701 33.4728 14.1637 29.232 14.1637 24Z" fill="#515151"/>
<path fill-rule="evenodd" clip-rule="evenodd" d="M44.1613 24L44.7277 24.3168C47.8429 26.0544 48.9205 29.8848 47.1397 32.9016L43.5277 39.0168C41.7277 42.0672 37.6861 43.1208 34.5325 41.3592L34.0453 41.088V41.6832C34.0453 45.1728 31.1077 48 27.4837 48H20.3197C16.6957 48 13.7581 45.1728 13.7581 41.6832V41.1696L13.5253 41.3016C10.3669 43.1088 6.28449 42.0696 4.46769 38.9928L0.858089 32.88C-0.908311 29.8896 0.13809 26.088 3.21009 24.3288L3.78129 24L3.21009 23.6736C0.13809 21.9144 -0.908311 18.1128 0.858089 15.1224L4.46769 9.0072C6.28689 5.9328 10.3669 4.8912 13.5253 6.696L13.7581 6.828V6.3144C13.7581 2.8272 16.6957 0 20.3197 0H27.4837C31.1077 0 34.0453 2.8272 34.0453 6.3168V6.912L34.5325 6.6408C37.6861 4.8792 41.7277 5.9328 43.5277 8.9832L47.1397 15.1008C48.9205 18.1128 47.8429 21.9456 44.7277 23.6832L44.1613 24ZM40.2301 26.184C39.8354 25.972 39.5055 25.6569 39.2755 25.2723C39.0456 24.8878 38.9242 24.4481 38.9242 24C38.9242 23.5519 39.0456 23.1122 39.2755 22.7277C39.5055 22.3431 39.8354 22.028 40.2301 21.816L42.7525 20.4072C44.0005 19.7112 44.4301 18.1776 43.7173 16.9728L40.1053 10.8552C39.7429 10.2638 39.1654 9.8358 38.494 9.66125C37.8227 9.48671 37.1099 9.57917 36.5053 9.9192L34.0501 11.2896C32.2981 12.2664 30.1093 11.0496 30.1093 9.1056V6.3168C30.1093 4.92 28.9333 3.7896 27.4837 3.7896H20.3197C18.8701 3.7896 17.6965 4.92 17.6965 6.3168V9.0528C17.6965 11.0088 15.4789 12.2232 13.7293 11.2224L11.5141 9.9552C10.2517 9.2352 8.61729 9.6504 7.89009 10.8792L4.28289 16.992C4.11554 17.2772 4.00704 17.593 3.96381 17.9208C3.92058 18.2487 3.94349 18.5818 4.03119 18.9006C4.11889 19.2195 4.26961 19.5175 4.47443 19.7771C4.67925 20.0366 4.93402 20.2525 5.22369 20.412L7.69569 21.8256C8.0845 22.0396 8.40875 22.354 8.63458 22.7361C8.86041 23.1181 8.97954 23.5538 8.97954 23.9976C8.97954 24.4414 8.86041 24.8771 8.63458 25.2591C8.40875 25.6412 8.0845 25.9556 7.69569 26.1696L5.22369 27.5832C4.93402 27.7427 4.67925 27.9586 4.47443 28.2182C4.26961 28.4777 4.11889 28.7757 4.03119 29.0946C3.94349 29.4134 3.92058 29.7465 3.96381 30.0744C4.00704 30.4022 4.11554 30.718 4.28289 31.0032L7.89489 37.1184C8.61969 38.3472 10.2541 38.7648 11.5189 38.0424L13.7317 36.7752C15.4837 35.7744 17.6989 36.9888 17.6989 38.9472V41.6832C17.6989 43.0752 18.8749 44.208 20.3221 44.208H27.4861C28.9357 44.208 30.1117 43.0776 30.1117 41.6808V38.892C30.1117 36.948 32.3029 35.7312 34.0525 36.708L36.5101 38.0784C37.7701 38.784 39.3877 38.3616 40.1101 37.1424L43.7197 31.0248C43.888 30.7377 43.9967 30.4195 44.0393 30.0894C44.0818 29.7593 44.0573 29.424 43.9672 29.1036C43.8771 28.7832 43.7233 28.4842 43.515 28.2246C43.3067 27.965 43.0482 27.7501 42.7549 27.5928L40.2301 26.184Z" fill="#515151"/>
</svg>
