<svg width="48" height="48" viewBox="0 0 48 48" fill="none" xmlns="http://www.w3.org/2000/svg">
<path fill-rule="evenodd" clip-rule="evenodd" d="M24 3.6912C18.6138 3.6912 13.4481 5.83087 9.63951 9.63951C5.83087 13.4481 3.6912 18.6138 3.6912 24C3.6912 29.3862 5.83087 34.5519 9.63951 38.3605C13.4481 42.1691 18.6138 44.3088 24 44.3088C29.3862 44.3088 34.5519 42.1691 38.3605 38.3605C42.1691 34.5519 44.3088 29.3862 44.3088 24C44.3088 18.6138 42.1691 13.4481 38.3605 9.63951C34.5519 5.83087 29.3862 3.6912 24 3.6912ZM0 24C0 10.7448 10.7448 0 24 0C37.2552 0 48 10.7448 48 24C48 37.2552 37.2552 48 24 48C10.7448 48 0 37.2552 0 24Z" fill="#515151"/>
<path fill-rule="evenodd" clip-rule="evenodd" d="M24 14.7696C22.3008 14.7696 20.9232 16.1472 20.9232 17.8464C20.9321 18.0945 20.891 18.3419 20.8022 18.5738C20.7134 18.8057 20.5788 19.0173 20.4065 19.196C20.2341 19.3747 20.0275 19.5168 19.7989 19.6139C19.5704 19.711 19.3247 19.761 19.0764 19.761C18.8281 19.761 18.5824 19.711 18.3538 19.6139C18.1253 19.5168 17.9187 19.3747 17.7463 19.196C17.574 19.0173 17.4394 18.8057 17.3506 18.5738C17.2618 18.3419 17.2206 18.0945 17.2296 17.8464C17.2307 16.7953 17.4766 15.7589 17.9479 14.8193C18.4191 13.8798 19.1027 13.0629 19.9445 12.4334C20.7863 11.8039 21.7631 11.3792 22.7976 11.1928C23.8321 11.0064 24.8957 11.0636 25.9042 11.3597C26.9128 11.6558 27.8385 12.1828 28.608 12.8988C29.3775 13.6148 29.9697 14.5002 30.3376 15.4849C30.7054 16.4695 30.8389 17.5263 30.7274 18.5715C30.6159 19.6167 30.2625 20.6215 29.6952 21.5064C29.2673 22.1509 28.8058 22.7726 28.3128 23.3688L28.0656 23.676C27.684 24.1464 27.336 24.5808 27.012 25.0224C26.2152 26.1192 25.8456 26.9424 25.8456 27.6936C25.8215 28.1668 25.6165 28.6127 25.273 28.9391C24.9295 29.2654 24.4738 29.4474 24 29.4474C23.5262 29.4474 23.0705 29.2654 22.727 28.9391C22.3835 28.6127 22.1785 28.1668 22.1544 27.6936C22.1544 25.7256 23.1192 24.0984 24.0264 22.8504C24.4104 22.3224 24.8304 21.804 25.212 21.3312L25.4376 21.0552C25.8936 20.4888 26.28 19.9896 26.5896 19.5072C26.8877 19.0423 27.0551 18.5058 27.0744 17.954C27.0938 17.4021 26.9642 16.8552 26.6993 16.3707C26.4345 15.8861 26.0441 15.4818 25.5692 15.2001C25.0942 14.9184 24.5522 14.7697 24 14.7696Z" fill="#515151"/>
<path d="M26.4624 35.076C26.4624 35.3994 26.3987 35.7196 26.275 36.0184C26.1512 36.3171 25.9698 36.5886 25.7412 36.8172C25.5125 37.0459 25.2411 37.2273 24.9423 37.351C24.6436 37.4748 24.3234 37.5384 24 37.5384C23.6766 37.5384 23.3564 37.4748 23.0577 37.351C22.7589 37.2273 22.4875 37.0459 22.2588 36.8172C22.0302 36.5886 21.8488 36.3171 21.725 36.0184C21.6013 35.7196 21.5376 35.3994 21.5376 35.076C21.5376 34.423 21.797 33.7967 22.2588 33.3349C22.7206 32.8731 23.3469 32.6136 24 32.6136C24.6531 32.6136 25.2794 32.8731 25.7412 33.3349C26.203 33.7967 26.4624 34.423 26.4624 35.076Z" fill="#515151"/>
</svg>
