<svg width="49" height="49" viewBox="0 0 49 49" fill="none" xmlns="http://www.w3.org/2000/svg">
<g clip-path="url(#clip0_524_101)">
<path d="M24.2109 0.878662C10.9462 0.878662 0.210938 11.6127 0.210938 24.8787C0.210938 38.1433 10.9449 48.8787 24.2109 48.8787C37.4757 48.8787 48.2109 38.1447 48.2109 24.8787C48.2109 11.6139 37.4769 0.878662 24.2109 0.878662ZM23.5008 36.1117C22.1423 36.1117 21.0998 34.9744 21.0998 33.6791C21.0998 32.3522 22.1739 31.2466 23.5008 31.2466C24.8277 31.2466 25.9332 32.3523 25.9332 33.6792C25.9332 34.9743 24.8591 36.1117 23.5008 36.1117ZM27.1021 23.8227C25.3646 25.1811 25.3329 26.1288 25.3329 27.7715C25.3329 28.3719 25.017 29.0669 23.4691 29.0669C22.1738 29.0669 21.7316 28.5929 21.7316 26.9503C21.7316 24.2334 22.9321 22.9381 23.8482 22.1484C24.8907 21.2638 26.6599 20.2845 26.6599 18.5787C26.6599 17.1253 25.3962 16.4304 23.8166 16.4304C20.5943 16.4304 21.2894 18.863 19.5833 18.863C18.7304 18.863 17.6879 18.2942 17.6879 17.0623C17.6879 15.3564 19.6465 12.829 23.9114 12.829C27.955 12.829 30.6403 15.072 30.6403 18.0416C30.6403 21.0111 27.955 23.1593 27.1021 23.8227Z" fill="black"/>
</g>
<defs>
<clipPath id="clip0_524_101">
<rect width="48" height="48" fill="white" transform="translate(0.210938 0.878662)"/>
</clipPath>
</defs>
</svg>
