<svg xmlns="http://www.w3.org/2000/svg" version="1.1" xmlns:xlink="http://www.w3.org/1999/xlink" width="512" height="512" x="0" y="0" viewBox="0 0 24 24" style="enable-background:new 0 0 512 512" xml:space="preserve" class=""><g><g fill="#000"><path d="M8.25 7A.75.75 0 0 1 9 6.25h8a.75.75 0 0 1 0 1.5h-3.385l-1.7 8.5H15a.75.75 0 0 1 0 1.5H7a.75.75 0 0 1 0-1.5h3.385l1.7-8.5H9A.75.75 0 0 1 8.25 7z" fill="#f9f9f9" opacity="1" data-original="#F9F9F9" class=""></path><path fill-rule="evenodd" d="M16.463 2.374c-1.142-.124-2.581-.124-4.418-.124h-.09c-1.837 0-3.276 0-4.419.124-1.165.126-2.11.388-2.916.974A5.75 5.75 0 0 0 3.348 4.62c-.586.807-.848 1.75-.974 2.916-.124 1.143-.124 2.582-.124 4.419v.09c0 1.837 0 3.276.124 4.418.126 1.166.388 2.11.974 2.917a5.75 5.75 0 0 0 1.272 1.272c.807.586 1.75.848 2.916.974 1.143.124 2.582.124 4.419.124h.09c1.837 0 3.276 0 4.418-.124 1.166-.126 2.11-.388 2.917-.974a5.749 5.749 0 0 0 1.272-1.272c.586-.807.848-1.75.974-2.916.124-1.143.124-2.582.124-4.419v-.09c0-1.837 0-3.276-.124-4.419-.126-1.165-.388-2.11-.974-2.916a5.75 5.75 0 0 0-1.272-1.272c-.807-.586-1.75-.848-2.916-.974zM5.502 4.562c.508-.37 1.158-.585 2.196-.697C8.75 3.751 10.108 3.75 12 3.75s3.25.001 4.302.115c1.038.112 1.688.328 2.196.697.36.262.678.58.94.94.37.508.585 1.158.697 2.196.114 1.052.115 2.41.115 4.302s-.001 3.25-.115 4.302c-.113 1.038-.328 1.688-.697 2.196-.262.36-.58.678-.94.94-.508.37-1.158.585-2.196.697-1.052.114-2.41.115-4.302.115s-3.25-.001-4.302-.115c-1.038-.113-1.688-.328-2.196-.697a4.25 4.25 0 0 1-.94-.94c-.37-.508-.585-1.158-.697-2.196-.114-1.052-.115-2.41-.115-4.302s.001-3.25.115-4.302c.112-1.038.328-1.688.697-2.196.262-.36.58-.678.94-.94z" clip-rule="evenodd" fill="#f9f9f9" opacity="1" data-original="#F9F9F9" class=""></path></g></g></svg>