<svg xmlns="http://www.w3.org/2000/svg" version="1.1" xmlns:xlink="http://www.w3.org/1999/xlink" xmlns:svgjs="http://svgjs.com/svgjs" width="512" height="512" x="0" y="0" viewBox="0 0 351.72 351.72" style="enable-background:new 0 0 512 512" xml:space="preserve" class=""><g><path d="M286.66 0h-30.28v102.48c0 7.2-7.28 10.76-12.92 1.72l-20-32-20 32c-5.68 9-12.92 5.48-12.92-1.72V0H89.02c-24.541.066-44.4 19.979-44.4 44.52v262.8c.066 24.494 19.906 44.334 44.4 44.4H286.7a20.359 20.359 0 0 0 14.4-6 20.359 20.359 0 0 0 6-14.4V20.44C307.078 9.16 297.94.022 286.66 0zm3.8 298.92-192.88.24a8.44 8.44 0 0 0 0 16.84h192.88l-.04 15.52a3.558 3.558 0 0 1-1 2.48 3.558 3.558 0 0 1-2.48 1H89.02c-15.188 0-27.5-12.312-27.5-27.5S73.832 280 89.02 280h197.92a3.56 3.56 0 0 1 3.52 3.52v15.4z" fill="#000" data-original="#000" class=""></path></g></svg>