<svg width="39" height="48" viewBox="0 0 39 48" fill="none" xmlns="http://www.w3.org/2000/svg">
<path fill-rule="evenodd" clip-rule="evenodd" d="M6.81359 3.69123C5.10239 3.69123 3.71759 5.06883 3.71759 6.77042V41.232C3.71759 42.9312 5.10239 44.3088 6.81359 44.3088H31.584C33.2951 44.3088 34.6799 42.9312 34.6799 41.232V17.136C34.6799 16.3368 34.3679 15.5664 33.8039 14.9928L23.6592 4.62483C23.3698 4.32934 23.0245 4.09457 22.6433 3.93426C22.2621 3.77395 21.8527 3.69133 21.4392 3.69123H6.81359ZM0 6.77042C0.00283204 5.87849 0.181317 4.99584 0.525266 4.17288C0.869214 3.34992 1.37189 2.60277 2.00459 1.97408C2.63729 1.34539 3.38763 0.847476 4.21276 0.508769C5.03789 0.170062 5.92165 -0.0028066 6.81359 3.44583e-05H21.4416C23.2824 3.44583e-05 25.044 0.739233 26.328 2.04963L36.4727 12.4176C37.7076 13.6778 38.3995 15.3717 38.3999 17.136V41.232C38.3936 43.0329 37.6722 44.7576 36.3945 46.0268C35.1168 47.2959 33.3873 48.0057 31.5863 48H6.81599C5.92405 48.0031 5.04022 47.8306 4.21497 47.4921C3.38972 47.1537 2.63921 46.6561 2.00629 46.0276C1.37336 45.3991 0.870422 44.6522 0.526183 43.8293C0.181943 43.0065 0.00314616 42.1239 0 41.232V6.77042Z" fill="#515151"/>
<path fill-rule="evenodd" clip-rule="evenodd" d="M9.90958 31.3848C9.90958 32.4048 10.7424 33.2328 11.7672 33.2328H26.6328C26.8761 33.2334 27.1171 33.1861 27.3422 33.0936C27.5672 33.0011 27.7718 32.8651 27.9443 32.6935C28.1168 32.5219 28.2538 32.318 28.3475 32.0935C28.4412 31.8689 28.4897 31.6281 28.4903 31.3848C28.4897 31.1415 28.4412 30.9007 28.3475 30.6761C28.2538 30.4516 28.1168 30.2477 27.9443 30.0761C27.7718 29.9045 27.5672 29.7685 27.3422 29.676C27.1171 29.5835 26.8761 29.5362 26.6328 29.5368H11.7672C11.5239 29.5362 11.2828 29.5835 11.0578 29.676C10.8327 29.7685 10.6281 29.9045 10.4556 30.0761C10.2831 30.2477 10.1461 30.4516 10.0524 30.6761C9.95875 30.9007 9.91021 31.1415 9.90958 31.3848ZM9.90958 21.5376C9.90958 22.5576 10.7424 23.3856 11.7672 23.3856H19.2C19.4433 23.3862 19.6843 23.3389 19.9094 23.2464C20.1344 23.1539 20.339 23.0179 20.5115 22.8463C20.684 22.6747 20.821 22.4708 20.9147 22.2463C21.0084 22.0217 21.0569 21.7809 21.0576 21.5376C21.0557 21.0466 20.8589 20.5765 20.5107 20.2305C20.1624 19.8844 19.6909 19.6907 19.2 19.692H11.7672C11.5239 19.6914 11.2828 19.7387 11.0578 19.8312C10.8327 19.9237 10.6281 20.0597 10.4556 20.2313C10.2831 20.4029 10.1461 20.6068 10.0524 20.8313C9.95875 21.0559 9.91021 21.2967 9.90958 21.54V21.5376Z" fill="#515151"/>
</svg>
