<svg width="48" height="48" viewBox="0 0 48 48" fill="none" xmlns="http://www.w3.org/2000/svg">
<path fill-rule="evenodd" clip-rule="evenodd" d="M40.6152 9.42249C40.6152 5.73369 37.584 2.74329 33.8472 2.74329H24C22.98 2.74329 22.152 3.55929 22.152 4.56489C22.152 5.57049 22.98 6.38889 24 6.38889H33.8472C35.5464 6.38889 36.924 7.74729 36.924 9.42249V11.8561C36.924 12.8617 37.7496 13.6777 38.7696 13.6777C39.0108 13.6796 39.25 13.6339 39.4735 13.5432C39.697 13.4525 39.9004 13.3186 40.0721 13.1491C40.2438 12.9797 40.3803 12.7781 40.4739 12.5558C40.5675 12.3335 40.6164 12.0949 40.6176 11.8537L40.6152 9.42249ZM38.7672 34.3249C37.7496 34.3249 36.924 35.1409 36.924 36.1489V38.5753C36.924 40.2553 35.5464 41.6137 33.8472 41.6137H24C22.98 41.6137 22.152 42.4297 22.152 43.4353C22.152 44.4433 22.98 45.2593 24 45.2593H33.8472C37.584 45.2593 40.6152 42.2665 40.6152 38.5753V36.1465C40.6152 35.1409 39.7896 34.3249 38.7672 34.3249Z" fill="#515151"/>
<path fill-rule="evenodd" clip-rule="evenodd" d="M22.152 6.6865C22.152 4.5721 20.016 3.1057 18.0072 3.8401L5.7 8.3377C4.4928 8.7793 3.6912 9.9145 3.6912 11.1865V36.8137C3.6912 38.0857 4.4928 39.2209 5.7 39.6625L18.0072 44.1601C20.0184 44.8969 22.1544 43.4281 22.1544 41.3137L22.152 6.6865ZM16.728 0.422503C21.1464 -1.1951 25.848 2.0329 25.848 6.6865V41.3137C25.848 45.9673 21.1464 49.1953 16.728 47.5777L4.416 43.0801C3.12636 42.6149 2.01096 41.7644 1.22102 40.6439C0.431082 39.5234 0.00481109 38.1871 -1.90735e-06 36.8161V11.1841C0.00481109 9.81314 0.431082 8.47682 1.22102 7.35631C2.01096 6.23579 3.12636 5.38529 4.416 4.9201L16.728 0.422503ZM39.9264 17.8537C40.2746 17.512 40.743 17.3206 41.2308 17.3206C41.7186 17.3206 42.187 17.512 42.5352 17.8537L47.46 22.7113C48.18 23.4241 48.18 24.5761 47.46 25.2889L42.5352 30.1465C41.8152 30.8593 40.6464 30.8593 39.9264 30.1465C39.2064 29.4361 39.2064 28.2817 39.9264 27.5713L41.6976 25.8217H31.3848C30.3648 25.8217 29.5368 25.0057 29.5368 24.0001C29.5368 22.9945 30.3648 22.1761 31.3848 22.1761H41.6976L39.9264 20.4289C39.2064 19.7185 39.2064 18.5641 39.9264 17.8537Z" fill="#515151"/>
</svg>
