<svg width="48" height="48" viewBox="0 0 48 48" fill="none" xmlns="http://www.w3.org/2000/svg">
<path fill-rule="evenodd" clip-rule="evenodd" d="M24 18.4609C18.7296 18.4609 11.5176 18.8737 7.0848 19.1641C6.40091 19.2033 5.75292 19.483 5.25533 19.9538C4.75774 20.4246 4.4426 21.0562 4.3656 21.7369C4.044 24.6265 3.6936 28.4809 3.6936 31.3849C3.6936 34.2889 4.044 38.1433 4.3656 41.0329C4.44313 41.7131 4.7585 42.3441 5.25604 42.8144C5.75357 43.2847 6.40128 43.5641 7.0848 43.6033C11.5176 43.8961 18.7296 44.3089 24 44.3089C29.2704 44.3089 36.4848 43.8961 40.9152 43.6057C41.5991 43.5664 42.2471 43.2867 42.7447 42.8159C43.2423 42.3451 43.5574 41.7135 43.6344 41.0329C43.956 38.1433 44.3064 34.2889 44.3064 31.3849C44.3064 28.4809 43.956 24.6265 43.6344 21.7369C43.5574 21.0562 43.2423 20.4246 42.7447 19.9538C42.2471 19.483 41.5991 19.2033 40.9152 19.1641C36.4848 18.8737 29.2704 18.4609 24 18.4609ZM6.84 15.4801C11.2776 15.1921 18.6 14.7697 24 14.7697C29.4024 14.7697 36.7248 15.1897 41.16 15.4801C42.7088 15.5767 44.174 16.2163 45.2978 17.2865C46.4216 18.3568 47.1319 19.789 47.304 21.3313C47.6256 24.2353 48 28.2649 48 31.3849C48 34.5049 47.6256 38.5369 47.304 41.4409C47.1314 42.9827 46.4208 44.4144 45.2971 45.4841C44.1733 46.5538 42.7085 47.1931 41.16 47.2897C36.7224 47.5801 29.4 48.0001 24 48.0001C18.5976 48.0001 11.2752 47.5801 6.84 47.2897C5.29116 47.1931 3.82599 46.5534 2.70222 45.4832C1.57845 44.413 0.868053 42.9807 0.696 41.4385C0.3744 38.5345 0 34.5049 0 31.3825C0 28.2601 0.3744 24.2353 0.696 21.3313C0.868053 19.789 1.57845 18.3568 2.70222 17.2865C3.82599 16.2163 5.29116 15.5767 6.84 15.4801Z" fill="#515151"/>
<path fill-rule="evenodd" clip-rule="evenodd" d="M24 11.076C20.16 11.076 14.9952 11.2584 11.52 11.4C10.1136 11.4576 9.0288 12.444 8.8584 13.6896C8.7144 14.736 8.616 15.7848 8.616 16.6176C8.62495 16.8657 8.5838 17.1131 8.49502 17.3449C8.40624 17.5768 8.27164 17.7884 8.09927 17.9671C7.9269 18.1458 7.72028 18.288 7.49176 18.385C7.26323 18.4821 7.01749 18.5322 6.7692 18.5322C6.52092 18.5322 6.27517 18.4821 6.04665 18.385C5.81813 18.288 5.61151 18.1458 5.43914 17.9671C5.26676 17.7884 5.13217 17.5768 5.04338 17.3449C4.9546 17.1131 4.91346 16.8657 4.9224 16.6176C4.9224 15.5376 5.0496 14.2992 5.2008 13.1928C5.6328 10.0248 8.3256 7.83596 11.3688 7.71116C14.8488 7.56716 20.076 7.38477 24 7.38477C27.924 7.38477 33.1536 7.56716 36.6312 7.71116C39.6744 7.83596 42.3672 10.0272 42.7992 13.1928C42.9504 14.2992 43.0776 15.5376 43.0776 16.6152C43.0865 16.8633 43.0454 17.1107 42.9566 17.3425C42.8678 17.5744 42.7332 17.786 42.5609 17.9647C42.3885 18.1434 42.1819 18.2856 41.9534 18.3826C41.7248 18.4797 41.4791 18.5298 41.2308 18.5298C40.9825 18.5298 40.7368 18.4797 40.5083 18.3826C40.2797 18.2856 40.0731 18.1434 39.9007 17.9647C39.7284 17.786 39.5938 17.5744 39.505 17.3425C39.4162 17.1107 39.3751 16.8633 39.384 16.6152C39.3654 15.6358 39.2844 14.6586 39.1416 13.6896C38.9712 12.4416 37.8864 11.4576 36.48 11.4C33.0048 11.256 27.84 11.076 24 11.076Z" fill="#515151"/>
<path fill-rule="evenodd" clip-rule="evenodd" d="M24 3.6912C21.708 3.6912 18.7344 3.8208 16.3632 3.9456C14.9304 4.0224 13.824 5.0832 13.6992 6.4152C13.6032 7.4136 13.5384 8.4144 13.5384 9.2304C13.5512 9.48069 13.5129 9.73095 13.4259 9.96598C13.3389 10.201 13.205 10.4159 13.0324 10.5976C12.8598 10.7792 12.652 10.9239 12.4217 11.0227C12.1914 11.1216 11.9434 11.1726 11.6928 11.1726C11.4422 11.1726 11.1942 11.1216 10.9639 11.0227C10.7336 10.9239 10.5258 10.7792 10.3532 10.5976C10.1805 10.4159 10.0467 10.201 9.95968 9.96598C9.87269 9.73095 9.83442 9.48069 9.84719 9.2304C9.84719 8.2464 9.92399 7.1136 10.0224 6.0696C10.3272 2.82 13.0056 0.4272 16.1664 0.2592C18.552 0.132 21.6048 0 24 0C26.3952 0 29.4504 0.132 31.8336 0.2592C34.9944 0.4272 37.6728 2.82 37.9776 6.0672C38.0736 7.1136 38.1528 8.2464 38.1528 9.2304C38.1656 9.48069 38.1273 9.73095 38.0403 9.96598C37.9533 10.201 37.8194 10.4159 37.6468 10.5976C37.4742 10.7792 37.2664 10.9239 37.0361 11.0227C36.8058 11.1216 36.5578 11.1726 36.3072 11.1726C36.0566 11.1726 35.8086 11.1216 35.5783 11.0227C35.348 10.9239 35.1402 10.7792 34.9676 10.5976C34.7949 10.4159 34.6611 10.201 34.5741 9.96598C34.4871 9.73095 34.4488 9.48069 34.4616 9.2304C34.4616 8.4144 34.3944 7.4136 34.3008 6.4152C34.176 5.0832 33.0696 4.0224 31.6368 3.9456C29.0936 3.79913 26.5473 3.71431 24 3.6912ZM30.4008 27.816C30.6941 28.2079 30.8199 28.7002 30.7506 29.1848C30.6813 29.6695 30.4226 30.1068 30.0312 30.4008L23.4672 35.3208C23.1475 35.5601 22.7589 35.6895 22.3596 35.6895C21.9602 35.6895 21.5717 35.5601 21.252 35.3208L17.9688 32.8608C17.7603 32.7211 17.5824 32.5404 17.446 32.3297C17.3096 32.1189 17.2176 31.8827 17.1755 31.6352C17.1335 31.3878 17.1423 31.1343 17.2014 30.8904C17.2605 30.6465 17.3686 30.4171 17.5193 30.2163C17.6699 30.0156 17.8599 29.8476 18.0776 29.7227C18.2953 29.5978 18.5362 29.5185 18.7855 29.4897C19.0349 29.4609 19.2875 29.4833 19.5279 29.5553C19.7683 29.6274 19.9916 29.7476 20.184 29.9088L22.3584 31.5384L27.816 27.4464C28.2079 27.1531 28.7002 27.0273 29.1848 27.0966C29.6694 27.1659 30.1068 27.4246 30.4008 27.816Z" fill="#515151"/>
</svg>
