<svg width="39" height="48" viewBox="0 0 39 48" fill="none" xmlns="http://www.w3.org/2000/svg">
<path fill-rule="evenodd" clip-rule="evenodd" d="M19.0769 3.69231C14.4812 3.69231 10.8726 7.26892 10.8726 11.5397C10.8726 15.8105 14.4812 19.3846 19.0769 19.3846C23.6726 19.3846 27.2812 15.808 27.2812 11.5372C27.2812 7.26646 23.6726 3.69231 19.0769 3.69231ZM7.18031 11.5397C7.18031 5.10277 12.5711 0 19.0769 0C25.5828 0 30.9735 5.10277 30.9735 11.5397C30.9735 17.9766 25.5828 23.0769 19.0769 23.0769C12.5711 23.0769 7.18031 17.9742 7.18031 11.5372V11.5397ZM25.6418 31.3058C21.2954 30.5889 16.8609 30.5889 12.5145 31.3058L12.0025 31.392C7.25908 32.1723 3.69231 36.4258 3.69231 41.5065C3.69231 43.1089 4.93539 44.3077 6.34585 44.3077H31.808C33.2185 44.3077 34.4615 43.1089 34.4615 41.504C34.4615 36.4258 30.8948 32.1748 26.1514 31.392L25.6418 31.3058ZM26.24 27.6628L26.752 27.7489C33.3637 28.8394 38.1539 34.7052 38.1539 41.5065C38.1539 45.0363 35.3699 48 31.808 48H6.34585C2.784 48 0 45.0363 0 41.504C0 34.7052 4.79015 28.8369 11.4018 27.7489L11.9138 27.6628C16.6572 26.8804 21.4967 26.8804 26.24 27.6628Z" fill="#515151"/>
</svg>
