<svg xmlns="http://www.w3.org/2000/svg" version="1.1" xmlns:xlink="http://www.w3.org/1999/xlink" width="512" height="512" x="0" y="0" viewBox="0 0 24 24" style="enable-background:new 0 0 512 512" xml:space="preserve" class=""><g><path fill="#f9f9f9" fill-rule="evenodd" d="M5.25 9a6.75 6.75 0 0 1 13.5 0v7a.75.75 0 0 1-1.5 0V9a5.25 5.25 0 1 0-10.5 0v8a3.25 3.25 0 0 0 6.5 0v-7a1.25 1.25 0 1 0-2.5 0v6a.75.75 0 0 1-1.5 0v-6a2.75 2.75 0 1 1 5.5 0v7a4.75 4.75 0 1 1-9.5 0z" clip-rule="evenodd" opacity="1" data-original="#F9F9F9" class=""></path></g></svg>