<svg xmlns="http://www.w3.org/2000/svg" version="1.1" xmlns:xlink="http://www.w3.org/1999/xlink" width="512" height="512" x="0" y="0" viewBox="0 0 24 24" style="enable-background:new 0 0 512 512" xml:space="preserve" class=""><g><g fill="#000"><path d="M8.923 7.897a1.026 1.026 0 1 1-2.051 0 1.026 1.026 0 0 1 2.051 0z" fill="#f9f9f9" opacity="1" data-original="#F9F9F9" class=""></path><path fill-rule="evenodd" d="M12 3.538c-2.17 0-5.134.2-6.985.343a1.228 1.228 0 0 0-1.134 1.134C3.738 6.866 3.538 9.831 3.538 12c0 1.74.128 3.99.253 5.769l6.937-5.55a4.872 4.872 0 0 1 6.214.105l3.42 2.933c.059-1.13.1-2.275.1-3.257 0-2.17-.2-5.134-.343-6.985a1.228 1.228 0 0 0-1.134-1.134c-1.851-.143-4.816-.343-6.985-.343zm9.81 13.355c.101-1.598.19-3.416.19-4.893 0-2.235-.204-5.252-.347-7.104a2.767 2.767 0 0 0-2.55-2.549C17.253 2.204 14.235 2 12 2c-2.235 0-5.252.204-7.104.347a2.767 2.767 0 0 0-2.549 2.55C2.204 6.747 2 9.764 2 12c0 2.235.204 5.252.347 7.104a2.767 2.767 0 0 0 2.55 2.549C6.747 21.796 9.764 22 12 22c2.235 0 5.252-.204 7.104-.347a2.767 2.767 0 0 0 2.549-2.55c.048-.623.104-1.38.155-2.195l.001-.015zm-1.561.292-4.308-3.692a3.333 3.333 0 0 0-4.252-.072l-7.603 6.082a.74.74 0 0 1-.032.025c.2.331.55.56.96.591 1.852.143 4.817.342 6.986.342 2.17 0 5.134-.198 6.985-.342a1.229 1.229 0 0 0 1.134-1.134c.04-.525.086-1.14.13-1.8z" clip-rule="evenodd" fill="#f9f9f9" opacity="1" data-original="#F9F9F9" class=""></path></g></g></svg>