<svg xmlns="http://www.w3.org/2000/svg" version="1.1" xmlns:xlink="http://www.w3.org/1999/xlink" xmlns:svgjs="http://svgjs.com/svgjs" width="512" height="512" x="0" y="0" viewBox="0 0 60 56" style="enable-background:new 0 0 512 512" xml:space="preserve" class=""><g><path fill="#000000" fill-rule="nonzero" d="M56.038 6H57a3 3 0 0 0 0-6H10a9.987 9.987 0 0 0-5.974 18H3a3 3 0 0 0 0 6h.957C4.263 24.158 5 25.541 5 28c0 2.484-.754 3.875-1 4H3a3 3 0 0 0 0 6h1.026A9.987 9.987 0 0 0 10 56h47a3 3 0 0 0 0-6h-.957C55.737 49.842 55 48.459 55 46c0-2.44.727-3.824 1.038-4H57a3 3 0 0 0 0-6h-1.026a9.961 9.961 0 0 0 0-16H57a3 3 0 0 0 0-6h-.957C55.737 13.842 55 12.459 55 10c0-2.44.727-3.824 1.038-4zM2 10a8.009 8.009 0 0 1 8-8h47a1 1 0 0 1 0 2H10a6 6 0 0 0 0 12h22v2H10a8.009 8.009 0 0 1-8-8zm42 5.006V22.982a.042.042 0 0 0 0 .036V24l-4.1-2.054a2.012 2.012 0 0 0-1.79 0L34 24V11h10zM2 21a1 1 0 0 1 1-1h29v2H3a1 1 0 0 1-1-1zm4.306 3H32a2 2 0 0 0 2.9 1.788l4.1-2.053 4.1 2.053A2 2 0 0 0 46 24h4a4 4 0 1 1 0 8H26v-3a2 2 0 0 0-2-2H14a2 2 0 0 0-2 2v3H6.306c.48-1.278.716-2.635.694-4a10.864 10.864 0 0 0-.694-4zM24 45l-4.1-2.054a2.012 2.012 0 0 0-1.79 0L14 45V29h10v12.015zM3 36a1 1 0 0 1 0-2h9v2zm55 17a1 1 0 0 1-1 1H10a8 8 0 1 1 0-16h2v2h-2a6 6 0 1 0 0 12h47a1 1 0 0 1 1 1zm-4.306-3H10a4 4 0 1 1 0-8h2v3a2 2 0 0 0 2.9 1.788l4.1-2.053 4.105 2.053c.62.311 1.357.278 1.947-.088.591-.362.95-1.007.948-1.7v-3h27.694a11.874 11.874 0 0 0 0 8zM57 38a1 1 0 0 1 0 2H26v-2zm1-10a8.009 8.009 0 0 1-8 8H26v-2h24a6 6 0 1 0 0-12h-4v-2h4a8.009 8.009 0 0 1 8 8zm0-11a1 1 0 0 1-1 1H46v-2h11a1 1 0 0 1 1 1zm-12-3v-3a2 2 0 0 0-2-2H34a2 2 0 0 0-2 2v3H10a4 4 0 1 1 0-8h43.694A10.864 10.864 0 0 0 53 10a10.864 10.864 0 0 0 .694 4z" data-original="#000000" class=""></path></g></svg>