<svg width="310" height="330" viewBox="0 0 310 330" fill="none" xmlns="http://www.w3.org/2000/svg">
<path d="M156.445 298.255C235.728 298.255 300 238.642 300 165.105C300 91.5691 235.728 31.9562 156.445 31.9562C77.1622 31.9562 12.8906 91.5691 12.8906 165.105C12.8906 238.642 77.1622 298.255 156.445 298.255Z" fill="#131313" fill-opacity="0.15"/>
<path d="M141.597 151.332C152.689 141.045 167.435 135.38 183.118 135.38C193.804 135.38 204.051 138.012 213.006 142.94V49.2184H0V221.448C0 224.437 2.63672 226.883 5.85938 226.883H140.077C118.719 205.554 119.224 172.085 141.597 151.332Z" fill="#131313" fill-opacity="0.15"/>
<path d="M13.2891 221.448V49.2184H0V221.448C0 224.437 2.63672 226.883 5.85938 226.883H19.1484C15.9258 226.883 13.2891 224.437 13.2891 221.448Z" fill="#131313" fill-opacity="0.15"/>
<path d="M209.657 20H3.34922C1.50703 20 0 21.3978 0 23.1065V50.7591H213.006V23.1065C213.006 21.3978 211.499 20 209.657 20Z" fill="#131313" fill-opacity="0.15"/>
<path d="M16.6383 20H3.34922C1.50703 20 0 21.3978 0 23.1065V50.7591H13.2891V23.1065C13.2891 21.3978 14.7961 20 16.6383 20Z" fill="#131313" fill-opacity="0.15"/>
<path d="M92.7303 117.071C92.7303 118.566 91.4119 119.788 89.8006 119.788H24.502C22.8906 119.788 21.5723 118.566 21.5723 117.071V73.6379C21.5723 72.1433 22.8906 70.9205 24.502 70.9205H89.8C91.4113 70.9205 92.7297 72.1433 92.7297 73.6379L92.7303 117.071Z" fill="#131313" fill-opacity="0.15"/>
<path d="M34.8613 117.071V73.6379C34.8613 72.1433 36.1797 70.9205 37.791 70.9205H24.502C22.8906 70.9205 21.5723 72.1433 21.5723 73.6379V117.071C21.5723 118.566 22.8906 119.788 24.502 119.788H37.791C36.1797 119.788 34.8613 118.566 34.8613 117.071Z" fill="#131313" fill-opacity="0.15"/>
<path d="M127.236 173.142H24.502C22.8906 173.142 21.5723 174.365 21.5723 175.86V201.842C21.5723 203.337 22.8906 204.56 24.502 204.56H126.599C123.508 194.283 123.719 183.325 127.236 173.142Z" fill="#131313" fill-opacity="0.15"/>
<path d="M34.8613 201.842V175.86C34.8613 174.365 36.1797 173.142 37.791 173.142H24.502C22.8906 173.142 21.5723 174.365 21.5723 175.86V201.842C21.5723 203.337 22.8906 204.56 24.502 204.56H37.791C36.1797 204.56 34.8613 203.337 34.8613 201.842Z" fill="#131313" fill-opacity="0.15"/>
<path d="M127.236 173.142H105.967V204.56H126.599C123.508 194.283 123.718 183.325 127.236 173.142Z" fill="#131313" fill-opacity="0.15"/>
<path d="M187.942 74.9966H116.113C114.947 74.9966 113.829 74.5672 113.005 73.8028C112.181 73.0384 111.718 72.0016 111.718 70.9206C111.718 69.8396 112.181 68.8028 113.005 68.0384C113.829 67.274 114.947 66.8446 116.113 66.8446H187.942C190.37 66.8446 192.337 68.6696 192.337 70.9206C192.337 73.1716 190.37 74.9966 187.942 74.9966ZM187.942 91.2859H116.113C114.947 91.2859 113.829 90.8565 113.005 90.0921C112.181 89.3277 111.718 88.2909 111.718 87.2099C111.718 86.1289 112.181 85.0921 113.005 84.3277C113.829 83.5634 114.947 83.1339 116.113 83.1339H187.942C189.108 83.1339 190.225 83.5634 191.05 84.3277C191.874 85.0921 192.337 86.1289 192.337 87.2099C192.337 88.2909 191.874 89.3277 191.05 90.0921C190.225 90.8565 189.108 91.2859 187.942 91.2859ZM187.942 107.575H116.113C114.947 107.575 113.829 107.146 113.005 106.381C112.181 105.617 111.718 104.58 111.718 103.499C111.718 102.418 112.181 101.381 113.005 100.617C113.829 99.8527 114.947 99.4232 116.113 99.4232H187.942C190.37 99.4232 192.337 101.248 192.337 103.499C192.337 105.75 190.37 107.575 187.942 107.575ZM187.942 123.865H116.113C114.947 123.865 113.829 123.435 113.005 122.671C112.181 121.906 111.718 120.87 111.718 119.789C111.718 118.708 112.181 117.671 113.005 116.906C113.829 116.142 114.947 115.713 116.113 115.713H187.942C190.37 115.713 192.337 117.537 192.337 119.789C192.337 122.04 190.37 123.865 187.942 123.865ZM175.465 135.839H21.5723C19.1447 135.839 17.1777 137.664 17.1777 139.915C17.1777 142.166 19.1447 143.991 21.5723 143.991H151.401C158.668 139.646 166.889 136.861 175.465 135.839ZM140.456 152.422H21.5723C19.1447 152.422 17.1777 154.247 17.1777 156.498C17.1777 158.749 19.1447 160.574 21.5723 160.574H133.596C135.598 157.661 137.895 154.931 140.456 152.422Z" fill="#131313" fill-opacity="0.15"/>
<path d="M20.4463 38.8093C19.2867 38.8093 18.1553 38.3746 17.335 37.6186C16.5158 36.8502 16.0549 35.814 16.0518 34.7333C16.0518 33.6622 16.5205 32.6138 17.335 31.853C18.1616 31.0895 19.2798 30.6598 20.4463 30.6573C21.6012 30.6573 22.7373 31.0916 23.5518 31.853C24.3721 32.6138 24.8408 33.6627 24.8408 34.7333C24.8408 35.8089 24.3721 36.8583 23.5518 37.6186C22.7255 38.3786 21.6099 38.8063 20.4463 38.8093Z" fill="#131313" fill-opacity="0.15"/>
<path d="M34.8574 38.8093C33.6925 38.8075 32.5759 38.3774 31.7522 37.6134C30.9285 36.8495 30.4649 35.8138 30.4629 34.7333C30.4629 33.6622 30.9316 32.6138 31.7514 31.853C32.5717 31.0921 33.7025 30.6573 34.8574 30.6573C36.0239 30.6598 37.1422 31.0895 37.9688 31.853C38.7832 32.6138 39.252 33.6627 39.252 34.7333C39.252 35.804 38.7826 36.8583 37.9688 37.6132C37.1423 38.3768 36.024 38.8067 34.8574 38.8093Z" fill="#131313" fill-opacity="0.15"/>
<path d="M49.2744 38.8093C48.1143 38.8093 46.9834 38.3746 46.1689 37.6186C45.346 36.8521 44.8827 35.8151 44.8799 34.7333C44.8814 33.6528 45.3449 32.6169 46.1687 31.8528C46.9925 31.0887 48.1094 30.6588 49.2744 30.6573C50.4287 30.6573 51.5654 31.0916 52.3799 31.853C53.2002 32.6138 53.6689 33.6627 53.6689 34.7333C53.6689 35.8089 53.2002 36.8583 52.3799 37.6186C51.5529 38.3776 50.4378 38.8052 49.2744 38.8093Z" fill="#131313" fill-opacity="0.15"/>
<path d="M240.099 231.521L228.055 242.692L251.748 264.668C255.996 261.167 260.018 257.437 263.793 253.497L240.099 231.521Z" fill="#131313" fill-opacity="0.15"/>
<path d="M244.88 224.784L234.898 215.527C232.179 220.248 228.721 224.571 224.637 228.353C220.497 232.193 215.847 235.388 210.829 237.886L220.792 247.126C221.931 248.183 223.795 248.183 224.935 247.126L244.88 228.627C246.019 227.57 246.019 225.841 244.88 224.784Z" fill="#131313" fill-opacity="0.15"/>
<path d="M227.627 240.785L219.107 232.883C216.505 234.764 213.735 236.437 210.828 237.885L220.791 247.125C221.93 248.182 223.794 248.182 224.934 247.125L231.77 240.785C231.22 241.293 230.475 241.578 229.699 241.578C228.922 241.578 228.177 241.293 227.627 240.785Z" fill="#131313" fill-opacity="0.15"/>
<path d="M225.466 150.563C248.854 172.256 248.854 207.428 225.466 229.121C202.078 250.813 164.158 250.813 140.768 229.121C117.38 207.428 117.381 172.256 140.768 150.563C164.158 128.87 202.078 128.869 225.466 150.563Z" fill="#131313" fill-opacity="0.15"/>
<path d="M212.811 217.382C196.413 232.592 169.825 232.592 153.425 217.381C137.027 202.173 137.026 177.511 153.425 162.301C169.823 147.092 196.412 147.092 212.81 162.301C229.209 177.512 229.209 202.172 212.811 217.382Z" fill="#131313" fill-opacity="0.15"/>
<path d="M212.811 217.382C214.281 216.017 215.641 214.554 216.879 213.004C200.44 224.311 177.12 223.055 162.214 209.229C147.309 195.405 145.955 173.775 158.145 158.528C156.474 159.676 154.896 160.938 153.425 162.301C137.026 177.511 137.027 202.172 153.425 217.381C169.825 232.592 196.413 232.592 212.811 217.382Z" fill="#131313" fill-opacity="0.15"/>
<path d="M209.657 20H67.917V50.7591H213.006V23.1065C213.006 21.3978 211.499 20 209.657 20Z" fill="#131313" fill-opacity="0.15"/>
<path d="M190.33 170.285C194.213 170.285 197.361 167.365 197.361 163.763C197.361 160.161 194.213 157.242 190.33 157.242C186.447 157.242 183.299 160.161 183.299 163.763C183.299 167.365 186.447 170.285 190.33 170.285Z" fill="#131313" fill-opacity="0.15"/>
<path d="M205.102 175.16C207.852 175.16 210.082 173.091 210.082 170.54C210.082 167.989 207.852 165.921 205.102 165.921C202.351 165.921 200.121 167.989 200.121 170.54C200.121 173.091 202.351 175.16 205.102 175.16Z" fill="#131313" fill-opacity="0.15"/>
<g clip-path="url(#clip0_729_555)">
<path d="M165.528 300C244.811 300 309.083 235.728 309.083 156.445C309.083 77.1622 244.811 12.8906 165.528 12.8906C86.2453 12.8906 21.9736 77.1622 21.9736 156.445C21.9736 235.728 86.2453 300 165.528 300Z" fill="#00406E"/>
<path d="M150.68 141.595C161.772 130.505 176.518 124.397 192.201 124.397C202.887 124.397 213.134 127.234 222.089 132.548V31.5017H9.08301V217.191C9.08301 220.414 11.7197 223.051 14.9424 223.051H149.16C127.802 200.054 128.307 163.97 150.68 141.595Z" fill="#DCEBF2"/>
<path d="M22.3721 217.191V31.5017H9.08301V217.191C9.08301 220.414 11.7197 223.051 14.9424 223.051H28.2314C25.0088 223.051 22.3721 220.414 22.3721 217.191Z" fill="#A8CEDE"/>
<path d="M218.74 0H12.4322C10.59 0 9.08301 1.50703 9.08301 3.34922V33.1629H222.089V3.34922C222.089 1.50703 220.582 0 218.74 0Z" fill="#00406E"/>
<path d="M25.7213 0H12.4322C10.59 0 9.08301 1.50703 9.08301 3.34922V33.1629H22.3721V3.34922C22.3721 1.50703 23.8791 0 25.7213 0Z" fill="#002558"/>
<path d="M101.813 104.657C101.813 106.269 100.495 107.587 98.8836 107.587H33.585C31.9736 107.587 30.6553 106.269 30.6553 104.657V57.8297C30.6553 56.2184 31.9736 54.9 33.585 54.9H98.883C100.494 54.9 101.813 56.2184 101.813 57.8297L101.813 104.657Z" fill="#00406E"/>
<path d="M43.9443 104.657V57.8297C43.9443 56.2184 45.2627 54.9 46.874 54.9H33.585C31.9736 54.9 30.6553 56.2184 30.6553 57.8297V104.657C30.6553 106.269 31.9736 107.587 33.585 107.587H46.874C45.2627 107.587 43.9443 106.269 43.9443 104.657Z" fill="#00406E"/>
<path d="M136.319 165.11H33.585C31.9736 165.11 30.6553 166.428 30.6553 168.04V196.053C30.6553 197.664 31.9736 198.983 33.585 198.983H135.682C132.591 187.903 132.802 176.088 136.319 165.11Z" fill="#A8CEDE"/>
<path d="M43.9443 196.053V168.04C43.9443 166.428 45.2627 165.11 46.874 165.11H33.585C31.9736 165.11 30.6553 166.428 30.6553 168.04V196.053C30.6553 197.664 31.9736 198.983 33.585 198.983H46.874C45.2627 198.983 43.9443 197.664 43.9443 196.053Z" fill="#00406E"/>
<path d="M136.319 165.11H115.05V198.983H135.682C132.591 187.903 132.801 176.088 136.319 165.11Z" fill="#A8CEDE"/>
<path d="M197.025 59.2946H125.196C124.03 59.2946 122.912 58.8316 122.088 58.0074C121.264 57.1833 120.801 56.0655 120.801 54.9C120.801 53.7345 121.264 52.6168 122.088 51.7926C122.912 50.9685 124.03 50.5055 125.196 50.5055H197.025C199.453 50.5055 201.42 52.4731 201.42 54.9C201.42 57.327 199.453 59.2946 197.025 59.2946ZM197.025 76.8569H125.196C124.03 76.8569 122.912 76.3939 122.088 75.5697C121.264 74.7456 120.801 73.6278 120.801 72.4623C120.801 71.2968 121.264 70.1791 122.088 69.3549C122.912 68.5308 124.03 68.0678 125.196 68.0678H197.025C198.191 68.0678 199.308 68.5308 200.133 69.3549C200.957 70.1791 201.42 71.2968 201.42 72.4623C201.42 73.6278 200.957 74.7456 200.133 75.5697C199.308 76.3939 198.191 76.8569 197.025 76.8569ZM197.025 94.4192H125.196C124.03 94.4192 122.912 93.9562 122.088 93.132C121.264 92.3079 120.801 91.1901 120.801 90.0246C120.801 88.8591 121.264 87.7414 122.088 86.9172C122.912 86.0931 124.03 85.6301 125.196 85.6301H197.025C199.453 85.6301 201.42 87.5977 201.42 90.0246C201.42 92.4516 199.453 94.4192 197.025 94.4192ZM197.025 111.981H125.196C124.03 111.981 122.912 111.518 122.088 110.694C121.264 109.87 120.801 108.752 120.801 107.587C120.801 106.421 121.264 105.304 122.088 104.48C122.912 103.655 124.03 103.192 125.196 103.192H197.025C199.453 103.192 201.42 105.16 201.42 107.587C201.42 110.014 199.453 111.981 197.025 111.981ZM184.548 124.891H30.6553C28.2277 124.891 26.2607 126.859 26.2607 129.286C26.2607 131.713 28.2277 133.68 30.6553 133.68H160.484C167.751 128.997 175.972 125.994 184.548 124.891ZM149.539 142.771H30.6553C28.2277 142.771 26.2607 144.738 26.2607 147.165C26.2607 149.592 28.2277 151.56 30.6553 151.56H142.679C144.681 148.419 146.978 145.476 149.539 142.771Z" fill="#00406E"/>
<path d="M29.5293 20.2793C28.3697 20.2793 27.2383 19.8105 26.418 18.9955C25.5988 18.167 25.1379 17.0499 25.1348 15.8848C25.1348 14.7299 25.6035 13.5996 26.418 12.7793C27.2446 11.9562 28.3628 11.4929 29.5293 11.4902C30.6842 11.4902 31.8203 11.9584 32.6348 12.7793C33.4551 13.5996 33.9238 14.7305 33.9238 15.8848C33.9238 17.0443 33.4551 18.1758 32.6348 18.9955C31.8085 19.8149 30.6929 20.276 29.5293 20.2793Z" fill="#F18EA8"/>
<path d="M43.9404 20.2793C42.7755 20.2773 41.6589 19.8136 40.8352 18.9899C40.0116 18.1662 39.5479 17.0496 39.5459 15.8848C39.5459 14.7299 40.0146 13.5996 40.8344 12.7793C41.6547 11.959 42.7855 11.4902 43.9404 11.4902C45.1069 11.4929 46.2252 11.9562 47.0518 12.7793C47.8662 13.5996 48.335 14.7305 48.335 15.8848C48.335 17.0391 47.8656 18.1758 47.0518 18.9896C46.2253 19.813 45.107 20.2765 43.9404 20.2793Z" fill="#A8CEDE"/>
<path d="M58.3574 20.2793C57.1973 20.2793 56.0664 19.8105 55.252 18.9955C54.429 18.1691 53.9657 17.0511 53.9629 15.8848C53.9644 14.7197 54.4279 13.6029 55.2517 12.7791C56.0755 11.9553 57.1924 11.4918 58.3574 11.4902C59.5117 11.4902 60.6484 11.9584 61.4629 12.7793C62.2832 13.5996 62.752 14.7305 62.752 15.8848C62.752 17.0443 62.2832 18.1758 61.4629 18.9955C60.6359 19.8138 59.5208 20.2748 58.3574 20.2793Z" fill="#92F7A8"/>
<path d="M249.182 228.051L237.138 240.096L260.831 263.789C265.079 260.015 269.101 255.993 272.876 251.745L249.182 228.051Z" fill="#92F7A8"/>
<path d="M253.963 220.788L243.981 210.807C241.262 215.897 237.804 220.557 233.72 224.636C229.58 228.776 224.93 232.221 219.912 234.914L229.875 244.876C231.014 246.015 232.878 246.015 234.018 244.876L253.963 224.931C255.102 223.792 255.102 221.927 253.963 220.788Z" fill="#4EF480"/>
<path d="M236.71 238.039L228.19 229.52C225.588 231.548 222.818 233.352 219.911 234.913L229.874 244.875C231.013 246.015 232.877 246.015 234.017 244.875L240.853 238.039C240.303 238.586 239.558 238.894 238.782 238.894C238.005 238.894 237.26 238.587 236.71 238.039Z" fill="#00EE5D"/>
<path d="M234.549 140.766C257.937 164.154 257.937 202.075 234.549 225.464C211.161 248.851 173.241 248.851 149.851 225.463C126.463 202.075 126.464 164.154 149.851 140.767C173.241 117.378 211.161 117.377 234.549 140.766Z" fill="#4EF480"/>
<path d="M221.894 212.807C205.496 229.206 178.908 229.206 162.508 212.806C146.11 196.409 146.109 169.82 162.508 153.422C178.906 137.024 205.495 137.024 221.893 153.422C238.292 169.821 238.292 196.409 221.894 212.807Z" fill="#DCEBF2"/>
<path d="M221.894 212.807C223.364 211.336 224.724 209.758 225.962 208.087C209.523 220.277 186.203 218.923 171.297 204.017C156.392 189.113 155.038 165.792 167.228 149.354C165.557 150.592 163.979 151.952 162.508 153.422C146.109 169.821 146.11 196.409 162.508 212.806C178.908 229.206 205.496 229.206 221.894 212.807Z" fill="#A8CEDE"/>
<path d="M218.74 0H77V33.1629H222.089V3.34922C222.089 1.50703 220.582 0 218.74 0Z" fill="#00406E"/>
<path d="M199.413 162.029C203.296 162.029 206.444 158.881 206.444 154.998C206.444 151.115 203.296 147.967 199.413 147.967C195.53 147.967 192.382 151.115 192.382 154.998C192.382 158.881 195.53 162.029 199.413 162.029Z" fill="#F7F7F7"/>
<path d="M214.185 167.285C216.935 167.285 219.165 165.055 219.165 162.305C219.165 159.554 216.935 157.324 214.185 157.324C211.434 157.324 209.204 159.554 209.204 162.305C209.204 165.055 211.434 167.285 214.185 167.285Z" fill="#F7F7F7"/>
</g>
<defs>
<clipPath id="clip0_729_555">
<rect width="300" height="300" fill="white" transform="translate(9.08301)"/>
</clipPath>
</defs>
</svg>
