<svg xmlns="http://www.w3.org/2000/svg" width="352" height="291" viewBox="0 0 352 291" version="1.1"><path d="M 103.078 20.922 C 101.997 22.003, 100.843 24.376, 100.514 26.194 C 100.185 28.012, 100.047 71.052, 100.208 121.839 L 100.500 214.177 102.861 216.089 C 105.139 217.933, 107.900 218, 182.156 218 L 259.091 218 261.545 215.545 C 264.417 212.674, 264.884 206.979, 262.416 204.930 C 260.264 203.144, 257.597 204.888, 257.184 208.351 L 256.867 211 181.934 211 L 107 211 107 118.500 L 107 26 163.930 26 L 220.859 26 221.180 41.398 C 221.611 62.131, 220.458 61, 241.155 61 L 257 61 257 73.031 C 257 83.248, 257.247 85.157, 258.636 85.691 C 259.536 86.036, 260.998 85.858, 261.886 85.296 C 263.242 84.437, 263.500 82.098, 263.500 70.638 L 263.500 57.002 244.747 38.251 L 225.994 19.500 165.520 19.227 C 106.528 18.961, 104.997 19.003, 103.078 20.922 M 5.381 26.910 C 3.665 27.956, 1.753 30.271, 1.131 32.055 C 0.314 34.399, -0 69.372, 0 158.181 C 0 290.592, -0.193 285.650, 5.117 289.369 C 7.244 290.859, 20.256 291, 155.707 291 L 303.968 291 307.234 288.084 C 310.479 285.187, 310.502 285.099, 310.841 274.595 L 311.181 264.021 175.613 263.761 L 40.045 263.500 37.273 260.727 L 34.500 257.955 34.238 141.477 L 33.975 25 21.238 25.004 C 10.483 25.007, 8.014 25.304, 5.381 26.910 M 228 43 L 228 55 240.234 55 L 252.469 55 240.500 43 C 233.917 36.400, 228.412 31, 228.266 31 C 228.120 31, 228 36.400, 228 43 M 129.678 62.656 C 128.322 64.012, 129.048 66.956, 130.996 67.998 C 132.342 68.718, 145.846 68.974, 172.447 68.783 C 213.909 68.486, 215.916 68.262, 213.369 64.222 C 212.374 62.645, 208.826 62.478, 171.319 62.239 C 148.789 62.096, 130.050 62.283, 129.678 62.656 M 202 77.500 C 182.644 81.891, 166.892 96.167, 160.273 115.319 C 155.540 129.012, 156.980 145.089, 164.225 159.448 C 168.239 167.404, 179.596 178.761, 187.552 182.775 C 201.938 190.034, 217.210 191.370, 231.328 186.604 C 238.855 184.063, 248.984 178.454, 250.513 175.978 C 250.997 175.195, 254.074 177.603, 259.538 183.037 C 267.020 190.481, 267.726 191.507, 266.787 193.568 C 266.214 194.825, 266.011 196.898, 266.335 198.176 C 266.658 199.454, 277.200 210.738, 289.761 223.250 C 312.410 245.811, 312.635 246, 316.877 246 C 323.102 246, 327 241.937, 327 235.447 L 327 230.740 304.193 207.870 C 284.708 188.331, 280.957 185.002, 278.443 185.015 C 276.824 185.024, 274.839 185.449, 274.031 185.959 C 272.917 186.664, 270.685 184.990, 264.781 179.023 C 260.502 174.697, 257 170.957, 257 170.711 C 257 170.466, 258.925 167.393, 261.278 163.882 C 269.424 151.731, 272.550 136.007, 269.605 122 C 264.179 96.193, 242.803 77.678, 217 76.435 C 211.657 76.177, 206.085 76.573, 202 77.500 M 129.370 81.479 C 129.049 82.316, 129.049 83.684, 129.370 84.521 C 129.870 85.825, 132.837 86.003, 150.227 85.771 L 170.500 85.500 170.500 83 L 170.500 80.500 150.227 80.229 C 132.837 79.997, 129.870 80.175, 129.370 81.479 M 201.112 84.581 C 177.257 90.996, 161.183 115.209, 164.677 139.463 C 169.196 170.829, 201.620 190.654, 230.725 179.846 C 265.493 166.935, 275.278 123.670, 249.304 97.696 C 236.802 85.193, 217.931 80.058, 201.112 84.581 M 206.594 91.057 C 194.261 93.123, 181.677 102.816, 175.781 114.792 C 173.053 120.334, 172.522 122.643, 172.188 130.398 C 171.868 137.834, 172.196 140.683, 173.979 145.960 C 176.624 153.786, 179.467 158, 182.099 158 C 185.265 158, 185.446 155.235, 182.644 149.686 C 178.682 141.841, 177.476 134.351, 178.954 126.770 C 181.301 114.729, 188.600 105.422, 199.825 100.160 C 204.575 97.934, 206.885 97.500, 214 97.500 C 221.602 97.500, 223.278 97.865, 229.866 100.952 C 236.901 104.248, 237.293 104.320, 238.577 102.563 C 239.472 101.340, 239.617 100.153, 239.011 99.021 C 237.736 96.638, 227.147 92.083, 220.263 90.955 C 213.826 89.901, 213.479 89.904, 206.594 91.057 M 130.582 98.316 C 129.592 99.040, 128.950 100.502, 129.154 101.566 C 129.495 103.344, 130.587 103.522, 142.686 103.778 C 155.488 104.049, 155.866 103.997, 156.546 101.855 C 157.753 98.051, 154.820 97, 143 97 C 135.800 97, 131.803 97.424, 130.582 98.316 M 243.984 108.520 C 242.943 109.774, 243.315 111.304, 246.111 117.270 C 249.143 123.739, 249.497 125.395, 249.471 133 C 249.447 140.037, 248.989 142.477, 246.811 147.175 C 237.928 166.331, 216.276 173.874, 197.484 164.359 C 191.614 161.387, 188.676 161.700, 189.180 165.246 C 189.415 166.903, 191.311 168.409, 196.341 170.934 C 202.055 173.802, 204.543 174.440, 211.433 174.801 C 225.355 175.532, 235.430 171.525, 244.930 161.480 C 253.695 152.212, 257.503 140.381, 255.953 127.231 C 254.863 117.988, 249.288 107, 245.688 107 C 245.444 107, 244.677 107.684, 243.984 108.520 M 211.813 109.250 C 210.949 109.938, 206.784 119.680, 202.556 130.899 C 195.752 148.956, 195.040 151.469, 196.357 152.786 C 198.584 155.012, 200.827 153.570, 202.991 148.521 L 204.929 144 214.021 144 L 223.112 144 225.129 148.559 C 227.407 153.709, 229.435 154.993, 231.705 152.723 C 232.929 151.499, 233.037 150.576, 232.218 148.336 C 220.652 116.718, 216.714 108, 214 108 C 213.660 108, 212.676 108.563, 211.813 109.250 M 129.930 116.584 C 128.978 117.731, 128.905 118.627, 129.664 119.834 C 131.240 122.340, 148.928 122.819, 150.695 120.402 C 151.552 119.231, 151.622 118.162, 150.926 116.862 C 150.063 115.250, 148.675 115, 140.587 115 C 133.283 115, 130.958 115.346, 129.930 116.584 M 210.629 128.250 C 209.178 132.238, 207.993 136.063, 207.995 136.750 C 207.999 137.623, 209.986 138, 214.583 138 C 218.204 138, 221.017 137.649, 220.833 137.220 C 220.650 136.791, 219.202 132.966, 217.616 128.720 C 216.030 124.474, 214.403 121, 214 121 C 213.597 121, 212.080 124.263, 210.629 128.250 M 129.961 134.547 C 128.984 135.725, 128.902 136.623, 129.663 137.834 C 131.127 140.162, 145.610 140.747, 148.509 138.595 C 150.106 137.410, 150.281 136.759, 149.394 135.309 C 147.815 132.726, 131.987 132.106, 129.961 134.547 M 129.374 152.467 C 129.051 153.310, 129.051 154.690, 129.374 155.533 C 129.864 156.809, 131.852 157.018, 141.231 156.783 L 152.500 156.500 152.500 154 L 152.500 151.500 141.231 151.217 C 131.852 150.982, 129.864 151.191, 129.374 152.467 M 129.372 170.473 C 129.050 171.313, 129.050 172.687, 129.372 173.527 C 129.868 174.818, 132.233 175.011, 144.729 174.777 L 159.500 174.500 159.500 172 L 159.500 169.500 144.729 169.223 C 132.233 168.989, 129.868 169.182, 129.372 170.473 M 274.974 194.527 L 272.600 197.055 275.300 199.755 L 278 202.455 280.700 199.755 L 283.400 197.055 281.026 194.527 C 279.720 193.137, 278.358 192, 278 192 C 277.642 192, 276.280 193.137, 274.974 194.527 M 285.726 204.764 L 283.020 207.589 298.855 223.294 C 311.102 235.441, 315.277 239, 317.278 239 C 319.042 239, 320.081 238.320, 320.543 236.864 C 321.111 235.074, 318.571 232.079, 304.827 218.334 L 288.432 201.940 285.726 204.764" stroke="none" fill="#556894" fill-rule="evenodd"/><path d="M 36.912 2.934 L 33.977 5.869 34.239 131.912 L 34.500 257.955 37.273 260.727 L 40.045 263.500 191.773 263.763 C 304.685 263.959, 344.216 263.731, 346.297 262.873 C 352.312 260.391, 352 267.548, 352 132 C 352 -1.627, 352.204 3.785, 347.055 1.030 C 345.760 0.336, 295.268 -0, 192.489 -0 L 39.846 0 36.912 2.934 M 103.078 20.922 C 101.997 22.003, 100.843 24.376, 100.514 26.194 C 100.185 28.012, 100.047 71.052, 100.208 121.839 L 100.500 214.177 102.861 216.089 C 105.139 217.933, 107.900 218, 182.156 218 L 259.091 218 261.545 215.545 C 264.417 212.674, 264.884 206.979, 262.416 204.930 C 260.264 203.144, 257.597 204.888, 257.184 208.351 L 256.867 211 181.934 211 L 107 211 107 118.500 L 107 26 163.930 26 L 220.859 26 221.180 41.398 C 221.611 62.131, 220.458 61, 241.155 61 L 257 61 257 73.031 C 257 83.248, 257.247 85.157, 258.636 85.691 C 259.536 86.036, 260.998 85.858, 261.886 85.296 C 263.242 84.437, 263.500 82.098, 263.500 70.638 L 263.500 57.002 244.747 38.251 L 225.994 19.500 165.520 19.227 C 106.528 18.961, 104.997 19.003, 103.078 20.922 M 228 43 L 228 55 240.234 55 L 252.469 55 240.500 43 C 233.917 36.400, 228.412 31, 228.266 31 C 228.120 31, 228 36.400, 228 43 M 129.678 62.656 C 128.322 64.012, 129.048 66.956, 130.996 67.998 C 132.342 68.718, 145.846 68.974, 172.447 68.783 C 213.909 68.486, 215.916 68.262, 213.369 64.222 C 212.374 62.645, 208.826 62.478, 171.319 62.239 C 148.789 62.096, 130.050 62.283, 129.678 62.656 M 202 77.500 C 182.644 81.891, 166.892 96.167, 160.273 115.319 C 155.540 129.012, 156.980 145.089, 164.225 159.448 C 168.239 167.404, 179.596 178.761, 187.552 182.775 C 201.938 190.034, 217.210 191.370, 231.328 186.604 C 238.855 184.063, 248.984 178.454, 250.513 175.978 C 250.997 175.195, 254.074 177.603, 259.538 183.037 C 267.020 190.481, 267.726 191.507, 266.787 193.568 C 266.214 194.825, 266.011 196.898, 266.335 198.176 C 266.658 199.454, 277.200 210.738, 289.761 223.250 C 312.410 245.811, 312.635 246, 316.877 246 C 323.102 246, 327 241.937, 327 235.447 L 327 230.740 304.193 207.870 C 284.708 188.331, 280.957 185.002, 278.443 185.015 C 276.824 185.024, 274.839 185.449, 274.031 185.959 C 272.917 186.664, 270.685 184.990, 264.781 179.023 C 260.502 174.697, 257 170.957, 257 170.711 C 257 170.466, 258.925 167.393, 261.278 163.882 C 269.424 151.731, 272.550 136.007, 269.605 122 C 264.179 96.193, 242.803 77.678, 217 76.435 C 211.657 76.177, 206.085 76.573, 202 77.500 M 129.370 81.479 C 129.049 82.316, 129.049 83.684, 129.370 84.521 C 129.870 85.825, 132.837 86.003, 150.227 85.771 L 170.500 85.500 170.500 83 L 170.500 80.500 150.227 80.229 C 132.837 79.997, 129.870 80.175, 129.370 81.479 M 201.112 84.581 C 177.257 90.996, 161.183 115.209, 164.677 139.463 C 169.196 170.829, 201.620 190.654, 230.725 179.846 C 265.493 166.935, 275.278 123.670, 249.304 97.696 C 236.802 85.193, 217.931 80.058, 201.112 84.581 M 206.594 91.057 C 194.261 93.123, 181.677 102.816, 175.781 114.792 C 173.053 120.334, 172.522 122.643, 172.188 130.398 C 171.868 137.834, 172.196 140.683, 173.979 145.960 C 176.624 153.786, 179.467 158, 182.099 158 C 185.265 158, 185.446 155.235, 182.644 149.686 C 178.682 141.841, 177.476 134.351, 178.954 126.770 C 181.301 114.729, 188.600 105.422, 199.825 100.160 C 204.575 97.934, 206.885 97.500, 214 97.500 C 221.602 97.500, 223.278 97.865, 229.866 100.952 C 236.901 104.248, 237.293 104.320, 238.577 102.563 C 239.472 101.340, 239.617 100.153, 239.011 99.021 C 237.736 96.638, 227.147 92.083, 220.263 90.955 C 213.826 89.901, 213.479 89.904, 206.594 91.057 M 130.582 98.316 C 129.592 99.040, 128.950 100.502, 129.154 101.566 C 129.495 103.344, 130.587 103.522, 142.686 103.778 C 155.488 104.049, 155.866 103.997, 156.546 101.855 C 157.753 98.051, 154.820 97, 143 97 C 135.800 97, 131.803 97.424, 130.582 98.316 M 243.984 108.520 C 242.943 109.774, 243.315 111.304, 246.111 117.270 C 249.143 123.739, 249.497 125.395, 249.471 133 C 249.447 140.037, 248.989 142.477, 246.811 147.175 C 237.928 166.331, 216.276 173.874, 197.484 164.359 C 191.614 161.387, 188.676 161.700, 189.180 165.246 C 189.415 166.903, 191.311 168.409, 196.341 170.934 C 202.055 173.802, 204.543 174.440, 211.433 174.801 C 225.355 175.532, 235.430 171.525, 244.930 161.480 C 253.695 152.212, 257.503 140.381, 255.953 127.231 C 254.863 117.988, 249.288 107, 245.688 107 C 245.444 107, 244.677 107.684, 243.984 108.520 M 211.813 109.250 C 210.949 109.938, 206.784 119.680, 202.556 130.899 C 195.752 148.956, 195.040 151.469, 196.357 152.786 C 198.584 155.012, 200.827 153.570, 202.991 148.521 L 204.929 144 214.021 144 L 223.112 144 225.129 148.559 C 227.407 153.709, 229.435 154.993, 231.705 152.723 C 232.929 151.499, 233.037 150.576, 232.218 148.336 C 220.652 116.718, 216.714 108, 214 108 C 213.660 108, 212.676 108.563, 211.813 109.250 M 129.930 116.584 C 128.978 117.731, 128.905 118.627, 129.664 119.834 C 131.240 122.340, 148.928 122.819, 150.695 120.402 C 151.552 119.231, 151.622 118.162, 150.926 116.862 C 150.063 115.250, 148.675 115, 140.587 115 C 133.283 115, 130.958 115.346, 129.930 116.584 M 210.629 128.250 C 209.178 132.238, 207.993 136.063, 207.995 136.750 C 207.999 137.623, 209.986 138, 214.583 138 C 218.204 138, 221.017 137.649, 220.833 137.220 C 220.650 136.791, 219.202 132.966, 217.616 128.720 C 216.030 124.474, 214.403 121, 214 121 C 213.597 121, 212.080 124.263, 210.629 128.250 M 129.961 134.547 C 128.984 135.725, 128.902 136.623, 129.663 137.834 C 131.127 140.162, 145.610 140.747, 148.509 138.595 C 150.106 137.410, 150.281 136.759, 149.394 135.309 C 147.815 132.726, 131.987 132.106, 129.961 134.547 M 129.374 152.467 C 129.051 153.310, 129.051 154.690, 129.374 155.533 C 129.864 156.809, 131.852 157.018, 141.231 156.783 L 152.500 156.500 152.500 154 L 152.500 151.500 141.231 151.217 C 131.852 150.982, 129.864 151.191, 129.374 152.467 M 129.372 170.473 C 129.050 171.313, 129.050 172.687, 129.372 173.527 C 129.868 174.818, 132.233 175.011, 144.729 174.777 L 159.500 174.500 159.500 172 L 159.500 169.500 144.729 169.223 C 132.233 168.989, 129.868 169.182, 129.372 170.473 M 274.974 194.527 L 272.600 197.055 275.300 199.755 L 278 202.455 280.700 199.755 L 283.400 197.055 281.026 194.527 C 279.720 193.137, 278.358 192, 278 192 C 277.642 192, 276.280 193.137, 274.974 194.527 M 285.726 204.764 L 283.020 207.589 298.855 223.294 C 311.102 235.441, 315.277 239, 317.278 239 C 319.042 239, 320.081 238.320, 320.543 236.864 C 321.111 235.074, 318.571 232.079, 304.827 218.334 L 288.432 201.940 285.726 204.764" stroke="none" fill="#e2e3e3" fill-rule="evenodd"/></svg>