<svg width="330" height="324" viewBox="0 0 330 324" fill="none" xmlns="http://www.w3.org/2000/svg">
<g clip-path="url(#clip0_527_285)">
<path d="M233.201 255.252H86.1569C84.7439 255.252 83.3889 254.691 82.3898 253.691C81.3907 252.692 80.8294 251.337 80.8294 249.924V79.5137C80.8294 78.1006 81.3906 76.7456 82.39 75.7462L107.506 50.6306C108 50.1358 108.588 49.7433 109.234 49.4756C109.881 49.2078 110.573 49.07 111.273 49.07H233.201C234.614 49.07 235.969 49.6313 236.968 50.6304C237.967 51.6295 238.529 52.9846 238.529 54.3975V249.924C238.529 251.337 237.967 252.692 236.968 253.691C235.969 254.691 234.614 255.252 233.201 255.252Z" fill="#131313" fill-opacity="0.15"/>
<path d="M106.935 112.089H212.423C213.704 112.089 214.932 111.58 215.838 110.674C216.743 109.769 217.252 108.541 217.252 107.26C217.252 105.979 216.743 104.751 215.838 103.846C214.932 102.94 213.704 102.431 212.423 102.431H106.935C104.267 102.431 102.106 104.593 102.106 107.26C102.106 109.927 104.267 112.089 106.935 112.089ZM212.422 128.459H106.935C105.654 128.459 104.426 128.968 103.521 129.874C102.615 130.779 102.106 132.007 102.106 133.288C102.106 134.569 102.615 135.797 103.521 136.703C104.426 137.608 105.654 138.117 106.935 138.117H212.423C213.057 138.117 213.685 137.992 214.271 137.749C214.857 137.506 215.389 137.151 215.837 136.702C216.286 136.254 216.641 135.722 216.884 135.136C217.127 134.55 217.252 133.922 217.252 133.288C217.252 132.654 217.127 132.026 216.884 131.44C216.641 130.854 216.285 130.322 215.837 129.873C215.389 129.425 214.856 129.069 214.27 128.827C213.685 128.584 213.057 128.459 212.422 128.459ZM106.935 164.146H176.195C177.476 164.146 178.704 163.638 179.609 162.732C180.515 161.826 181.024 160.598 181.024 159.318C181.024 158.037 180.515 156.809 179.609 155.903C178.704 154.997 177.476 154.489 176.195 154.489H106.935C106.301 154.489 105.673 154.614 105.087 154.856C104.501 155.099 103.969 155.454 103.52 155.903C103.072 156.351 102.716 156.884 102.474 157.47C102.231 158.055 102.106 158.683 102.106 159.318C102.106 159.952 102.231 160.58 102.474 161.165C102.716 161.751 103.072 162.284 103.52 162.732C103.969 163.181 104.501 163.536 105.087 163.779C105.673 164.021 106.301 164.146 106.935 164.146ZM212.422 180.517H106.935C105.654 180.517 104.426 181.026 103.521 181.931C102.615 182.837 102.106 184.065 102.106 185.346C102.106 186.626 102.615 187.855 103.521 188.76C104.426 189.666 105.654 190.174 106.935 190.174H212.423C213.057 190.174 213.685 190.049 214.271 189.807C214.857 189.564 215.389 189.208 215.837 188.76C216.286 188.311 216.641 187.779 216.884 187.193C217.127 186.607 217.252 185.979 217.252 185.345C217.252 184.711 217.127 184.083 216.884 183.497C216.641 182.912 216.285 182.379 215.837 181.931C215.389 181.483 214.856 181.127 214.27 180.884C213.685 180.642 213.057 180.517 212.422 180.517ZM200.169 206.546H106.935C105.654 206.546 104.426 207.054 103.521 207.96C102.615 208.866 102.106 210.094 102.106 211.374C102.106 212.655 102.615 213.883 103.521 214.789C104.426 215.694 105.654 216.203 106.935 216.203H200.169C201.45 216.203 202.678 215.694 203.584 214.789C204.489 213.883 204.998 212.655 204.998 211.374C204.998 210.094 204.489 208.866 203.584 207.96C202.678 207.054 201.45 206.546 200.169 206.546Z" fill="#131313" fill-opacity="0.15"/>
<path d="M103.738 77.3069H83.4013C82.4519 77.3069 81.9762 76.1594 82.6475 75.4881L107.246 50.8894C107.917 50.2181 109.065 50.6937 109.065 51.6431V71.98C109.065 72.6796 108.927 73.3723 108.66 74.0186C108.392 74.6649 108 75.2522 107.505 75.7469C107.01 76.2415 106.423 76.6339 105.777 76.9016C105.13 77.1692 104.438 77.307 103.738 77.3069Z" fill="#131313" fill-opacity="0.15"/>
<path d="M315.757 319.757C310.099 325.414 300.927 325.414 295.269 319.757L255.613 280.1L276.1 259.613L315.757 299.269C321.414 304.927 321.414 314.099 315.757 319.757Z" fill="#131313" fill-opacity="0.15"/>
<path d="M283.884 263.306L259.306 287.884C254.212 292.978 245.954 292.978 240.861 287.884C235.767 282.79 235.767 274.532 240.861 269.439L265.439 244.861C270.533 239.767 278.791 239.767 283.884 244.861C288.977 249.954 288.977 258.213 283.884 263.306Z" fill="#131313" fill-opacity="0.15"/>
<path d="M201.562 284.937C245.4 284.937 280.937 249.4 280.937 205.562C280.937 161.725 245.4 126.188 201.562 126.188C157.725 126.188 122.188 161.725 122.188 205.562C122.188 249.4 157.725 284.937 201.562 284.937Z" fill="#131313" fill-opacity="0.15"/>
<path d="M257.689 149.436C238.903 130.651 213.044 123.254 188.686 127.237C204.521 129.827 219.722 137.224 231.934 149.436C262.932 180.434 262.932 230.691 231.934 261.688C219.722 273.9 204.521 281.297 188.686 283.887C213.045 287.871 238.904 280.474 257.689 261.688C288.686 230.691 288.686 180.434 257.689 149.436Z" fill="#131313" fill-opacity="0.15"/>
<path d="M222.309 173.045H180.816C179.535 173.045 178.307 173.554 177.401 174.459C176.496 175.365 175.987 176.593 175.987 177.874C175.987 179.154 176.496 180.383 177.401 181.288C178.307 182.194 179.535 182.702 180.816 182.702H196.65V239.826C196.65 241.106 197.159 242.335 198.064 243.24C198.97 244.146 200.198 244.654 201.479 244.654C202.759 244.654 203.988 244.146 204.893 243.24C205.799 242.335 206.308 241.106 206.308 239.826V182.702H222.309C222.944 182.703 223.571 182.578 224.157 182.335C224.743 182.092 225.276 181.737 225.724 181.288C226.172 180.84 226.528 180.308 226.771 179.722C227.013 179.136 227.138 178.508 227.138 177.874C227.138 177.24 227.013 176.612 226.771 176.026C226.528 175.44 226.172 174.908 225.724 174.459C225.276 174.011 224.743 173.655 224.157 173.412C223.571 173.17 222.944 173.045 222.309 173.045Z" fill="#131313" fill-opacity="0.15"/>
<path d="M263.513 84.145C262.558 84.1449 261.624 83.8617 260.83 83.331C260.036 82.8004 259.417 82.0462 259.052 81.1639C258.686 80.2815 258.591 79.3106 258.777 78.3739C258.963 77.4372 259.423 76.5767 260.098 75.9012L275.665 60.3344C275.815 60.1853 275.934 60.008 276.015 59.8126C276.096 59.6173 276.137 59.4077 276.137 59.1962V22.9937C276.137 21.7131 276.646 20.4849 277.551 19.5793C278.457 18.6737 279.685 18.165 280.966 18.165C282.246 18.165 283.474 18.6737 284.38 19.5793C285.286 20.4849 285.794 21.7131 285.794 22.9937V59.1962C285.798 60.6764 285.509 62.1427 284.942 63.5102C284.376 64.8777 283.544 66.1193 282.494 67.1631L266.927 82.7306C266.48 83.1797 265.947 83.5359 265.361 83.7786C264.776 84.0213 264.147 84.1458 263.513 84.145Z" fill="#131313" fill-opacity="0.15"/>
<path d="M268.813 17.4656C268.047 9.73812 274.486 3.29687 282.212 4.06187C287.929 4.62812 292.552 9.25249 293.119 14.9687C293.885 22.6962 287.446 29.1375 279.719 28.3725C274.003 27.8062 269.38 23.1819 268.813 17.4656Z" fill="#131313" fill-opacity="0.15"/>
<path d="M307.785 111.187H263.513C262.232 111.187 261.004 110.679 260.099 109.773C259.193 108.868 258.684 107.639 258.684 106.359C258.684 105.078 259.193 103.85 260.099 102.944C261.004 102.039 262.232 101.53 263.513 101.53H307.785C309.066 101.53 310.294 102.039 311.199 102.944C312.105 103.85 312.614 105.078 312.614 106.359C312.614 107.639 312.105 108.868 311.199 109.773C310.294 110.679 309.066 111.187 307.785 111.187Z" fill="#131313" fill-opacity="0.15"/>
<path d="M295.632 107.607C294.866 99.8794 301.306 93.4381 309.032 94.2031C314.749 94.7694 319.372 99.3937 319.939 105.11C320.705 112.837 314.266 119.279 306.539 118.514C300.822 117.947 296.199 113.323 295.632 107.607Z" fill="#131313" fill-opacity="0.15"/>
<path d="M56.4869 190.383C55.8526 190.383 55.2244 190.259 54.6383 190.016C54.0523 189.773 53.52 189.417 53.0719 188.968L37.505 173.401C36.4556 172.357 35.6236 171.116 35.0572 169.748C34.4907 168.381 34.2011 166.915 34.205 165.434V50.0025C34.205 48.7218 34.7137 47.4936 35.6193 46.5881C36.5249 45.6825 37.7531 45.1737 39.0337 45.1737C40.3144 45.1737 41.5426 45.6825 42.4482 46.5881C43.3538 47.4936 43.8625 48.7218 43.8625 50.0025V165.434C43.8625 165.858 44.0344 166.272 44.3344 166.572L59.9012 182.139C60.5764 182.814 61.0362 183.675 61.2225 184.611C61.4087 185.548 61.3131 186.519 60.9477 187.401C60.5822 188.283 59.9634 189.038 59.1694 189.568C58.3754 190.099 57.4419 190.382 56.4869 190.383Z" fill="#131313" fill-opacity="0.15"/>
<path d="M51.1869 44.4744C51.9531 36.7469 45.5137 30.3056 37.7875 31.0706C32.0706 31.6369 27.4475 36.2612 26.8812 41.9775C26.115 49.705 32.5544 56.1462 40.2806 55.3812C45.9969 54.815 50.62 50.1906 51.1869 44.4744Z" fill="#131313" fill-opacity="0.15"/>
<path d="M56.4869 217.425H12.215C10.9343 217.425 9.70612 216.916 8.80055 216.011C7.89499 215.105 7.38625 213.877 7.38625 212.596C7.38625 211.316 7.89499 210.087 8.80055 209.182C9.70612 208.276 10.9343 207.768 12.215 207.768H56.4869C57.121 207.767 57.749 207.892 58.3349 208.135C58.9207 208.378 59.4531 208.733 59.9015 209.182C60.3499 209.63 60.7056 210.162 60.9482 210.748C61.1909 211.334 61.3157 211.962 61.3156 212.596C61.3157 213.23 61.1909 213.858 60.9482 214.444C60.7056 215.03 60.3499 215.562 59.9015 216.011C59.4531 216.459 58.9207 216.815 58.3349 217.058C57.749 217.3 57.121 217.425 56.4869 217.425Z" fill="#131313" fill-opacity="0.15"/>
<path d="M24.3681 213.844C25.1344 206.117 18.695 199.676 10.9687 200.441C5.25186 201.007 0.62874 205.631 0.0618649 211.348C-0.704385 219.075 5.73499 225.516 13.4612 224.751C19.1781 224.185 23.8012 219.561 24.3681 213.844Z" fill="#131313" fill-opacity="0.15"/>
<path d="M78.2975 305.775H78.2619L45.4731 305.669C44.1925 305.667 42.9651 305.156 42.061 304.249C41.1569 303.342 40.6501 302.113 40.6522 300.832C40.6543 299.552 41.165 298.324 42.072 297.42C42.979 296.516 44.2081 296.009 45.4887 296.011H45.5044L78.2931 296.117H78.2981C78.7225 296.117 79.1369 295.946 79.4362 295.646L95.8419 279.241C96.8857 278.191 98.1274 277.359 99.495 276.792C100.863 276.226 102.329 275.936 103.809 275.94H133.75C135.031 275.94 136.259 276.449 137.164 277.354C138.07 278.26 138.579 279.488 138.579 280.769C138.579 282.049 138.07 283.278 137.164 284.183C136.259 285.089 135.031 285.597 133.75 285.597H103.809C103.386 285.597 102.971 285.769 102.671 286.069L86.2656 302.474C84.1479 304.581 81.2846 305.767 78.2975 305.775Z" fill="#131313" fill-opacity="0.15"/>
<path d="M40.2825 312.992C32.555 313.759 26.1137 307.319 26.8787 299.593C27.445 293.876 32.0694 289.253 37.7856 288.686C45.5131 287.92 51.9544 294.359 51.1894 302.086C50.6231 307.802 45.9987 312.426 40.2825 312.992Z" fill="#131313" fill-opacity="0.15"/>
</g>
<g clip-path="url(#clip1_527_285)">
<path d="M242.734 252.231H95.6901C94.2771 252.231 92.9221 251.67 91.923 250.671C90.9239 249.672 90.3626 248.316 90.3626 246.903V76.4929C90.3626 75.0797 90.9238 73.7247 91.9232 72.7254L117.039 47.6097C117.534 47.115 118.121 46.7225 118.767 46.4547C119.414 46.1869 120.107 46.0491 120.806 46.0491H242.734C244.147 46.0491 245.502 46.6104 246.502 47.6095C247.501 48.6086 248.062 49.9637 248.062 51.3766V246.903C248.062 248.316 247.501 249.671 246.501 250.67C245.502 251.67 244.147 252.231 242.734 252.231Z" fill="#F9F7F8"/>
<path d="M116.468 109.068H221.956C223.237 109.068 224.465 108.559 225.371 107.654C226.276 106.748 226.785 105.52 226.785 104.239C226.785 102.958 226.276 101.73 225.371 100.825C224.465 99.9191 223.237 99.4104 221.956 99.4104H116.468C113.801 99.4104 111.639 101.572 111.639 104.239C111.639 106.906 113.801 109.068 116.468 109.068ZM221.956 125.438H116.468C115.188 125.438 113.959 125.947 113.054 126.853C112.148 127.758 111.639 128.987 111.639 130.267C111.639 131.548 112.148 132.776 113.054 133.682C113.959 134.587 115.188 135.096 116.468 135.096H221.956C222.59 135.096 223.218 134.971 223.804 134.728C224.39 134.486 224.922 134.13 225.371 133.681C225.819 133.233 226.175 132.701 226.417 132.115C226.66 131.529 226.785 130.901 226.785 130.267C226.785 129.633 226.66 129.005 226.417 128.419C226.174 127.833 225.819 127.301 225.37 126.853C224.922 126.404 224.389 126.049 223.804 125.806C223.218 125.563 222.59 125.438 221.956 125.438ZM116.468 161.125H185.728C187.009 161.125 188.237 160.617 189.143 159.711C190.048 158.806 190.557 157.577 190.557 156.297C190.557 155.016 190.048 153.788 189.143 152.882C188.237 151.977 187.009 151.468 185.728 151.468H116.468C115.834 151.468 115.206 151.593 114.62 151.835C114.034 152.078 113.502 152.434 113.054 152.882C112.605 153.33 112.249 153.863 112.007 154.449C111.764 155.035 111.639 155.662 111.639 156.297C111.639 156.931 111.764 157.559 112.007 158.145C112.249 158.73 112.605 159.263 113.054 159.711C113.502 160.16 114.034 160.515 114.62 160.758C115.206 161.001 115.834 161.125 116.468 161.125ZM221.956 177.496H116.468C115.188 177.496 113.959 178.005 113.054 178.91C112.148 179.816 111.639 181.044 111.639 182.325C111.639 183.605 112.148 184.834 113.054 185.739C113.959 186.645 115.188 187.154 116.468 187.154H221.956C222.59 187.153 223.218 187.029 223.804 186.786C224.39 186.543 224.922 186.187 225.371 185.739C225.819 185.291 226.175 184.758 226.417 184.172C226.66 183.586 226.785 182.959 226.785 182.324C226.785 181.69 226.66 181.062 226.417 180.477C226.174 179.891 225.819 179.358 225.37 178.91C224.922 178.462 224.389 178.106 223.804 177.863C223.218 177.621 222.59 177.496 221.956 177.496ZM209.703 203.525H116.468C115.188 203.525 113.959 204.034 113.054 204.939C112.148 205.845 111.639 207.073 111.639 208.354C111.639 209.634 112.148 210.862 113.054 211.768C113.959 212.674 115.188 213.182 116.468 213.182H209.703C210.983 213.182 212.211 212.674 213.117 211.768C214.023 210.862 214.531 209.634 214.531 208.354C214.531 207.073 214.023 205.845 213.117 204.939C212.211 204.034 210.983 203.525 209.703 203.525Z" fill="#D1D1D1"/>
<path d="M113.271 74.286H92.9345C91.9851 74.286 91.5094 73.1385 92.1807 72.4672L116.779 47.8685C117.451 47.1972 118.598 47.6729 118.598 48.6222V68.9591C118.598 69.6587 118.461 70.3514 118.193 70.9977C117.925 71.6441 117.533 72.2313 117.038 72.726C116.544 73.2206 115.956 73.613 115.31 73.8807C114.664 74.1484 113.971 74.2861 113.271 74.286Z" fill="#E3E3E3"/>
<path d="M325.29 316.736C319.633 322.393 310.46 322.393 304.803 316.736L265.146 277.079L285.633 256.592L325.29 296.248C330.948 301.906 330.948 311.078 325.29 316.736Z" fill="#526697"/>
<path d="M293.417 260.285L268.839 284.863C263.745 289.957 255.487 289.957 250.394 284.863C245.3 279.769 245.3 271.511 250.394 266.418L274.972 241.84C280.066 236.746 288.324 236.746 293.417 241.84C298.51 246.934 298.51 255.192 293.417 260.285Z" fill="#92F7A8"/>
<path d="M211.096 281.916C254.933 281.916 290.47 246.379 290.47 202.542C290.47 158.704 254.933 123.167 211.096 123.167C167.258 123.167 131.721 158.704 131.721 202.542C131.721 246.379 167.258 281.916 211.096 281.916Z" fill="#92F7A8"/>
<path d="M267.222 146.415C248.436 127.63 222.578 120.233 198.219 124.217C214.054 126.807 229.256 134.203 241.468 146.415C272.465 177.413 272.465 227.67 241.468 258.667C229.256 270.879 214.054 278.276 198.219 280.866C222.578 284.85 248.437 277.453 267.222 258.667C298.219 227.67 298.219 177.413 267.222 146.415Z" fill="#4EF480"/>
<path d="M231.843 170.024H190.349C189.068 170.024 187.84 170.533 186.934 171.438C186.029 172.344 185.52 173.572 185.52 174.853C185.52 176.134 186.029 177.362 186.934 178.267C187.84 179.173 189.068 179.682 190.349 179.682H206.183V236.805C206.183 238.085 206.692 239.314 207.598 240.219C208.503 241.125 209.731 241.633 211.012 241.633C212.293 241.633 213.521 241.125 214.426 240.219C215.332 239.314 215.841 238.085 215.841 236.805V179.682H231.843C232.477 179.682 233.105 179.557 233.691 179.314C234.276 179.072 234.809 178.716 235.257 178.267C235.706 177.819 236.061 177.287 236.304 176.701C236.547 176.115 236.671 175.487 236.671 174.853C236.671 174.219 236.547 173.591 236.304 173.005C236.061 172.419 235.706 171.887 235.257 171.438C234.809 170.99 234.276 170.634 233.691 170.392C233.105 170.149 232.477 170.024 231.843 170.024Z" fill="#526697"/>
<path d="M273.046 81.1241C272.091 81.124 271.158 80.8408 270.364 80.3102C269.569 79.7795 268.951 79.0254 268.585 78.143C268.219 77.2607 268.124 76.2897 268.31 75.353C268.496 74.4163 268.956 73.5558 269.631 72.8804L285.198 57.3135C285.348 57.1645 285.467 56.9871 285.548 56.7918C285.629 56.5964 285.671 56.3869 285.67 56.1754V19.9729C285.67 18.6922 286.179 17.464 287.084 16.5584C287.99 15.6529 289.218 15.1441 290.499 15.1441C291.779 15.1441 293.008 15.6529 293.913 16.5584C294.819 17.464 295.328 18.6922 295.328 19.9729V56.1754C295.332 57.6555 295.042 59.1218 294.476 60.4893C293.909 61.8568 293.077 63.0984 292.028 64.1422L276.461 79.7097C276.013 80.1588 275.481 80.515 274.895 80.7577C274.309 81.0004 273.681 81.125 273.046 81.1241Z" fill="#F7F7F7"/>
<path d="M278.346 14.4447C277.58 6.71725 284.019 0.275995 291.746 1.041C297.463 1.60725 302.086 6.23162 302.652 11.9479C303.418 19.6754 296.979 26.1166 289.253 25.3516C283.536 24.7854 278.913 20.161 278.346 14.4447Z" fill="#92F7A8"/>
<path d="M317.318 108.167H273.046C271.766 108.167 270.537 107.658 269.632 106.752C268.726 105.847 268.218 104.619 268.218 103.338C268.218 102.057 268.726 100.829 269.632 99.9234C270.537 99.0179 271.766 98.5091 273.046 98.5091H317.318C318.599 98.5091 319.827 99.0179 320.733 99.9234C321.638 100.829 322.147 102.057 322.147 103.338C322.147 104.619 321.638 105.847 320.733 106.752C319.827 107.658 318.599 108.167 317.318 108.167Z" fill="#F7F7F7"/>
<path d="M305.166 104.586C304.399 96.8585 310.839 90.4172 318.565 91.1822C324.282 91.7485 328.905 96.3729 329.472 102.089C330.238 109.817 323.799 116.258 316.073 115.493C310.355 114.927 305.732 110.302 305.166 104.586Z" fill="#E4BDDA"/>
<path d="M66.0201 187.362C65.3858 187.362 64.7576 187.238 64.1715 186.995C63.5855 186.752 63.0532 186.396 62.6051 185.947L47.0382 170.38C45.9888 169.336 45.1568 168.095 44.5904 166.727C44.0239 165.36 43.7343 163.894 43.7382 162.414V46.9816C43.7382 45.701 44.2469 44.4727 45.1525 43.5672C46.0581 42.6616 47.2863 42.1529 48.5669 42.1529C49.8476 42.1529 51.0758 42.6616 51.9814 43.5672C52.887 44.4727 53.3957 45.701 53.3957 46.9816V162.413C53.3957 162.837 53.5676 163.252 53.8676 163.551L69.4344 179.118C70.1096 179.793 70.5694 180.654 70.7557 181.59C70.9419 182.527 70.8463 183.498 70.4809 184.38C70.1154 185.263 69.4966 186.017 68.7026 186.547C67.9086 187.078 66.9751 187.361 66.0201 187.362Z" fill="#F7F7F7"/>
<path d="M60.7201 41.4535C61.4863 33.726 55.047 27.2847 47.3207 28.0497C41.6038 28.616 36.9807 33.2404 36.4144 38.9566C35.6482 46.6841 42.0876 53.1254 49.8138 52.3604C55.5301 51.7941 60.1532 47.1697 60.7201 41.4535Z" fill="#C0C7DA"/>
<path d="M66.0201 214.404H21.7482C20.4675 214.404 19.2393 213.895 18.3338 212.99C17.4282 212.084 16.9194 210.856 16.9194 209.575C16.9194 208.295 17.4282 207.066 18.3338 206.161C19.2393 205.255 20.4675 204.747 21.7482 204.747H66.0201C66.6542 204.747 67.2822 204.871 67.8681 205.114C68.4539 205.357 68.9863 205.712 69.4347 206.161C69.8831 206.609 70.2388 207.142 70.4814 207.727C70.7241 208.313 70.8489 208.941 70.8488 209.575C70.8489 210.21 70.7241 210.837 70.4814 211.423C70.2388 212.009 69.8831 212.542 69.4347 212.99C68.9863 213.438 68.4539 213.794 67.8681 214.037C67.2822 214.279 66.6542 214.404 66.0201 214.404Z" fill="#F7F7F7"/>
<path d="M33.9013 210.824C34.6676 203.096 28.2282 196.655 20.5019 197.42C14.7851 197.986 10.1619 202.61 9.59507 208.327C8.82882 216.054 15.2682 222.495 22.9944 221.73C28.7113 221.164 33.3344 216.54 33.9013 210.824Z" fill="#92F7A8"/>
<path d="M87.8307 302.754H87.7951L55.0063 302.648C53.7257 302.646 52.4983 302.135 51.5942 301.228C50.6901 300.321 50.1833 299.092 50.1854 297.811C50.1875 296.531 50.6982 295.303 51.6052 294.399C52.5122 293.495 53.7413 292.988 55.0219 292.99H55.0376L87.8263 293.097H87.8313C88.2557 293.097 88.6701 292.925 88.9694 292.625L105.375 276.22C106.419 275.17 107.661 274.338 109.028 273.771C110.396 273.205 111.862 272.915 113.343 272.919H143.283C144.564 272.919 145.792 273.428 146.698 274.333C147.603 275.239 148.112 276.467 148.112 277.748C148.112 279.029 147.603 280.257 146.698 281.162C145.792 282.068 144.564 282.577 143.283 282.577H113.343C112.919 282.577 112.504 282.748 112.204 283.048L95.7988 299.453C93.6811 301.56 90.8178 302.746 87.8307 302.754Z" fill="#F7F7F7"/>
<path d="M49.8157 309.972C42.0882 310.738 35.647 304.298 36.412 296.572C36.9782 290.855 41.6026 286.232 47.3188 285.665C55.0463 284.899 61.4876 291.338 60.7226 299.065C60.1563 304.782 55.532 309.405 49.8157 309.972Z" fill="#E4BDDA"/>
</g>
<defs>
<clipPath id="clip0_527_285">
<rect width="320" height="320" fill="white" transform="translate(0 4)"/>
</clipPath>
<clipPath id="clip1_527_285">
<rect width="320" height="320" fill="white" transform="translate(9.5332 0.979126)"/>
</clipPath>
</defs>
</svg>
