<svg width="333" height="329" viewBox="0 0 333 329" fill="none" xmlns="http://www.w3.org/2000/svg">
<g clip-path="url(#clip0_509_377)">
<path d="M233.735 260.189H86.6908C85.2778 260.189 83.9228 259.628 82.9237 258.629C81.9246 257.63 81.3633 256.275 81.3633 254.862V84.4511C81.3633 83.0379 81.9245 81.6829 82.9239 80.6836L108.04 55.568C108.534 55.0732 109.122 54.6807 109.768 54.4129C110.414 54.1451 111.107 54.0073 111.807 54.0073H233.735C235.148 54.0073 236.503 54.5686 237.502 55.5677C238.501 56.5668 239.063 57.9219 239.063 59.3348V254.861C239.063 256.274 238.501 257.629 237.502 258.629C236.503 259.628 235.148 260.189 233.735 260.189Z" fill="#131313" fill-opacity="0.15"/>
<path d="M107.468 117.026H212.957C214.237 117.026 215.465 116.517 216.371 115.612C217.277 114.706 217.785 113.478 217.785 112.197C217.785 110.917 217.277 109.689 216.371 108.783C215.465 107.877 214.237 107.369 212.957 107.369H107.468C104.801 107.369 102.64 109.531 102.64 112.197C102.64 114.864 104.801 117.026 107.468 117.026ZM212.956 133.397H107.468C106.188 133.397 104.96 133.906 104.054 134.811C103.148 135.717 102.64 136.945 102.64 138.226C102.64 139.506 103.148 140.734 104.054 141.64C104.96 142.546 106.188 143.054 107.468 143.054H212.957C213.591 143.054 214.219 142.929 214.804 142.687C215.39 142.444 215.923 142.088 216.371 141.64C216.819 141.191 217.175 140.659 217.418 140.073C217.66 139.487 217.785 138.859 217.785 138.225C217.785 137.591 217.66 136.963 217.417 136.377C217.175 135.792 216.819 135.259 216.37 134.811C215.922 134.363 215.39 134.007 214.804 133.764C214.218 133.522 213.59 133.397 212.956 133.397ZM107.468 169.084H176.728C178.009 169.084 179.237 168.575 180.143 167.669C181.048 166.764 181.557 165.536 181.557 164.255C181.557 162.974 181.048 161.746 180.143 160.84C179.237 159.935 178.009 159.426 176.728 159.426H107.468C106.834 159.426 106.206 159.551 105.62 159.794C105.035 160.036 104.502 160.392 104.054 160.84C103.605 161.289 103.25 161.821 103.007 162.407C102.764 162.993 102.64 163.621 102.64 164.255C102.64 164.889 102.764 165.517 103.007 166.103C103.25 166.689 103.605 167.221 104.054 167.67C104.502 168.118 105.035 168.474 105.62 168.716C106.206 168.959 106.834 169.084 107.468 169.084ZM212.956 185.454H107.468C106.188 185.454 104.96 185.963 104.054 186.869C103.148 187.774 102.64 189.002 102.64 190.283C102.64 191.564 103.148 192.792 104.054 193.697C104.96 194.603 106.188 195.112 107.468 195.112H212.957C213.591 195.112 214.219 194.987 214.804 194.744C215.39 194.501 215.923 194.146 216.371 193.697C216.819 193.249 217.175 192.716 217.418 192.131C217.66 191.545 217.785 190.917 217.785 190.283C217.785 189.649 217.66 189.021 217.417 188.435C217.175 187.849 216.819 187.317 216.37 186.868C215.922 186.42 215.39 186.064 214.804 185.822C214.218 185.579 213.59 185.454 212.956 185.454ZM200.703 211.483H107.468C106.188 211.483 104.96 211.992 104.054 212.897C103.148 213.803 102.64 215.031 102.64 216.312C102.64 217.592 103.148 218.821 104.054 219.726C104.96 220.632 106.188 221.141 107.468 221.141H200.703C201.983 221.141 203.212 220.632 204.117 219.726C205.023 218.821 205.532 217.592 205.532 216.312C205.532 215.031 205.023 213.803 204.117 212.897C203.212 211.992 201.983 211.483 200.703 211.483Z" fill="#131313" fill-opacity="0.15"/>
<path d="M104.272 82.2442H83.9351C82.9857 82.2442 82.5101 81.0967 83.1814 80.4255L107.78 55.8267C108.451 55.1555 109.599 55.6311 109.599 56.5805V76.9174C109.599 77.6169 109.461 78.3096 109.194 78.956C108.926 79.6023 108.533 80.1896 108.039 80.6842C107.544 81.1789 106.957 81.5713 106.311 81.8389C105.664 82.1066 104.972 82.2443 104.272 82.2442Z" fill="#131313" fill-opacity="0.15"/>
<path d="M316.29 324.694C310.632 330.352 301.46 330.352 295.802 324.694L256.146 285.037L276.633 264.55L316.29 304.207C321.947 309.864 321.947 319.037 316.29 324.694Z" fill="#131313" fill-opacity="0.15"/>
<path d="M284.418 268.243L259.84 292.821C254.746 297.915 246.488 297.915 241.395 292.821C236.301 287.727 236.301 279.469 241.395 274.376L265.973 249.798C271.066 244.704 279.325 244.704 284.418 249.798C289.511 254.892 289.511 263.15 284.418 268.243Z" fill="#131313" fill-opacity="0.15"/>
<path d="M202.096 289.874C245.933 289.874 281.47 254.337 281.47 210.5C281.47 166.663 245.933 131.125 202.096 131.125C158.259 131.125 122.722 166.663 122.722 210.5C122.722 254.337 158.259 289.874 202.096 289.874Z" fill="#131313" fill-opacity="0.15"/>
<path d="M258.222 154.374C239.436 135.588 213.577 128.191 189.219 132.175C205.054 134.765 220.256 142.162 232.467 154.374C263.465 185.371 263.465 235.628 232.467 266.625C220.256 278.837 205.054 286.234 189.219 288.824C213.578 292.808 239.437 285.411 258.222 266.625C289.219 235.628 289.219 185.371 258.222 154.374Z" fill="#131313" fill-opacity="0.15"/>
<path d="M222.843 177.982H181.349C180.069 177.982 178.84 178.491 177.935 179.397C177.029 180.302 176.521 181.53 176.521 182.811C176.521 184.092 177.029 185.32 177.935 186.225C178.84 187.131 180.069 187.64 181.349 187.64H197.184V244.763C197.184 246.044 197.692 247.272 198.598 248.177C199.504 249.083 200.732 249.592 202.012 249.592C203.293 249.592 204.521 249.083 205.427 248.177C206.332 247.272 206.841 246.044 206.841 244.763V187.64H222.843C223.477 187.64 224.105 187.515 224.691 187.272C225.277 187.03 225.809 186.674 226.258 186.226C226.706 185.777 227.062 185.245 227.304 184.659C227.547 184.073 227.672 183.445 227.672 182.811C227.672 182.177 227.547 181.549 227.304 180.963C227.062 180.377 226.706 179.845 226.258 179.396C225.809 178.948 225.277 178.592 224.691 178.35C224.105 178.107 223.477 177.982 222.843 177.982Z" fill="#131313" fill-opacity="0.15"/>
<path d="M264.047 89.0824C263.092 89.0823 262.158 88.799 261.364 88.2684C260.57 87.7378 259.951 86.9836 259.585 86.1013C259.22 85.2189 259.124 84.248 259.31 83.3112C259.497 82.3745 259.957 81.514 260.632 80.8386L276.199 65.2717C276.349 65.1227 276.468 64.9454 276.549 64.75C276.63 64.5546 276.671 64.3451 276.671 64.1336V27.9311C276.671 26.6504 277.179 25.4222 278.085 24.5167C278.99 23.6111 280.219 23.1024 281.499 23.1024C282.78 23.1024 284.008 23.6111 284.914 24.5167C285.819 25.4222 286.328 26.6504 286.328 27.9311V64.1336C286.332 65.6138 286.042 67.0801 285.476 68.4476C284.91 69.8151 284.077 71.0567 283.028 72.1005L267.461 87.668C267.013 88.1171 266.481 88.4732 265.895 88.7159C265.309 88.9587 264.681 89.0832 264.047 89.0824Z" fill="#131313" fill-opacity="0.15"/>
<path d="M269.346 22.403C268.58 14.6755 275.019 8.2342 282.746 8.9992C288.462 9.56545 293.086 14.1898 293.652 19.9061C294.418 27.6336 287.979 34.0748 280.252 33.3098C274.536 32.7436 269.913 28.1192 269.346 22.403Z" fill="#131313" fill-opacity="0.15"/>
<path d="M308.318 116.125H264.047C262.766 116.125 261.538 115.616 260.632 114.711C259.727 113.805 259.218 112.577 259.218 111.296C259.218 110.015 259.727 108.787 260.632 107.882C261.538 106.976 262.766 106.467 264.047 106.467H308.318C309.599 106.467 310.827 106.976 311.733 107.882C312.638 108.787 313.147 110.015 313.147 111.296C313.147 112.577 312.638 113.805 311.733 114.711C310.827 115.616 309.599 116.125 308.318 116.125Z" fill="#131313" fill-opacity="0.15"/>
<path d="M296.166 112.544C295.399 104.817 301.839 98.3754 309.565 99.1404C315.282 99.7067 319.905 104.331 320.472 110.047C321.238 117.775 314.799 124.216 307.072 123.451C301.355 122.885 296.732 118.26 296.166 112.544Z" fill="#131313" fill-opacity="0.15"/>
<path d="M57.0202 195.32C56.3859 195.321 55.7577 195.196 55.1716 194.953C54.5856 194.71 54.0533 194.354 53.6052 193.905L38.0383 178.339C36.9889 177.295 36.1569 176.053 35.5905 174.686C35.0241 173.318 34.7344 171.852 34.7383 170.372V54.9398C34.7383 53.6592 35.2471 52.431 36.1526 51.5254C37.0582 50.6198 38.2864 50.1111 39.5671 50.1111C40.8477 50.1111 42.0759 50.6198 42.9815 51.5254C43.8871 52.431 44.3958 53.6592 44.3958 54.9398V170.371C44.3958 170.795 44.5677 171.21 44.8677 171.509L60.4346 187.076C61.1098 187.751 61.5696 188.612 61.7558 189.549C61.9421 190.485 61.8464 191.456 61.481 192.338C61.1156 193.221 60.4967 193.975 59.7027 194.506C58.9087 195.036 57.9752 195.32 57.0202 195.32Z" fill="#131313" fill-opacity="0.15"/>
<path d="M51.7202 49.4117C52.4864 41.6842 46.0471 35.243 38.3208 36.008C32.6039 36.5742 27.9808 41.1986 27.4146 46.9149C26.6483 54.6424 33.0877 61.0836 40.8139 60.3186C46.5302 59.7524 51.1533 55.128 51.7202 49.4117Z" fill="#131313" fill-opacity="0.15"/>
<path d="M57.0205 222.362H12.7487C11.468 222.362 10.2398 221.854 9.33423 220.948C8.42866 220.042 7.91992 218.814 7.91992 217.534C7.91992 216.253 8.42866 215.025 9.33423 214.119C10.2398 213.214 11.468 212.705 12.7487 212.705H57.0205C57.6547 212.705 58.2826 212.83 58.8685 213.072C59.4544 213.315 59.9868 213.671 60.4352 214.119C60.8836 214.567 61.2393 215.1 61.4819 215.686C61.7245 216.271 61.8494 216.899 61.8493 217.534C61.8494 218.168 61.7245 218.796 61.4819 219.382C61.2393 219.967 60.8836 220.5 60.4352 220.948C59.9868 221.397 59.4544 221.752 58.8685 221.995C58.2826 222.238 57.6547 222.362 57.0205 222.362Z" fill="#131313" fill-opacity="0.15"/>
<path d="M24.9015 218.782C25.6677 211.054 19.2284 204.613 11.5021 205.378C5.78523 205.944 1.16211 210.569 0.595236 216.285C-0.171014 224.012 6.26836 230.454 13.9946 229.689C19.7115 229.122 24.3346 224.498 24.9015 218.782Z" fill="#131313" fill-opacity="0.15"/>
<path d="M78.8309 310.712H78.7952L46.0065 310.606C44.7258 310.604 43.4984 310.093 42.5943 309.186C41.6902 308.279 41.1835 307.05 41.1856 305.77C41.1876 304.489 41.6984 303.261 42.6054 302.357C43.5124 301.453 44.7414 300.947 46.0221 300.949H46.0377L78.8265 301.055H78.8315C79.2559 301.055 79.6702 300.884 79.9696 300.584L96.3752 284.178C97.4191 283.128 98.6607 282.296 100.028 281.73C101.396 281.163 102.862 280.873 104.343 280.877H134.283C135.564 280.877 136.792 281.386 137.698 282.292C138.603 283.197 139.112 284.425 139.112 285.706C139.112 286.987 138.603 288.215 137.698 289.121C136.792 290.026 135.564 290.535 134.283 290.535H104.343C103.919 290.535 103.504 290.707 103.205 291.006L86.799 307.412C84.6813 309.518 81.8179 310.704 78.8309 310.712Z" fill="#131313" fill-opacity="0.15"/>
<path d="M40.8162 317.93C33.0887 318.696 26.6474 312.257 27.4124 304.53C27.9787 298.814 32.603 294.19 38.3193 293.624C46.0468 292.857 52.488 299.297 51.723 307.023C51.1568 312.74 46.5324 317.363 40.8162 317.93Z" fill="#131313" fill-opacity="0.15"/>
</g>
<g clip-path="url(#clip1_509_377)">
<path d="M245.948 252.231H98.9047C97.4917 252.231 96.1366 251.67 95.1375 250.671C94.1384 249.671 93.5771 248.316 93.5771 246.903V76.4928C93.5771 75.0797 94.1384 73.7247 95.1378 72.7253L120.253 47.6097C120.748 47.1149 121.335 46.7224 121.982 46.4546C122.628 46.1869 123.321 46.0491 124.021 46.0491H245.949C247.362 46.0491 248.717 46.6104 249.716 47.6095C250.715 48.6086 251.277 49.9636 251.277 51.3766V246.903C251.277 248.316 250.715 249.671 249.716 250.67C248.717 251.67 247.362 252.231 245.948 252.231Z" fill="#F9F7F8"/>
<path d="M119.682 109.068H225.17C226.451 109.068 227.679 108.559 228.585 107.654C229.49 106.748 229.999 105.52 229.999 104.239C229.999 102.958 229.49 101.73 228.585 100.825C227.679 99.9191 226.451 99.4104 225.17 99.4104H119.682C117.015 99.4104 114.854 101.572 114.854 104.239C114.854 106.906 117.015 109.068 119.682 109.068ZM225.17 125.439H119.682C118.402 125.439 117.173 125.947 116.268 126.853C115.362 127.758 114.854 128.987 114.854 130.267C114.854 131.548 115.362 132.776 116.268 133.682C117.173 134.587 118.402 135.096 119.682 135.096H225.17C225.805 135.096 226.432 134.971 227.018 134.728C227.604 134.486 228.136 134.13 228.585 133.682C229.033 133.233 229.389 132.701 229.631 132.115C229.874 131.529 229.999 130.901 229.999 130.267C229.999 129.633 229.874 129.005 229.631 128.419C229.388 127.833 229.033 127.301 228.584 126.853C228.136 126.404 227.604 126.049 227.018 125.806C226.432 125.563 225.804 125.438 225.17 125.439ZM119.682 161.125H188.942C190.223 161.125 191.451 160.617 192.357 159.711C193.262 158.806 193.771 157.577 193.771 156.297C193.771 155.016 193.262 153.788 192.357 152.882C191.451 151.977 190.223 151.468 188.942 151.468H119.682C119.048 151.468 118.42 151.593 117.834 151.835C117.248 152.078 116.716 152.434 116.268 152.882C115.819 153.33 115.464 153.863 115.221 154.449C114.978 155.035 114.853 155.663 114.854 156.297C114.853 156.931 114.978 157.559 115.221 158.145C115.464 158.731 115.819 159.263 116.268 159.711C116.716 160.16 117.248 160.515 117.834 160.758C118.42 161.001 119.048 161.125 119.682 161.125ZM225.17 177.496H119.682C118.402 177.496 117.173 178.005 116.268 178.91C115.362 179.816 114.854 181.044 114.854 182.325C114.854 183.605 115.362 184.834 116.268 185.739C117.173 186.645 118.402 187.154 119.682 187.154H225.17C225.805 187.153 226.432 187.029 227.018 186.786C227.604 186.543 228.136 186.187 228.585 185.739C229.033 185.291 229.389 184.758 229.631 184.172C229.874 183.587 229.999 182.959 229.999 182.324C229.999 181.69 229.874 181.062 229.631 180.477C229.388 179.891 229.033 179.358 228.584 178.91C228.136 178.462 227.604 178.106 227.018 177.863C226.432 177.621 225.804 177.496 225.17 177.496ZM212.917 203.525H119.682C118.402 203.525 117.173 204.034 116.268 204.939C115.362 205.845 114.854 207.073 114.854 208.354C114.854 209.634 115.362 210.862 116.268 211.768C117.173 212.674 118.402 213.182 119.682 213.182H212.917C214.197 213.182 215.426 212.674 216.331 211.768C217.237 210.862 217.745 209.634 217.745 208.354C217.745 207.073 217.237 205.845 216.331 204.939C215.426 204.034 214.197 203.525 212.917 203.525Z" fill="#D1D1D1"/>
<path d="M116.486 74.286H96.149C95.1996 74.286 94.724 73.1385 95.3952 72.4672L119.994 47.8685C120.665 47.1972 121.813 47.6729 121.813 48.6222V68.9591C121.813 69.6587 121.675 70.3514 121.407 70.9977C121.14 71.644 120.747 72.2313 120.253 72.726C119.758 73.2206 119.171 73.613 118.524 73.8807C117.878 74.1483 117.185 74.2861 116.486 74.286Z" fill="#E3E3E3"/>
<path d="M328.504 316.736C322.846 322.393 313.674 322.393 308.016 316.736L268.359 277.079L288.847 256.592L328.504 296.248C334.161 301.906 334.161 311.078 328.504 316.736Z" fill="#526697"/>
<path d="M296.632 260.285L272.053 284.863C266.96 289.957 258.702 289.957 253.608 284.863C248.515 279.769 248.515 271.511 253.608 266.418L278.187 241.84C283.28 236.746 291.538 236.746 296.632 241.84C301.725 246.933 301.725 255.192 296.632 260.285Z" fill="#92F7A8"/>
<path d="M214.31 281.916C258.147 281.916 293.684 246.379 293.684 202.542C293.684 158.704 258.147 123.167 214.31 123.167C170.473 123.167 134.936 158.704 134.936 202.542C134.936 246.379 170.473 281.916 214.31 281.916Z" fill="#92F7A8"/>
<path d="M270.436 146.415C251.65 127.63 225.791 120.233 201.433 124.217C217.268 126.807 232.469 134.203 244.681 146.415C275.679 177.413 275.679 227.67 244.681 258.667C232.469 270.879 217.268 278.276 201.433 280.866C225.792 284.85 251.651 277.453 270.436 258.667C301.433 227.67 301.433 177.413 270.436 146.415Z" fill="#4EF480"/>
<path d="M235.057 170.024H193.563C192.282 170.024 191.054 170.533 190.149 171.438C189.243 172.344 188.734 173.572 188.734 174.853C188.734 176.133 189.243 177.362 190.149 178.267C191.054 179.173 192.282 179.682 193.563 179.682H209.398V236.805C209.398 238.085 209.906 239.314 210.812 240.219C211.717 241.125 212.946 241.633 214.226 241.633C215.507 241.633 216.735 241.125 217.641 240.219C218.546 239.314 219.055 238.085 219.055 236.805V179.682H235.057C235.691 179.682 236.319 179.557 236.905 179.314C237.491 179.072 238.023 178.716 238.471 178.267C238.92 177.819 239.276 177.287 239.518 176.701C239.761 176.115 239.886 175.487 239.886 174.853C239.886 174.219 239.761 173.591 239.518 173.005C239.276 172.419 238.92 171.887 238.471 171.438C238.023 170.99 237.491 170.634 236.905 170.391C236.319 170.149 235.691 170.024 235.057 170.024Z" fill="#526697"/>
<path d="M276.261 81.1241C275.306 81.124 274.372 80.8408 273.578 80.3101C272.784 79.7795 272.165 79.0254 271.799 78.143C271.434 77.2606 271.338 76.2897 271.524 75.353C271.711 74.4163 272.17 73.5558 272.846 72.8804L288.412 57.3135C288.563 57.1645 288.682 56.9871 288.763 56.7917C288.844 56.5964 288.885 56.3869 288.884 56.1754V19.9729C288.884 18.6922 289.393 17.464 290.299 16.5584C291.204 15.6528 292.432 15.1441 293.713 15.1441C294.994 15.1441 296.222 15.6528 297.128 16.5584C298.033 17.464 298.542 18.6922 298.542 19.9729V56.1754C298.546 57.6555 298.256 59.1218 297.69 60.4893C297.123 61.8568 296.291 63.0984 295.242 64.1422L279.675 79.7097C279.227 80.1588 278.695 80.515 278.109 80.7577C277.523 81.0004 276.895 81.1249 276.261 81.1241Z" fill="#F7F7F7"/>
<path d="M281.56 14.4447C280.794 6.7172 287.233 0.27595 294.959 1.04095C300.676 1.6072 305.299 6.23157 305.866 11.9478C306.632 19.6753 300.193 26.1166 292.466 25.3516C286.75 24.7853 282.127 20.1609 281.56 14.4447Z" fill="#92F7A8"/>
<path d="M320.532 108.167H276.26C274.98 108.167 273.752 107.658 272.846 106.752C271.94 105.847 271.432 104.619 271.432 103.338C271.432 102.057 271.94 100.829 272.846 99.9235C273.752 99.0179 274.98 98.5092 276.26 98.5092H320.532C321.813 98.5092 323.041 99.0179 323.947 99.9235C324.852 100.829 325.361 102.057 325.361 103.338C325.361 104.619 324.852 105.847 323.947 106.752C323.041 107.658 321.813 108.167 320.532 108.167Z" fill="#F7F7F7"/>
<path d="M308.379 104.586C307.613 96.8584 314.053 90.4172 321.779 91.1822C327.496 91.7484 332.119 96.3728 332.686 102.089C333.452 109.817 327.013 116.258 319.286 115.493C313.569 114.927 308.946 110.302 308.379 104.586Z" fill="#E4BDDA"/>
<path d="M69.2341 187.362C68.5997 187.362 67.9716 187.238 67.3855 186.995C66.7995 186.752 66.2671 186.396 65.8191 185.947L50.2522 170.38C49.2028 169.336 48.3708 168.095 47.8044 166.727C47.2379 165.36 46.9483 163.894 46.9522 162.413V46.9816C46.9522 45.7009 47.4609 44.4727 48.3665 43.5671C49.2721 42.6616 50.5003 42.1528 51.7809 42.1528C53.0616 42.1528 54.2898 42.6616 55.1954 43.5671C56.1009 44.4727 56.6097 45.7009 56.6097 46.9816V162.413C56.6097 162.837 56.7816 163.252 57.0816 163.551L72.6484 179.118C73.3236 179.793 73.7834 180.654 73.9697 181.59C74.1559 182.527 74.0603 183.498 73.6949 184.38C73.3294 185.263 72.7106 186.017 71.9166 186.547C71.1226 187.078 70.1891 187.361 69.2341 187.362Z" fill="#F7F7F7"/>
<path d="M63.9341 41.4535C64.7003 33.726 58.2609 27.2847 50.5347 28.0497C44.8178 28.616 40.1947 33.2404 39.6284 38.9566C38.8622 46.6841 45.3016 53.1254 53.0278 52.3604C58.7441 51.7941 63.3672 47.1697 63.9341 41.4535Z" fill="#C0C7DA"/>
<path d="M69.2344 214.404H24.9625C23.6819 214.404 22.4537 213.895 21.5481 212.99C20.6425 212.084 20.1338 210.856 20.1338 209.575C20.1338 208.295 20.6425 207.066 21.5481 206.161C22.4537 205.255 23.6819 204.747 24.9625 204.747H69.2344C69.8686 204.746 70.4965 204.871 71.0824 205.114C71.6683 205.357 72.2006 205.712 72.649 206.161C73.0974 206.609 73.4531 207.141 73.6958 207.727C73.9384 208.313 74.0632 208.941 74.0632 209.575C74.0632 210.209 73.9384 210.837 73.6958 211.423C73.4531 212.009 73.0974 212.542 72.649 212.99C72.2006 213.438 71.6683 213.794 71.0824 214.037C70.4965 214.279 69.8686 214.404 69.2344 214.404Z" fill="#F7F7F7"/>
<path d="M37.1154 210.823C37.8816 203.096 31.4422 196.655 23.716 197.42C17.9991 197.986 13.376 202.61 12.8091 208.327C12.0429 216.054 18.4822 222.495 26.2085 221.73C31.9254 221.164 36.5485 216.54 37.1154 210.823Z" fill="#92F7A8"/>
<path d="M91.0447 302.754H91.0091L58.2204 302.648C56.9397 302.646 55.7123 302.135 54.8082 301.228C53.9041 300.321 53.3973 299.092 53.3994 297.811C53.4015 296.531 53.9122 295.303 54.8193 294.399C55.7263 293.495 56.9553 292.988 58.236 292.99H58.2516L91.0404 293.097H91.0454C91.4697 293.097 91.8841 292.925 92.1835 292.625L108.589 276.22C109.633 275.17 110.875 274.338 112.242 273.771C113.61 273.205 115.076 272.915 116.557 272.919H146.497C147.778 272.919 149.006 273.428 149.912 274.333C150.817 275.239 151.326 276.467 151.326 277.748C151.326 279.029 150.817 280.257 149.912 281.162C149.006 282.068 147.778 282.577 146.497 282.577H116.557C116.133 282.577 115.718 282.748 115.418 283.048L99.0129 299.453C96.8951 301.56 94.0318 302.746 91.0447 302.754Z" fill="#F7F7F7"/>
<path d="M53.03 309.972C45.3025 310.738 38.8613 304.298 39.6263 296.572C40.1925 290.855 44.8169 286.232 50.5332 285.665C58.2607 284.899 64.7019 291.338 63.9369 299.065C63.3707 304.782 58.7463 309.405 53.03 309.972Z" fill="#E4BDDA"/>
</g>
<defs>
<clipPath id="clip0_509_377">
<rect width="320" height="320" fill="white" transform="translate(0.533203 8.93738)"/>
</clipPath>
<clipPath id="clip1_509_377">
<rect width="320" height="320" fill="white" transform="translate(12.7471 0.979126)"/>
</clipPath>
</defs>
</svg>
