<svg width="309" height="309" viewBox="0 0 309 309" fill="none" xmlns="http://www.w3.org/2000/svg">
<g clip-path="url(#clip0_538_386)">
<path d="M156.571 308.282C235.854 308.282 300.126 244.011 300.126 164.728C300.126 85.4447 235.854 21.1731 156.571 21.1731C77.2882 21.1731 13.0166 85.4447 13.0166 164.728C13.0166 244.011 77.2882 308.282 156.571 308.282Z" fill="#131313" fill-opacity="0.15"/>
<path d="M141.723 149.878C152.815 138.787 167.561 132.679 183.244 132.679C193.929 132.679 204.177 135.516 213.132 140.83V39.7842H0.125977V225.474C0.125977 228.696 2.7627 231.333 5.98535 231.333H140.203C118.845 208.337 119.35 172.252 141.723 149.878Z" fill="#131313" fill-opacity="0.15"/>
<path d="M13.415 225.474V39.7842H0.125977V225.474C0.125977 228.696 2.7627 231.333 5.98535 231.333H19.2744C16.0518 231.333 13.415 228.696 13.415 225.474Z" fill="#131313" fill-opacity="0.15"/>
<path d="M209.783 8.28247H3.4752C1.63301 8.28247 0.125977 9.7895 0.125977 11.6317V41.4454H213.132V11.6317C213.132 9.7895 211.625 8.28247 209.783 8.28247Z" fill="#131313" fill-opacity="0.15"/>
<path d="M16.7643 8.28247H3.4752C1.63301 8.28247 0.125977 9.7895 0.125977 11.6317V41.4454H13.415V11.6317C13.415 9.7895 14.9221 8.28247 16.7643 8.28247Z" fill="#131313" fill-opacity="0.15"/>
<path d="M92.8562 112.94C92.8562 114.551 91.5379 115.869 89.9266 115.869H24.6279C23.0166 115.869 21.6982 114.551 21.6982 112.94V66.1122C21.6982 64.5009 23.0166 63.1825 24.6279 63.1825H89.926C91.5373 63.1825 92.8557 64.5009 92.8557 66.1122L92.8562 112.94Z" fill="#131313" fill-opacity="0.15"/>
<path d="M34.9873 112.94V66.1122C34.9873 64.5009 36.3057 63.1825 37.917 63.1825H24.6279C23.0166 63.1825 21.6982 64.5009 21.6982 66.1122V112.94C21.6982 114.551 23.0166 115.869 24.6279 115.869H37.917C36.3057 115.869 34.9873 114.551 34.9873 112.94Z" fill="#131313" fill-opacity="0.15"/>
<path d="M127.362 173.393H24.6279C23.0166 173.393 21.6982 174.711 21.6982 176.322V204.335C21.6982 205.947 23.0166 207.265 24.6279 207.265H126.725C123.634 196.186 123.845 184.371 127.362 173.393Z" fill="#131313" fill-opacity="0.15"/>
<path d="M34.9873 204.335V176.322C34.9873 174.711 36.3057 173.393 37.917 173.393H24.6279C23.0166 173.393 21.6982 174.711 21.6982 176.322V204.335C21.6982 205.947 23.0166 207.265 24.6279 207.265H37.917C36.3057 207.265 34.9873 205.947 34.9873 204.335Z" fill="#131313" fill-opacity="0.15"/>
<path d="M127.362 173.393H106.093V207.265H126.725C123.634 196.186 123.844 184.371 127.362 173.393Z" fill="#131313" fill-opacity="0.15"/>
<path d="M188.068 67.577H116.239C115.073 67.577 113.955 67.114 113.131 66.2899C112.307 65.4658 111.844 64.348 111.844 63.1825C111.844 62.017 112.307 60.8992 113.131 60.0751C113.955 59.251 115.073 58.788 116.239 58.788H188.068C190.496 58.788 192.463 60.7555 192.463 63.1825C192.463 65.6094 190.496 67.577 188.068 67.577ZM188.068 85.1393H116.239C115.073 85.1393 113.955 84.6763 113.131 83.8522C112.307 83.0281 111.844 81.9103 111.844 80.7448C111.844 79.5793 112.307 78.4615 113.131 77.6374C113.955 76.8133 115.073 76.3503 116.239 76.3503H188.068C189.234 76.3503 190.351 76.8133 191.176 77.6374C192 78.4615 192.463 79.5793 192.463 80.7448C192.463 81.9103 192 83.0281 191.176 83.8522C190.351 84.6763 189.234 85.1393 188.068 85.1393ZM188.068 102.702H116.239C115.073 102.702 113.955 102.239 113.131 101.415C112.307 100.59 111.844 99.4726 111.844 98.3071C111.844 97.1416 112.307 96.0238 113.131 95.1997C113.955 94.3756 115.073 93.9126 116.239 93.9126H188.068C190.496 93.9126 192.463 95.8802 192.463 98.3071C192.463 100.734 190.496 102.702 188.068 102.702ZM188.068 120.264H116.239C115.073 120.264 113.955 119.801 113.131 118.977C112.307 118.153 111.844 117.035 111.844 115.869C111.844 114.704 112.307 113.586 113.131 112.762C113.955 111.938 115.073 111.475 116.239 111.475H188.068C190.496 111.475 192.463 113.442 192.463 115.869C192.463 118.296 190.496 120.264 188.068 120.264ZM175.591 133.174H21.6982C19.2707 133.174 17.3037 135.141 17.3037 137.568C17.3037 139.995 19.2707 141.963 21.6982 141.963H151.527C158.794 137.279 167.015 134.276 175.591 133.174ZM140.582 151.053H21.6982C19.2707 151.053 17.3037 153.021 17.3037 155.448C17.3037 157.875 19.2707 159.842 21.6982 159.842H133.722C135.724 156.701 138.021 153.758 140.582 151.053Z" fill="#131313" fill-opacity="0.15"/>
<path d="M20.5723 28.5618C19.4127 28.5618 18.2812 28.093 17.4609 27.278C16.6417 26.4495 16.1809 25.3323 16.1777 24.1672C16.1777 23.0124 16.6465 21.8821 17.4609 21.0618C18.2875 20.2387 19.4058 19.7754 20.5723 19.7727C21.7271 19.7727 22.8633 20.2409 23.6777 21.0618C24.498 21.8821 24.9668 23.0129 24.9668 24.1672C24.9668 25.3268 24.498 26.4583 23.6777 27.278C22.8515 28.0973 21.7359 28.5585 20.5723 28.5618Z" fill="#131313" fill-opacity="0.15"/>
<path d="M34.9834 28.5618C33.8185 28.5598 32.7019 28.0961 31.8782 27.2724C31.0545 26.4487 30.5909 25.3321 30.5889 24.1672C30.5889 23.0124 31.0576 21.8821 31.8773 21.0618C32.6977 20.2415 33.8285 19.7727 34.9834 19.7727C36.1499 19.7754 37.2681 20.2387 38.0947 21.0618C38.9092 21.8821 39.3779 23.0129 39.3779 24.1672C39.3779 25.3215 38.9086 26.4583 38.0947 27.2721C37.2682 28.0954 36.15 28.5589 34.9834 28.5618Z" fill="#131313" fill-opacity="0.15"/>
<path d="M49.4004 28.5618C48.2402 28.5618 47.1094 28.093 46.2949 27.278C45.472 26.4515 45.0087 25.3335 45.0059 24.1672C45.0074 23.0022 45.4709 21.8853 46.2947 21.0615C47.1185 20.2377 48.2354 19.7743 49.4004 19.7727C50.5547 19.7727 51.6914 20.2409 52.5059 21.0618C53.3262 21.8821 53.7949 23.0129 53.7949 24.1672C53.7949 25.3268 53.3262 26.4583 52.5059 27.278C51.6789 28.0963 50.5638 28.5573 49.4004 28.5618Z" fill="#131313" fill-opacity="0.15"/>
<path d="M240.225 236.333L228.181 248.378L251.874 272.072C256.122 268.297 260.144 264.275 263.919 260.027L240.225 236.333Z" fill="#131313" fill-opacity="0.15"/>
<path d="M245.006 229.07L235.024 219.089C232.305 224.18 228.847 228.84 224.763 232.918C220.623 237.058 215.973 240.503 210.955 243.196L220.918 253.158C222.057 254.298 223.921 254.298 225.061 253.158L245.006 233.213C246.145 232.074 246.145 230.21 245.006 229.07Z" fill="#131313" fill-opacity="0.15"/>
<path d="M227.753 246.322L219.233 237.802C216.631 239.83 213.861 241.634 210.954 243.195L220.917 253.157C222.056 254.297 223.92 254.297 225.06 253.157L231.896 246.321C231.346 246.869 230.601 247.176 229.825 247.177C229.048 247.177 228.303 246.869 227.753 246.322Z" fill="#131313" fill-opacity="0.15"/>
<path d="M225.592 149.049C248.98 172.437 248.98 210.358 225.592 233.747C202.204 257.133 164.284 257.134 140.894 233.746C117.506 210.358 117.507 172.437 140.894 149.049C164.284 125.66 202.204 125.66 225.592 149.049Z" fill="#131313" fill-opacity="0.15"/>
<path d="M212.937 221.09C196.539 237.488 169.951 237.488 153.551 221.089C137.153 204.692 137.152 178.103 153.551 161.704C169.949 145.306 196.538 145.307 212.936 161.704C229.335 178.104 229.335 204.691 212.937 221.09Z" fill="#131313" fill-opacity="0.15"/>
<path d="M212.937 221.09C214.407 219.619 215.767 218.041 217.005 216.369C200.566 228.56 177.246 227.206 162.34 212.3C147.435 197.396 146.081 174.075 158.271 157.636C156.6 158.875 155.022 160.234 153.551 161.704C137.152 178.103 137.153 204.691 153.551 221.089C169.951 237.488 196.539 237.488 212.937 221.09Z" fill="#131313" fill-opacity="0.15"/>
<path d="M209.783 8.28247H68.043V41.4454H213.132V11.6317C213.132 9.7895 211.625 8.28247 209.783 8.28247Z" fill="#131313" fill-opacity="0.15"/>
<path d="M190.456 170.312C194.339 170.312 197.487 167.164 197.487 163.281C197.487 159.397 194.339 156.249 190.456 156.249C186.573 156.249 183.425 159.397 183.425 163.281C183.425 167.164 186.573 170.312 190.456 170.312Z" fill="#131313" fill-opacity="0.15"/>
<path d="M205.228 175.568C207.978 175.568 210.208 173.338 210.208 170.587C210.208 167.837 207.978 165.607 205.228 165.607C202.477 165.607 200.247 167.837 200.247 170.587C200.247 173.338 202.477 175.568 205.228 175.568Z" fill="#131313" fill-opacity="0.15"/>
</g>
<g clip-path="url(#clip1_538_386)">
<path d="M165.445 300.958C244.728 300.958 309 236.687 309 157.404C309 78.1205 244.728 13.8489 165.445 13.8489C86.1622 13.8489 21.8906 78.1205 21.8906 157.404C21.8906 236.687 86.1622 300.958 165.445 300.958Z" fill="#526697"/>
<path d="M150.597 142.554C161.689 131.463 176.435 125.355 192.118 125.355C202.804 125.355 213.051 128.192 222.006 133.506V32.46H9V218.149C9 221.372 11.6367 224.009 14.8594 224.009H149.077C127.719 201.013 128.224 164.928 150.597 142.554Z" fill="#EEF6FF"/>
<path d="M22.2891 218.149V32.46H9V218.149C9 221.372 11.6367 224.009 14.8594 224.009H28.1484C24.9258 224.009 22.2891 221.372 22.2891 218.149Z" fill="#C3DDF4"/>
<path d="M218.657 0.958252H12.3492C10.507 0.958252 9 2.46528 9 4.30747V34.1211H222.006V4.30747C222.006 2.46528 220.499 0.958252 218.657 0.958252Z" fill="#344D87"/>
<path d="M25.6383 0.958252H12.3492C10.507 0.958252 9 2.46528 9 4.30747V34.1211H22.2891V4.30747C22.2891 2.46528 23.7961 0.958252 25.6383 0.958252Z" fill="#1A2B63"/>
<path d="M101.73 105.616C101.73 107.227 100.412 108.545 98.8006 108.545H33.502C31.8906 108.545 30.5723 107.227 30.5723 105.616V58.788C30.5723 57.1766 31.8906 55.8583 33.502 55.8583H98.8C100.411 55.8583 101.73 57.1766 101.73 58.788L101.73 105.616Z" fill="#7081A8"/>
<path d="M43.8613 105.616V58.788C43.8613 57.1766 45.1797 55.8583 46.791 55.8583H33.502C31.8906 55.8583 30.5723 57.1766 30.5723 58.788V105.616C30.5723 107.227 31.8906 108.545 33.502 108.545H46.791C45.1797 108.545 43.8613 107.227 43.8613 105.616Z" fill="#526697"/>
<path d="M136.236 166.068H33.502C31.8906 166.068 30.5723 167.387 30.5723 168.998V197.011C30.5723 198.622 31.8906 199.941 33.502 199.941H135.599C132.508 188.861 132.719 177.046 136.236 166.068Z" fill="#97A4C1"/>
<path d="M43.8613 197.011V168.998C43.8613 167.387 45.1797 166.068 46.791 166.068H33.502C31.8906 166.068 30.5723 167.387 30.5723 168.998V197.011C30.5723 198.622 31.8906 199.941 33.502 199.941H46.791C45.1797 199.941 43.8613 198.622 43.8613 197.011Z" fill="#7081A8"/>
<path d="M136.236 166.068H114.967V199.941H135.599C132.508 188.861 132.718 177.046 136.236 166.068Z" fill="#C0C7DA"/>
<path d="M196.942 60.2528H125.113C123.947 60.2528 122.829 59.7898 122.005 58.9657C121.181 58.1415 120.718 57.0238 120.718 55.8583C120.718 54.6928 121.181 53.575 122.005 52.7509C122.829 51.9267 123.947 51.4637 125.113 51.4637H196.942C199.37 51.4637 201.337 53.4313 201.337 55.8583C201.337 58.2852 199.37 60.2528 196.942 60.2528ZM196.942 77.8151H125.113C123.947 77.8151 122.829 77.3521 122.005 76.528C121.181 75.7039 120.718 74.5861 120.718 73.4206C120.718 72.2551 121.181 71.1373 122.005 70.3132C122.829 69.489 123.947 69.026 125.113 69.026H196.942C198.108 69.026 199.225 69.489 200.05 70.3132C200.874 71.1373 201.337 72.2551 201.337 73.4206C201.337 74.5861 200.874 75.7039 200.05 76.528C199.225 77.3521 198.108 77.8151 196.942 77.8151ZM196.942 95.3774H125.113C123.947 95.3774 122.829 94.9144 122.005 94.0903C121.181 93.2662 120.718 92.1484 120.718 90.9829C120.718 89.8174 121.181 88.6996 122.005 87.8755C122.829 87.0513 123.947 86.5884 125.113 86.5884H196.942C199.37 86.5884 201.337 88.5559 201.337 90.9829C201.337 93.4098 199.37 95.3774 196.942 95.3774ZM196.942 112.94H125.113C123.947 112.94 122.829 112.477 122.005 111.653C121.181 110.828 120.718 109.711 120.718 108.545C120.718 107.38 121.181 106.262 122.005 105.438C122.829 104.614 123.947 104.151 125.113 104.151H196.942C199.37 104.151 201.337 106.118 201.337 108.545C201.337 110.972 199.37 112.94 196.942 112.94ZM184.465 125.85H30.5723C28.1447 125.85 26.1777 127.817 26.1777 130.244C26.1777 132.671 28.1447 134.639 30.5723 134.639H160.401C167.668 129.955 175.889 126.952 184.465 125.85ZM149.456 143.729H30.5723C28.1447 143.729 26.1777 145.697 26.1777 148.124C26.1777 150.55 28.1447 152.518 30.5723 152.518H142.596C144.598 149.377 146.895 146.434 149.456 143.729Z" fill="#7081A8"/>
<path d="M29.4463 21.2375C28.2867 21.2375 27.1553 20.7688 26.335 19.9538C25.5158 19.1253 25.0549 18.0081 25.0518 16.843C25.0518 15.6881 25.5205 14.5579 26.335 13.7375C27.1616 12.9145 28.2798 12.4512 29.4463 12.4485C30.6012 12.4485 31.7373 12.9166 32.5518 13.7375C33.3721 14.5579 33.8408 15.6887 33.8408 16.843C33.8408 18.0026 33.3721 19.134 32.5518 19.9538C31.7255 20.7731 30.6099 21.2343 29.4463 21.2375Z" fill="#D392C2"/>
<path d="M43.8574 21.2375C42.6925 21.2355 41.5759 20.7719 40.7522 19.9482C39.9285 19.1245 39.4649 18.0079 39.4629 16.843C39.4629 15.6881 39.9316 14.5579 40.7514 13.7375C41.5717 12.9172 42.7025 12.4485 43.8574 12.4485C45.0239 12.4512 46.1422 12.9145 46.9688 13.7375C47.7832 14.5579 48.252 15.6887 48.252 16.843C48.252 17.9973 47.7826 19.134 46.9688 19.9479C46.1423 20.7712 45.024 21.2347 43.8574 21.2375Z" fill="#97A4C1"/>
<path d="M58.2744 21.2375C57.1143 21.2375 55.9834 20.7688 55.1689 19.9538C54.346 19.1273 53.8827 18.0093 53.8799 16.843C53.8814 15.678 54.3449 14.5611 55.1687 13.7373C55.9925 12.9135 57.1094 12.45 58.2744 12.4485C59.4287 12.4485 60.5654 12.9166 61.3799 13.7375C62.2002 14.5579 62.6689 15.6887 62.6689 16.843C62.6689 18.0026 62.2002 19.134 61.3799 19.9538C60.5529 20.772 59.4378 21.233 58.2744 21.2375Z" fill="#92F7A8"/>
<path d="M249.099 229.009L237.055 241.054L260.748 264.747C264.996 260.973 269.018 256.951 272.793 252.703L249.099 229.009Z" fill="#92F7A8"/>
<path d="M253.88 221.746L243.898 211.765C241.179 216.856 237.721 221.516 233.637 225.594C229.497 229.734 224.847 233.179 219.829 235.872L229.792 245.834C230.931 246.974 232.795 246.974 233.935 245.834L253.88 225.889C255.019 224.75 255.019 222.886 253.88 221.746Z" fill="#4EF480"/>
<path d="M236.627 238.998L228.107 230.478C225.505 232.506 222.735 234.31 219.828 235.871L229.791 245.833C230.93 246.973 232.794 246.973 233.934 245.833L240.77 238.997C240.22 239.545 239.475 239.852 238.699 239.852C237.922 239.852 237.177 239.545 236.627 238.998Z" fill="#00EE5D"/>
<path d="M234.466 141.724C257.854 165.113 257.854 203.033 234.466 226.422C211.078 249.809 173.158 249.809 149.768 226.422C126.38 203.033 126.381 165.113 149.768 141.725C173.158 118.336 211.078 118.336 234.466 141.724Z" fill="#4EF480"/>
<path d="M221.811 213.765C205.413 230.164 178.825 230.164 162.425 213.764C146.027 197.367 146.026 170.779 162.425 154.38C178.823 137.982 205.412 137.983 221.81 154.38C238.209 170.779 238.209 197.367 221.811 213.765Z" fill="#E5FDEA"/>
<path d="M221.811 213.766C223.281 212.294 224.641 210.717 225.879 209.045C209.44 221.236 186.12 219.882 171.214 204.975C156.309 190.071 154.955 166.75 167.145 150.312C165.474 151.55 163.896 152.91 162.425 154.38C146.026 170.779 146.027 197.367 162.425 213.764C178.825 230.164 205.413 230.164 221.811 213.766Z" fill="#C0C7DA"/>
<path d="M218.657 0.958252H76.917V34.1211H222.006V4.30747C222.006 2.46528 220.499 0.958252 218.657 0.958252Z" fill="#526697"/>
<path d="M199.33 162.988C203.213 162.988 206.361 159.84 206.361 155.956C206.361 152.073 203.213 148.925 199.33 148.925C195.447 148.925 192.299 152.073 192.299 155.956C192.299 159.84 195.447 162.988 199.33 162.988Z" fill="#E3E3E3"/>
<path d="M214.102 168.243C216.852 168.243 219.082 166.014 219.082 163.263C219.082 160.512 216.852 158.282 214.102 158.282C211.351 158.282 209.121 160.512 209.121 163.263C209.121 166.014 211.351 168.243 214.102 168.243Z" fill="#E3E3E3"/>
</g>
<defs>
<clipPath id="clip0_538_386">
<rect width="300" height="300" fill="white" transform="translate(0.125977 8.28247)"/>
</clipPath>
<clipPath id="clip1_538_386">
<rect width="300" height="300" fill="white" transform="translate(9 0.958252)"/>
</clipPath>
</defs>
</svg>
