<svg xmlns="http://www.w3.org/2000/svg" version="1.1" xmlns:xlink="http://www.w3.org/1999/xlink" xmlns:svgjs="http://svgjs.com/svgjs" width="512" height="512" x="0" y="0" viewBox="0 0 682.667 682.667" style="enable-background:new 0 0 512 512" xml:space="preserve" class=""><g><defs><clipPath id="a" clipPathUnits="userSpaceOnUse"><path d="M0 512h512V0H0Z" fill="#000000" data-original="#000000"></path></clipPath></defs><g clip-path="url(#a)" transform="matrix(1.33333 0 0 -1.33333 0 682.667)"><path d="M0 0c-76.279 76.279-199.954 76.279-276.233 0-76.28-76.28-76.28-199.954 0-276.233 76.279-76.28 199.954-76.28 276.233 0C76.28-199.954 76.28-76.28 0 0Z" style="stroke-width:15;stroke-linecap:round;stroke-linejoin:round;stroke-miterlimit:10;stroke-dasharray:none;stroke-opacity:1" transform="translate(447.29 447.29)" fill="none" stroke="#000000" stroke-width="15" stroke-linecap="round" stroke-linejoin="round" stroke-miterlimit="10" stroke-dasharray="none" stroke-opacity="" data-original="#000000" class=""></path><path d="M0 0c-61.942 61.942-162.371 61.942-224.312 0-61.943-61.942-61.943-162.371 0-224.312 61.941-61.942 162.37-61.942 224.312 0C61.941-162.371 61.941-61.942 0 0Z" style="stroke-width:15;stroke-linecap:round;stroke-linejoin:round;stroke-miterlimit:10;stroke-dasharray:none;stroke-opacity:1" transform="translate(421.33 421.33)" fill="none" stroke="#000000" stroke-width="15" stroke-linecap="round" stroke-linejoin="round" stroke-miterlimit="10" stroke-dasharray="none" stroke-opacity="" data-original="#000000" class=""></path><path d="M0 0a160.376 160.376 0 0 1-10.541 11.56c-61.637 61.312-162.073 61.312-223.71 0A160.36 160.36 0 0 1-244.791 0c-6.42-7.772-6.29-19.028.141-26.792a160.164 160.164 0 0 1 10.098-11.087c61.942-61.943 162.37-61.943 224.313 0A160.148 160.148 0 0 1-.142-26.792C6.289-19.028 6.42-7.772 0 0Z" style="stroke-width:15;stroke-linecap:round;stroke-linejoin:round;stroke-miterlimit:10;stroke-dasharray:none;stroke-opacity:1" transform="translate(431.57 322.57)" fill="none" stroke="#000000" stroke-width="15" stroke-linecap="round" stroke-linejoin="round" stroke-miterlimit="10" stroke-dasharray="none" stroke-opacity="" data-original="#000000" class=""></path><path d="m0 0 21.323 21.323c5.795 5.795 5.796 15.192 0 20.987L2.72 60.914c-5.796 5.795-15.193 5.795-20.989 0l-21.322-21.323Z" style="stroke-width:15;stroke-linecap:round;stroke-linejoin:round;stroke-miterlimit:10;stroke-dasharray:none;stroke-opacity:1" transform="translate(131.755 92.164)" fill="none" stroke="#000000" stroke-width="15" stroke-linecap="round" stroke-linejoin="round" stroke-miterlimit="10" stroke-dasharray="none" stroke-opacity="" data-original="#000000" class=""></path><path d="m0 0-28.383-28.383a14.823 14.823 0 0 0 3.798-2.744l18.604-18.604a14.83 14.83 0 0 0 2.744-3.798l28.383 28.383a197.627 197.627 0 0 0-13.149 11.997A197.627 197.627 0 0 0 0 0Z" style="stroke-width:15;stroke-linecap:round;stroke-linejoin:round;stroke-miterlimit:10;stroke-dasharray:none;stroke-opacity:1" transform="translate(159.06 184.206)" fill="none" stroke="#000000" stroke-width="15" stroke-linecap="round" stroke-linejoin="round" stroke-miterlimit="10" stroke-dasharray="none" stroke-opacity="" data-original="#000000" class=""></path><path d="M0 0c0-19.583-15.875-35.458-35.457-35.458-19.583 0-35.458 15.875-35.458 35.458s15.875 35.458 35.458 35.458C-15.875 35.458 0 19.583 0 0Z" style="stroke-width:15;stroke-linecap:round;stroke-linejoin:round;stroke-miterlimit:10;stroke-dasharray:none;stroke-opacity:1" transform="translate(344.63 309.15)" fill="none" stroke="#000000" stroke-width="15" stroke-linecap="round" stroke-linejoin="round" stroke-miterlimit="10" stroke-dasharray="none" stroke-opacity="" data-original="#000000" class=""></path><path d="m0 0 51.062 51.061c5.794 5.796 5.795 15.192 0 20.988L32.458 90.653c-5.796 5.795-15.192 5.795-20.987-.001L-90.17-10.988c-5.796-5.796-5.795-15.192 0-20.987l18.604-18.604c5.795-5.796 15.191-5.796 20.987 0l25.808 25.808" style="stroke-width:15;stroke-linecap:round;stroke-linejoin:round;stroke-miterlimit:10;stroke-dasharray:none;stroke-opacity:1" transform="translate(102.017 62.426)" fill="none" stroke="#000000" stroke-width="15" stroke-linecap="round" stroke-linejoin="round" stroke-miterlimit="10" stroke-dasharray="none" stroke-opacity="" data-original="#000000" class=""></path><path d="M0 0c-7.939 30.488-35.653 52.996-68.627 52.996-39.166 0-70.916-31.75-70.916-70.916 0-39.165 31.75-70.915 70.916-70.915C-35.352-88.835-7.442-65.913.204-35" style="stroke-width:15;stroke-linecap:round;stroke-linejoin:round;stroke-miterlimit:10;stroke-dasharray:none;stroke-opacity:1" transform="translate(377.8 327.07)" fill="none" stroke="#000000" stroke-width="15" stroke-linecap="round" stroke-linejoin="round" stroke-miterlimit="10" stroke-dasharray="none" stroke-opacity="" data-original="#000000" class=""></path></g></g></svg>