<svg width="528" height="513" viewBox="0 0 528 513" fill="none" xmlns="http://www.w3.org/2000/svg">
<g clip-path="url(#clip0_530_428)">
<path d="M158.805 328.591L125.152 362.244C126.639 362.91 127.992 363.84 129.146 364.989L148.311 384.154C149.461 385.308 150.391 386.661 151.056 388.148L184.709 354.495C179.999 350.671 175.441 346.592 171.074 342.225C166.707 337.858 162.629 333.301 158.805 328.591Z" fill="#131313" fill-opacity="0.15"/>
<path d="M311.08 403.443C422.212 403.443 512.302 313.353 512.302 202.221C512.302 91.089 422.212 0.998871 311.08 0.998871C199.949 0.998871 109.858 91.089 109.858 202.221C109.858 313.353 199.949 403.443 311.08 403.443Z" fill="#131313" fill-opacity="0.15"/>
<path d="M128.307 425.779L128.165 421.486L92.3664 384.994H87.5214L4.78036 467.735C-1.18964 473.705 -1.18964 483.385 4.78036 489.355L23.9454 508.52C29.9164 514.49 39.5954 514.491 45.5654 508.52L128.307 425.779Z" fill="#131313" fill-opacity="0.15"/>
<path d="M128.307 425.779L150.273 403.813C156.244 397.843 156.244 388.163 150.273 382.192L131.108 363.027C125.138 357.057 115.458 357.057 109.487 363.027L87.5214 384.994L128.307 425.779Z" fill="#131313" fill-opacity="0.15"/>
</g>
<g clip-path="url(#clip1_530_428)">
<path d="M174.503 328.592L140.85 362.245C142.336 362.911 143.69 363.841 144.844 364.99L164.009 384.155C165.159 385.309 166.089 386.662 166.754 388.149L200.407 354.496C195.697 350.672 191.139 346.593 186.772 342.226C182.405 337.859 178.327 333.302 174.503 328.592Z" fill="#C0C7DA"/>
<path d="M155.102 375.246L187.457 342.891C187.231 342.667 186.999 342.451 186.774 342.226C182.451 337.896 178.356 333.345 174.504 328.591L140.852 362.244C142.338 362.91 143.692 363.84 144.846 364.989L155.102 375.246Z" fill="#ACACAC"/>
<path d="M326.778 403.444C437.91 403.444 528 313.354 528 202.222C528 91.0902 437.91 1 326.778 1C215.646 1 125.556 91.0902 125.556 202.222C125.556 313.354 215.646 403.444 326.778 403.444Z" fill="#E6E9F0"/>
<path d="M229.386 344.507C150.804 265.925 150.804 138.519 229.386 59.937C262.958 26.365 305.444 7.149 349.225 2.262C290.529 -4.289 229.503 14.927 184.493 59.937C105.911 138.519 105.911 265.925 184.493 344.507C229.503 389.516 290.529 408.732 349.225 402.182C305.443 397.295 262.958 378.079 229.386 344.507Z" fill="#C0C7DA"/>
<path d="M144.005 425.78L143.863 421.487L108.064 384.995H103.219L20.478 467.736C14.508 473.706 14.508 483.386 20.478 489.356L39.643 508.521C45.614 514.491 55.293 514.492 61.263 508.521L144.005 425.78Z" fill="#92F7A8"/>
<path d="M30.717 499.595L126.512 403.8L108.064 384.995H103.219L20.478 467.736C14.508 473.706 14.508 483.386 20.478 489.356L30.717 499.595Z" fill="#4EF480"/>
<path d="M144.005 425.78L165.971 403.814C171.942 397.844 171.942 388.164 165.971 382.193L146.806 363.028C140.836 357.058 131.156 357.058 125.185 363.028L103.219 384.995L144.005 425.78Z" fill="#4EF480"/>
<path d="M157.045 373.267L146.806 363.028C140.836 357.058 131.156 357.058 125.185 363.028L103.219 384.995L124.268 406.044L157.045 373.267Z" fill="#00EE5D"/>
<path d="M326.778 365.622C417.021 365.622 490.178 292.465 490.178 202.222C490.178 111.979 417.021 38.822 326.778 38.822C236.535 38.822 163.378 111.979 163.378 202.222C163.378 292.465 236.535 365.622 326.778 365.622Z" fill="#526697"/>
<path d="M256.13 317.763C192.319 253.952 192.319 150.493 256.13 86.681C282.312 60.499 315.17 45.068 349.225 40.371C300.282 33.621 248.867 49.051 211.238 86.681C147.427 150.493 147.427 253.952 211.238 317.763C248.867 355.392 300.283 370.823 349.225 364.073C315.17 359.376 282.312 343.945 256.13 317.763Z" fill="#1F3467"/>
<path d="M452.868 188.421C449.444 184.277 445.82 180.303 442.009 176.513C378.513 113.351 275.044 113.351 211.548 176.513C207.737 180.303 204.113 184.277 200.689 188.421C194.075 196.428 194.209 208.023 200.834 216.021C204.121 219.989 207.593 223.801 211.237 227.444C275.048 291.256 378.508 291.256 442.319 227.444C445.963 223.801 449.435 219.989 452.722 216.021C459.348 208.023 459.482 196.428 452.868 188.421Z" fill="#E6E9F0"/>
<path d="M247.617 236.322C242.69 231.397 237.997 226.243 233.552 220.879C224.595 210.066 224.414 194.389 233.355 183.564C237.983 177.961 242.883 172.588 248.036 167.464C261.757 153.807 277.224 142.026 294.036 132.428C263.779 138.548 234.947 153.236 211.546 176.514C207.735 180.304 204.111 184.278 200.687 188.422C194.073 196.429 194.207 208.024 200.832 216.022C204.119 219.99 207.591 223.802 211.235 227.445C234.865 251.075 263.934 265.945 294.411 272.074C277.29 262.295 261.552 250.271 247.617 236.322Z" fill="#C0C7DA"/>
<path d="M326.778 275.303C367.126 275.303 399.834 242.595 399.834 202.247C399.834 161.899 367.126 129.191 326.778 129.191C286.43 129.191 253.722 161.899 253.722 202.247C253.722 242.595 286.43 275.303 326.778 275.303Z" fill="#4EF480"/>
<path d="M279.477 202.247C279.477 166.296 305.453 136.432 339.656 130.346C335.406 129.583 331.097 129.197 326.779 129.191C286.431 129.191 253.723 161.899 253.723 202.247C253.723 242.595 286.431 275.303 326.779 275.303C331.175 275.303 335.474 274.893 339.656 274.148C305.453 268.062 279.477 238.198 279.477 202.247Z" fill="#00EE5D"/>
<path d="M326.778 238.775C346.952 238.775 363.306 222.421 363.306 202.247C363.306 182.073 346.952 165.719 326.778 165.719C306.604 165.719 290.25 182.073 290.25 202.247C290.25 222.421 306.604 238.775 326.778 238.775Z" fill="#1F3467"/>
<path d="M316.005 202.247C316.005 186.607 325.837 173.269 339.656 168.061C335.54 166.509 331.177 165.716 326.779 165.719C306.605 165.719 290.251 182.073 290.251 202.247C290.251 222.421 306.605 238.775 326.779 238.775C331.313 238.775 335.65 237.943 339.656 236.433C325.837 231.225 316.005 217.887 316.005 202.247Z" fill="#152450"/>
</g>
<defs>
<clipPath id="clip0_530_428">
<rect width="512" height="512" fill="white" transform="translate(0.302368 0.998871)"/>
</clipPath>
<clipPath id="clip1_530_428">
<rect width="512" height="512" fill="white" transform="translate(16 1)"/>
</clipPath>
</defs>
</svg>
