<svg xmlns="http://www.w3.org/2000/svg" version="1.1" xmlns:xlink="http://www.w3.org/1999/xlink" xmlns:svgjs="http://svgjs.com/svgjs" width="512" height="512" x="0" y="0" viewBox="0 0 60 60" style="enable-background:new 0 0 512 512" xml:space="preserve" class=""><g><g fill="#000" fill-rule="nonzero"><path d="M60 23.5a8.486 8.486 0 0 0-3.189-6.626A2.992 2.992 0 0 0 56 11h-.391A4.036 4.036 0 0 1 55 8.5a4.036 4.036 0 0 1 .609-2.5H56a3 3 0 0 0 0-6H28.5a8.478 8.478 0 0 0-6.428 2.954 2.983 2.983 0 0 0-1.972-1.3L12.221.264A3 3 0 0 0 8.745 2.7L1.8 42.089A2.931 2.931 0 0 0 2.965 45 3 3 0 0 0 0 48v9a3 3 0 0 0 3 3h54a3 3 0 0 0 3-3v-9a2.994 2.994 0 0 0-1.4-2.529c.26-.447.397-.954.4-1.471a3 3 0 0 0-3-3h-.391A4.036 4.036 0 0 1 55 38.5a4.036 4.036 0 0 1 .609-2.5H56a2.992 2.992 0 0 0 .811-5.874A8.486 8.486 0 0 0 60 23.5zm-2 0a6.508 6.508 0 0 1-6.5 6.5H24a1 1 0 0 1 0-2h27.5a4.5 4.5 0 0 0 0-9H24a1 1 0 0 1 0-2h27.5a6.508 6.508 0 0 1 6.5 6.5zM14.485 39.249l-9.847-1.736.694-3.939 9.848 1.736zm-.347 1.97-.521 2.954a1 1 0 0 1-1.158.811L4.581 43.6a1 1 0 0 1-.812-1.158l.521-2.955zm1.449 3.3L21.18 12.8a8.57 8.57 0 0 0 2.008 2.327A2.992 2.992 0 0 0 24 21h.391c.47.745.684 1.623.609 2.5a4.036 4.036 0 0 1-.609 2.5H24a2.992 2.992 0 0 0-.811 5.874A8.479 8.479 0 0 0 23.034 45h-7.577c.057-.156.1-.316.13-.479zM26.622 21H51.5a2.5 2.5 0 1 1 0 5H26.622a8.456 8.456 0 0 0 0-5zm26.756-10H28.5a2.5 2.5 0 1 1 0-5h24.878A7.744 7.744 0 0 0 53 8.5a7.744 7.744 0 0 0 .378 2.5zM28.5 2H56a1 1 0 0 1 0 2H28.5a4.5 4.5 0 1 0 0 9H56a1 1 0 0 1 0 2H28.5A6.508 6.508 0 0 1 22 8.5c0-.166.013-.329.025-.492l.223-1.266A6.508 6.508 0 0 1 28.5 2zM10.715 3.045a1 1 0 0 1 1.159-.812l7.878 1.39a1 1 0 0 1 .811 1.158l-.276 1.567a8.447 8.447 0 0 0-.25 1.414l-4.51 25.578-9.848-1.74zM2 57v-9a1 1 0 0 1 1-1h4v11H3a1 1 0 0 1-1-1zm7 1V47h42v11zm49-1a1 1 0 0 1-1 1h-4V47h4a1 1 0 0 1 1 1zm-4.622-16H28.5a2.5 2.5 0 1 1 0-5h24.878a8.456 8.456 0 0 0 0 5zM56 32a1 1 0 0 1 0 2H28.5a4.5 4.5 0 1 0 0 9H56a1 1 0 0 1 0 2H28.5a6.5 6.5 0 1 1 0-13z" fill="#000000" data-original="#000000" class=""></path><path d="M14.771 8.837a1 1 0 0 0 1.158-.811l.348-1.97a1 1 0 0 0-1.97-.348l-.348 1.97a1 1 0 0 0 .812 1.159zM10.95 30.5a1 1 0 0 0 1.159-.811l3.126-17.726a1 1 0 0 0-1.97-.348l-3.126 17.729a1 1 0 0 0 .811 1.156zM46 49H14a2 2 0 0 0-2 2v3a2 2 0 0 0 2 2h32a2 2 0 0 0 2-2v-3a2 2 0 0 0-2-2zm-32 5v-3h32v3z" fill="#000000" data-original="#000000" class=""></path></g></g></svg>