<svg width="522" height="522" viewBox="0 0 522 522" fill="none" xmlns="http://www.w3.org/2000/svg">
<g clip-path="url(#clip0_529_377)">
<path d="M256.5 400.995L256.367 400.994C198.853 400.485 136.923 378.679 77.2736 337.933C32.6336 307.44 5.05586 277.352 3.90362 276.085C-1.30153 270.365 -1.30153 261.635 3.90362 255.915C5.05586 254.648 32.6326 224.56 77.2726 194.066C136.922 153.321 198.852 131.514 256.366 131.005C256.455 131.003 256.544 131.003 256.633 131.005C314.147 131.514 376.077 153.32 435.726 194.066C480.366 224.559 507.943 254.648 509.095 255.915C514.301 261.635 514.301 270.365 509.095 276.085C507.943 277.352 480.366 307.44 435.726 337.934C376.077 378.679 314.147 400.486 256.633 400.995H256.5Z" fill="#131313" fill-opacity="0.15"/>
<path d="M497.971 522H437.854C429.553 522 422.824 515.284 422.824 507C422.824 498.716 429.553 492 437.854 492H482.941V447C482.941 438.716 489.671 432 497.971 432C506.271 432 513 438.716 513 447V507C513 515.284 506.271 522 497.971 522Z" fill="#131313" fill-opacity="0.15"/>
<path d="M75.1465 522H15.0293C6.72912 522 0 515.284 0 507V447C0 438.716 6.72912 432 15.0293 432C23.3295 432 30.0586 438.716 30.0586 447V492H75.1465C83.4467 492 90.1758 498.716 90.1758 507C90.1758 515.284 83.4467 522 75.1465 522Z" fill="#131313" fill-opacity="0.15"/>
<path d="M497.971 100C489.671 100 482.941 93.284 482.941 85V40H437.854C429.553 40 422.824 33.284 422.824 25C422.824 16.716 429.553 10 437.854 10H497.971C506.271 10 513 16.716 513 25V85C513 93.284 506.271 100 497.971 100Z" fill="#131313" fill-opacity="0.15"/>
<path d="M15.0293 100C6.72912 100 0 93.284 0 85V25C0 16.716 6.72912 10 15.0293 10H75.1465C83.4467 10 90.1758 16.716 90.1758 25C90.1758 33.284 83.4467 40 75.1465 40H30.0586V85C30.0586 93.284 23.3295 100 15.0293 100Z" fill="#131313" fill-opacity="0.15"/>
</g>
<g clip-path="url(#clip1_529_377)">
<path d="M265.742 391.893L265.609 391.892C208.207 391.383 146.398 369.577 86.8649 328.831C42.3119 298.338 14.7879 268.25 13.6379 266.983C8.44289 261.263 8.44289 252.533 13.6379 246.813C14.7879 245.546 42.3109 215.458 86.8639 184.964C146.397 144.219 208.206 122.412 265.608 121.903C265.697 121.901 265.786 121.901 265.875 121.903C323.277 122.412 385.086 144.218 444.619 184.964C489.172 215.457 516.695 245.546 517.845 246.813C523.04 252.533 523.04 261.263 517.845 266.983C516.695 268.25 489.172 298.338 444.619 328.832C385.086 369.577 323.277 391.384 265.875 391.893H265.742Z" fill="#E3E3E3"/>
<path d="M444.619 184.964C385.086 144.219 323.277 122.412 265.875 121.903H265.742V391.892L265.875 391.891C323.277 391.382 385.086 369.576 444.619 328.83C489.172 298.337 516.695 268.248 517.845 266.981C523.04 261.261 523.04 252.531 517.845 246.811C516.696 245.546 489.172 215.458 444.619 184.964Z" fill="#D1D1D1"/>
<path d="M265.742 391.898C191.303 391.898 130.742 331.337 130.742 256.898C130.742 182.459 191.303 121.898 265.742 121.898C340.181 121.898 400.742 182.459 400.742 256.898C400.742 331.337 340.181 391.898 265.742 391.898Z" fill="#4EF480"/>
<path d="M400.742 256.898C400.742 182.459 340.181 121.898 265.742 121.898V391.898C340.181 391.898 400.742 331.337 400.742 256.898Z" fill="#00EE5D"/>
<path d="M506.742 512.898H446.742C438.458 512.898 431.742 506.182 431.742 497.898C431.742 489.614 438.458 482.898 446.742 482.898H491.742V437.898C491.742 429.614 498.458 422.898 506.742 422.898C515.026 422.898 521.742 429.614 521.742 437.898V497.898C521.742 506.182 515.026 512.898 506.742 512.898Z" fill="#1F3467"/>
<path d="M84.7419 512.898H24.7419C16.4579 512.898 9.74188 506.182 9.74188 497.898V437.898C9.74188 429.614 16.4579 422.898 24.7419 422.898C33.0259 422.898 39.7419 429.614 39.7419 437.898V482.898H84.7419C93.0259 482.898 99.7419 489.614 99.7419 497.898C99.7419 506.182 93.0259 512.898 84.7419 512.898Z" fill="#1F3467"/>
<path d="M506.742 90.898C498.458 90.898 491.742 84.182 491.742 75.898V30.898H446.742C438.458 30.898 431.742 24.182 431.742 15.898C431.742 7.61403 438.458 0.898026 446.742 0.898026H506.742C515.026 0.898026 521.742 7.61403 521.742 15.898V75.898C521.742 84.182 515.026 90.898 506.742 90.898Z" fill="#1F3467"/>
<path d="M24.7419 90.898C16.4579 90.898 9.74188 84.182 9.74188 75.898V15.898C9.74188 7.61403 16.4579 0.898026 24.7419 0.898026H84.7419C93.0259 0.898026 99.7419 7.61403 99.7419 15.898C99.7419 24.182 93.0259 30.898 84.7419 30.898H39.7419V75.898C39.7419 84.182 33.0259 90.898 24.7419 90.898Z" fill="#1F3467"/>
<path d="M265.742 316.898C232.658 316.898 205.742 289.982 205.742 256.898C205.742 223.814 232.658 196.898 265.742 196.898C298.826 196.898 325.742 223.814 325.742 256.898C325.742 289.982 298.826 316.898 265.742 316.898Z" fill="#253D74"/>
<path d="M325.742 256.898C325.742 223.814 298.826 196.898 265.742 196.898V316.898C298.826 316.898 325.742 289.982 325.742 256.898Z" fill="#1F3467"/>
</g>
<defs>
<clipPath id="clip0_529_377">
<rect width="513" height="512" fill="white" transform="translate(0 10)"/>
</clipPath>
<clipPath id="clip1_529_377">
<rect width="512" height="512" fill="white" transform="translate(9.74188 0.898026)"/>
</clipPath>
</defs>
</svg>
