<svg width="529" height="522" viewBox="0 0 529 522" fill="none" xmlns="http://www.w3.org/2000/svg">
<g clip-path="url(#clip0_538_387)">
<path d="M497.288 521.691H437.288C429.004 521.691 422.288 514.975 422.288 506.691C422.288 498.407 429.004 491.691 437.288 491.691H482.288V446.691C482.288 438.407 489.004 431.691 497.288 431.691C505.572 431.691 512.288 438.407 512.288 446.691V506.691C512.288 514.975 505.572 521.691 497.288 521.691Z" fill="#131313" fill-opacity="0.14"/>
<path d="M75.2871 521.691H15.2871C7.00311 521.691 0.287109 514.975 0.287109 506.691V446.691C0.287109 438.407 7.00311 431.691 15.2871 431.691C23.5711 431.691 30.2871 438.407 30.2871 446.691V491.691H75.2871C83.5711 491.691 90.2871 498.407 90.2871 506.691C90.2871 514.975 83.5711 521.691 75.2871 521.691Z" fill="#131313" fill-opacity="0.14"/>
<path d="M497.288 99.6906C489.004 99.6906 482.288 92.9746 482.288 84.6906V39.6906H437.288C429.004 39.6906 422.288 32.9746 422.288 24.6906C422.288 16.4066 429.004 9.69055 437.288 9.69055H497.288C505.572 9.69055 512.288 16.4066 512.288 24.6906V84.6906C512.288 92.9746 505.572 99.6906 497.288 99.6906Z" fill="#131313" fill-opacity="0.14"/>
<path d="M15.2871 99.6906C7.00311 99.6906 0.287109 92.9746 0.287109 84.6906V24.6906C0.287109 16.4066 7.00311 9.69055 15.2871 9.69055H75.2871C83.5711 9.69055 90.2871 16.4066 90.2871 24.6906C90.2871 32.9746 83.5711 39.6906 75.2871 39.6906H30.2871V84.6906C30.2871 92.9746 23.5711 99.6906 15.2871 99.6906Z" fill="#131313" fill-opacity="0.14"/>
<path d="M429.431 260.488C424.726 254.793 419.746 249.332 414.508 244.124C327.251 157.325 185.061 157.325 97.8036 244.124C92.5659 249.332 87.5857 254.793 82.8809 260.488C73.7917 271.491 73.9759 287.425 83.0801 298.416C87.5977 303.869 92.3682 309.108 97.3762 314.114C185.067 401.806 327.244 401.806 414.934 314.114C419.942 309.108 424.713 303.869 429.23 298.416C438.336 287.425 438.52 271.491 429.431 260.488Z" fill="#131313" fill-opacity="0.14"/>
</g>
<g clip-path="url(#clip1_538_387)">
<path d="M513.668 512.823H453.668C445.384 512.823 438.668 506.107 438.668 497.823C438.668 489.539 445.384 482.823 453.668 482.823H498.668V437.823C498.668 429.539 505.384 422.823 513.668 422.823C521.952 422.823 528.668 429.539 528.668 437.823V497.823C528.668 506.107 521.952 512.823 513.668 512.823Z" fill="#1F3467"/>
<path d="M91.668 512.823H31.668C23.384 512.823 16.668 506.107 16.668 497.823V437.823C16.668 429.539 23.384 422.823 31.668 422.823C39.952 422.823 46.668 429.539 46.668 437.823V482.823H91.668C99.952 482.823 106.668 489.539 106.668 497.823C106.668 506.107 99.952 512.823 91.668 512.823Z" fill="#1F3467"/>
<path d="M513.668 90.8226C505.384 90.8226 498.668 84.1066 498.668 75.8226V30.8226H453.668C445.384 30.8226 438.668 24.1066 438.668 15.8226C438.668 7.53857 445.384 0.822571 453.668 0.822571H513.668C521.952 0.822571 528.668 7.53857 528.668 15.8226V75.8226C528.668 84.1066 521.952 90.8226 513.668 90.8226Z" fill="#1F3467"/>
<path d="M31.668 90.8226C23.384 90.8226 16.668 84.1066 16.668 75.8226V15.8226C16.668 7.53857 23.384 0.822571 31.668 0.822571H91.668C99.952 0.822571 106.668 7.53857 106.668 15.8226C106.668 24.1066 99.952 30.8226 91.668 30.8226H46.668V75.8226C46.668 84.1066 39.952 90.8226 31.668 90.8226Z" fill="#1F3467"/>
<path d="M445.811 251.62C441.106 245.926 436.126 240.464 430.888 235.256C343.631 148.457 201.441 148.457 114.183 235.256C108.946 240.464 103.966 245.926 99.2607 251.62C90.1716 262.623 90.3558 278.558 99.46 289.549C103.978 295.002 108.748 300.24 113.756 305.246C201.447 392.938 343.624 392.938 431.314 305.246C436.322 300.24 441.093 295.002 445.61 289.549C454.716 278.558 454.9 262.623 445.811 251.62Z" fill="#E6E9F0"/>
<path d="M163.751 317.447C156.981 310.678 150.531 303.596 144.423 296.225C132.114 281.365 131.865 259.821 144.152 244.945C150.512 237.246 157.245 229.862 164.327 222.82C183.182 204.053 204.438 187.863 227.541 174.673C185.961 183.083 146.34 203.268 114.181 235.257C108.944 240.466 103.964 245.927 99.2588 251.621C90.1697 262.625 90.3538 278.559 99.4581 289.55C103.976 295.003 108.746 300.241 113.754 305.248C146.227 337.721 186.174 358.155 228.056 366.578C204.528 353.139 182.901 336.616 163.751 317.447Z" fill="#C0C7DA"/>
<path d="M272.536 371.015C327.983 371.015 372.931 326.067 372.931 270.62C372.931 215.173 327.983 170.225 272.536 170.225C217.089 170.225 172.141 215.173 172.141 270.62C172.141 326.067 217.089 371.015 272.536 371.015Z" fill="#4EF480"/>
<path d="M207.532 270.62C207.532 221.215 243.229 180.176 290.232 171.812C284.391 170.764 278.47 170.233 272.536 170.225C217.089 170.225 172.141 215.173 172.141 270.62C172.141 326.067 217.089 371.015 272.536 371.015C278.577 371.015 284.485 370.452 290.232 369.428C243.229 361.065 207.532 320.025 207.532 270.62Z" fill="#00EE5D"/>
<path d="M272.536 320.818C300.259 320.818 322.733 298.343 322.733 270.62C322.733 242.897 300.259 220.422 272.536 220.422C244.812 220.422 222.338 242.897 222.338 270.62C222.338 298.343 244.812 320.818 272.536 320.818Z" fill="#1F3467"/>
<path d="M257.732 270.62C257.732 249.127 271.243 230.798 290.233 223.641C284.577 221.509 278.582 220.418 272.537 220.422C244.814 220.422 222.34 242.896 222.34 270.62C222.34 298.344 244.814 320.818 272.537 320.818C278.768 320.818 284.728 319.674 290.233 317.599C271.243 310.442 257.732 292.113 257.732 270.62Z" fill="#152450"/>
</g>
<defs>
<clipPath id="clip0_538_387">
<rect width="512" height="512" fill="white" transform="translate(0.287109 9.69055)"/>
</clipPath>
<clipPath id="clip1_538_387">
<rect width="512" height="512" fill="white" transform="translate(16.668 0.822571)"/>
</clipPath>
</defs>
</svg>
